<svg width="150" height="150" viewBox="0 0 150 150" fill="none" xmlns="http://www.w3.org/2000/svg">
<circle cx="75" cy="75" r="65" stroke="black" stroke-width="20"/>
<mask id="path-2-outside-1_2_393" maskUnits="userSpaceOnUse" x="21.0321" y="111.968" width="18.38" height="18.38" fill="black">
<rect fill="white" x="21.0321" y="111.968" width="18.38" height="18.38"/>
<path d="M31.331 117.055L31.8947 117.645L31.5564 117.969C30.2116 119.254 28.2729 119.413 26.5959 118.509L26.8282 117.624C28.2948 118.446 29.9602 118.365 30.9926 117.379L31.331 117.055ZM31.4553 117.185L32.0191 117.775L31.6807 118.099C30.7264 119.011 30.597 120.595 31.3613 122.072L30.4654 122.281C29.6213 120.581 29.859 118.711 31.117 117.509L31.4553 117.185ZM30.0373 114.972L34.0333 119.154L33.452 119.709L29.456 115.527L30.0373 114.972ZM32.6497 115.795L33.3378 116.515L32.1492 117.651L31.4611 116.931L32.6497 115.795ZM35.8731 119.238L36.5612 119.958L31.9197 124.393L31.2316 123.673L35.8731 119.238ZM34.3925 121.649L35.6941 123.011L35.0868 123.591L33.7852 122.229L34.3925 121.649ZM26.8464 119.814L31.5553 124.742L28.8224 127.353L24.1135 122.425L26.8464 119.814ZM30.3112 124.586L26.9453 121.064L25.3663 122.573L28.7322 126.095L30.3112 124.586Z"/>
</mask>
<path d="M31.331 117.055L31.8947 117.645L31.5564 117.969C30.2116 119.254 28.2729 119.413 26.5959 118.509L26.8282 117.624C28.2948 118.446 29.9602 118.365 30.9926 117.379L31.331 117.055ZM31.4553 117.185L32.0191 117.775L31.6807 118.099C30.7264 119.011 30.597 120.595 31.3613 122.072L30.4654 122.281C29.6213 120.581 29.859 118.711 31.117 117.509L31.4553 117.185ZM30.0373 114.972L34.0333 119.154L33.452 119.709L29.456 115.527L30.0373 114.972ZM32.6497 115.795L33.3378 116.515L32.1492 117.651L31.4611 116.931L32.6497 115.795ZM35.8731 119.238L36.5612 119.958L31.9197 124.393L31.2316 123.673L35.8731 119.238ZM34.3925 121.649L35.6941 123.011L35.0868 123.591L33.7852 122.229L34.3925 121.649ZM26.8464 119.814L31.5553 124.742L28.8224 127.353L24.1135 122.425L26.8464 119.814ZM30.3112 124.586L26.9453 121.064L25.3663 122.573L28.7322 126.095L30.3112 124.586Z" fill="white"/>
<path d="M31.331 117.055L32.054 116.364L31.3631 115.642L30.6401 116.332L31.331 117.055ZM31.8947 117.645L32.5856 118.368L33.3086 117.677L32.6177 116.954L31.8947 117.645ZM26.5959 118.509L25.6286 118.256L25.4291 119.017L26.1215 119.39L26.5959 118.509ZM26.8282 117.624L27.3174 116.751L26.1891 116.119L25.8609 117.37L26.8282 117.624ZM31.4553 117.185L32.1783 116.495L31.4875 115.772L30.7645 116.463L31.4553 117.185ZM32.0191 117.775L32.71 118.498L33.4329 117.808L32.7421 117.085L32.0191 117.775ZM31.3613 122.072L31.5883 123.046L32.8402 122.754L32.2495 121.613L31.3613 122.072ZM30.4654 122.281L29.5698 122.726L29.9217 123.434L30.6924 123.255L30.4654 122.281ZM30.0373 114.972L30.7603 114.281L30.0694 113.558L29.3464 114.249L30.0373 114.972ZM34.0333 119.154L34.7241 119.877L35.4471 119.186L34.7562 118.463L34.0333 119.154ZM33.452 119.709L32.729 120.4L33.4199 121.123L34.1429 120.432L33.452 119.709ZM29.456 115.527L28.7651 114.804L28.0422 115.495L28.733 116.218L29.456 115.527ZM32.6497 115.795L33.3727 115.104L32.6818 114.381L31.9588 115.072L32.6497 115.795ZM33.3378 116.515L34.0287 117.238L34.7517 116.547L34.0608 115.824L33.3378 116.515ZM32.1492 117.651L31.4262 118.342L32.1171 119.065L32.8401 118.374L32.1492 117.651ZM31.4611 116.931L30.7703 116.208L30.0473 116.899L30.7381 117.622L31.4611 116.931ZM35.8731 119.238L36.5961 118.547L35.9052 117.824L35.1823 118.515L35.8731 119.238ZM36.5612 119.958L37.2521 120.681L37.9751 119.99L37.2842 119.267L36.5612 119.958ZM31.9197 124.393L31.1967 125.084L31.8876 125.807L32.6106 125.116L31.9197 124.393ZM31.2316 123.673L30.5407 122.95L29.8177 123.641L30.5086 124.364L31.2316 123.673ZM34.3925 121.649L35.1155 120.958L34.4246 120.235L33.7016 120.926L34.3925 121.649ZM35.6941 123.011L36.3849 123.734L37.1079 123.043L36.4171 122.32L35.6941 123.011ZM35.0868 123.591L34.3638 124.282L35.0547 125.005L35.7776 124.314L35.0868 123.591ZM33.7852 122.229L33.0943 121.506L32.3713 122.197L33.0622 122.92L33.7852 122.229ZM26.8464 119.814L27.5693 119.123L26.8785 118.4L26.1555 119.091L26.8464 119.814ZM31.5553 124.742L32.2462 125.465L32.9692 124.774L32.2783 124.051L31.5553 124.742ZM28.8224 127.353L28.0995 128.044L28.7903 128.767L29.5133 128.076L28.8224 127.353ZM24.1135 122.425L23.4226 121.702L22.6996 122.393L23.3905 123.116L24.1135 122.425ZM30.3112 124.586L31.0021 125.309L31.725 124.618L31.0342 123.895L30.3112 124.586ZM26.9453 121.064L27.6683 120.373L26.9774 119.65L26.2544 120.341L26.9453 121.064ZM25.3663 122.573L24.6754 121.85L23.9524 122.54L24.6433 123.263L25.3663 122.573ZM28.7322 126.095L28.0092 126.786L28.7001 127.509L29.4231 126.818L28.7322 126.095ZM30.608 117.746L31.1717 118.336L32.6177 116.954L32.054 116.364L30.608 117.746ZM31.2039 116.922L30.8655 117.246L32.2472 118.692L32.5856 118.368L31.2039 116.922ZM30.8655 117.246C29.8725 118.195 28.4148 118.354 27.0703 117.629L26.1215 119.39C28.131 120.473 30.5508 120.313 32.2472 118.692L30.8655 117.246ZM27.5632 118.763L27.7955 117.877L25.8609 117.37L25.6286 118.256L27.5632 118.763ZM26.339 118.496C28.0832 119.474 30.2535 119.468 31.6835 118.102L30.3018 116.656C29.667 117.262 28.5065 117.418 27.3174 116.751L26.339 118.496ZM31.6835 118.102L32.0218 117.778L30.6401 116.332L30.3018 116.656L31.6835 118.102ZM30.7324 117.876L31.2961 118.466L32.7421 117.085L32.1783 116.495L30.7324 117.876ZM31.3282 117.052L30.9899 117.376L32.3716 118.822L32.71 118.498L31.3282 117.052ZM30.9899 117.376C29.6184 118.686 29.5734 120.793 30.4732 122.532L32.2495 121.613C31.6207 120.397 31.8344 119.335 32.3716 118.822L30.9899 117.376ZM31.1343 121.098L30.2384 121.307L30.6924 123.255L31.5883 123.046L31.1343 121.098ZM31.361 121.836C30.681 120.467 30.9135 119.086 31.8079 118.232L30.4261 116.786C28.8045 118.335 28.5616 120.696 29.5698 122.726L31.361 121.836ZM31.8079 118.232L32.1462 117.908L30.7645 116.463L30.4261 116.786L31.8079 118.232ZM29.3143 115.663L33.3103 119.845L34.7562 118.463L30.7603 114.281L29.3143 115.663ZM33.3424 118.431L32.7611 118.986L34.1429 120.432L34.7241 119.877L33.3424 118.431ZM34.175 119.018L30.179 114.837L28.733 116.218L32.729 120.4L34.175 119.018ZM30.1469 116.25L30.7282 115.695L29.3464 114.249L28.7651 114.804L30.1469 116.25ZM31.9267 116.486L32.6148 117.206L34.0608 115.824L33.3727 115.104L31.9267 116.486ZM32.6469 115.792L31.4584 116.928L32.8401 118.374L34.0287 117.238L32.6469 115.792ZM32.8722 116.96L32.1841 116.24L30.7381 117.622L31.4262 118.342L32.8722 116.96ZM32.152 117.654L33.3406 116.518L31.9588 115.072L30.7703 116.208L32.152 117.654ZM35.1501 119.929L35.8383 120.649L37.2842 119.267L36.5961 118.547L35.1501 119.929ZM35.8704 119.235L31.2288 123.67L32.6106 125.116L37.2521 120.681L35.8704 119.235ZM32.6427 123.703L31.9546 122.982L30.5086 124.364L31.1967 125.084L32.6427 123.703ZM31.9225 124.396L36.564 119.961L35.1823 118.515L30.5407 122.95L31.9225 124.396ZM33.6695 122.34L34.9711 123.702L36.4171 122.32L35.1155 120.958L33.6695 122.34ZM35.0032 122.288L34.3959 122.868L35.7776 124.314L36.3849 123.734L35.0032 122.288ZM35.8097 122.9L34.5082 121.538L33.0622 122.92L34.3638 124.282L35.8097 122.9ZM34.476 122.952L35.0833 122.372L33.7016 120.926L33.0943 121.506L34.476 122.952ZM26.1234 120.505L30.8323 125.432L32.2783 124.051L27.5693 119.123L26.1234 120.505ZM30.8644 124.019L28.1316 126.63L29.5133 128.076L32.2462 125.465L30.8644 124.019ZM29.5454 126.662L24.8365 121.734L23.3905 123.116L28.0995 128.044L29.5454 126.662ZM24.8044 123.148L27.5372 120.537L26.1555 119.091L23.4226 121.702L24.8044 123.148ZM31.0342 123.895L27.6683 120.373L26.2223 121.755L29.5882 125.277L31.0342 123.895ZM26.2544 120.341L24.6754 121.85L26.0572 123.296L27.6361 121.787L26.2544 120.341ZM24.6433 123.263L28.0092 126.786L29.4552 125.404L26.0893 121.882L24.6433 123.263ZM29.4231 126.818L31.0021 125.309L29.6203 123.863L28.0413 125.372L29.4231 126.818Z" fill="black" mask="url(#path-2-outside-1_2_393)"/>
<mask id="path-4-outside-2_2_393" maskUnits="userSpaceOnUse" x="41.7428" y="127.675" width="9.86049" height="12.9669" fill="black">
<rect fill="white" x="41.7428" y="127.675" width="9.86049" height="12.9669"/>
<path d="M49.468 130.273L46.5722 135.838L45.6891 135.394L48.4326 129.752L49.468 130.273ZM44.9967 137.869C44.8089 137.775 44.6816 137.626 44.6148 137.424C44.5479 137.222 44.5618 137.027 44.6563 136.839C44.7508 136.651 44.8991 136.524 45.1013 136.457C45.3035 136.39 45.4985 136.404 45.6863 136.499C45.874 136.593 46.0013 136.742 46.0682 136.944C46.135 137.146 46.1211 137.341 46.0266 137.529C45.9641 137.653 45.8749 137.751 45.7591 137.824C45.6458 137.897 45.5212 137.939 45.3852 137.95C45.2531 137.96 45.1236 137.933 44.9967 137.869Z"/>
</mask>
<path d="M49.468 130.273L46.5722 135.838L45.6891 135.394L48.4326 129.752L49.468 130.273ZM44.9967 137.869C44.8089 137.775 44.6816 137.626 44.6148 137.424C44.5479 137.222 44.5618 137.027 44.6563 136.839C44.7508 136.651 44.8991 136.524 45.1013 136.457C45.3035 136.39 45.4985 136.404 45.6863 136.499C45.874 136.593 46.0013 136.742 46.0682 136.944C46.135 137.146 46.1211 137.341 46.0266 137.529C45.9641 137.653 45.8749 137.751 45.7591 137.824C45.6458 137.897 45.5212 137.939 45.3852 137.95C45.2531 137.96 45.1236 137.933 44.9967 137.869Z" fill="white"/>
<path d="M49.468 130.273L50.3551 130.735L50.823 129.835L49.9175 129.38L49.468 130.273ZM46.5722 135.838L46.1227 136.731L47.0039 137.175L47.4593 136.3L46.5722 135.838ZM45.6891 135.394L44.7898 134.956L44.3584 135.843L45.2396 136.287L45.6891 135.394ZM48.4326 129.752L48.8821 128.859L47.9766 128.403L47.5333 129.315L48.4326 129.752ZM44.6148 137.424L45.5642 137.11L45.5642 137.11L44.6148 137.424ZM46.0682 136.944L47.0177 136.63L47.0177 136.63L46.0682 136.944ZM45.7591 137.824L45.2304 136.975L45.2228 136.979L45.2153 136.984L45.7591 137.824ZM45.3852 137.95L45.4594 138.948L45.4665 138.947L45.3852 137.95ZM48.5809 129.811L45.6851 135.376L47.4593 136.3L50.3551 130.735L48.5809 129.811ZM47.0217 134.945L46.1386 134.5L45.2396 136.287L46.1227 136.731L47.0217 134.945ZM46.5884 135.831L49.3319 130.189L47.5333 129.315L44.7898 134.956L46.5884 135.831ZM47.9831 130.645L49.0185 131.166L49.9175 129.38L48.8821 128.859L47.9831 130.645ZM45.4462 136.976C45.4614 136.984 45.4904 137.002 45.5192 137.036C45.5478 137.069 45.5604 137.099 45.5642 137.11L43.6653 137.738C43.8141 138.188 44.119 138.547 44.5472 138.762L45.4462 136.976ZM45.5642 137.11C45.5681 137.122 45.5756 137.153 45.5725 137.197C45.5694 137.241 45.5572 137.274 45.5496 137.289L43.763 136.39C43.5476 136.818 43.5164 137.288 43.6653 137.738L45.5642 137.11ZM45.5496 137.289C45.5419 137.304 45.5232 137.333 45.4897 137.362C45.4563 137.39 45.4267 137.403 45.4151 137.407L44.7875 135.508C44.3371 135.657 43.9784 135.962 43.763 136.39L45.5496 137.289ZM45.4151 137.407C45.4035 137.411 45.3722 137.418 45.3284 137.415C45.2843 137.412 45.2519 137.4 45.2367 137.392L46.1358 135.606C45.7077 135.39 45.2379 135.359 44.7875 135.508L45.4151 137.407ZM45.2367 137.392C45.2215 137.384 45.1925 137.366 45.1637 137.332C45.1351 137.299 45.1225 137.269 45.1187 137.258L47.0177 136.63C46.8688 136.18 46.5639 135.821 46.1358 135.606L45.2367 137.392ZM45.1187 137.258C45.1148 137.246 45.1073 137.215 45.1104 137.171C45.1135 137.127 45.1257 137.095 45.1334 137.079L46.9199 137.978C47.1353 137.55 47.1665 137.08 47.0177 136.63L45.1187 137.258ZM45.1334 137.079C45.1407 137.065 45.1533 137.045 45.1724 137.024C45.1917 137.002 45.2122 136.986 45.2304 136.975L46.2877 138.672C46.5628 138.501 46.7766 138.263 46.9199 137.978L45.1334 137.079ZM45.2153 136.984C45.2263 136.977 45.2415 136.969 45.2596 136.963C45.2777 136.957 45.2933 136.954 45.304 136.954L45.4665 138.947C45.7654 138.923 46.0493 138.827 46.3029 138.663L45.2153 136.984ZM45.3111 136.953C45.338 136.951 45.3663 136.953 45.3931 136.958C45.4196 136.964 45.4376 136.972 45.4462 136.976L44.5472 138.762C44.8239 138.902 45.1334 138.972 45.4594 138.947L45.3111 136.953Z" fill="black" mask="url(#path-4-outside-2_2_393)"/>
<mask id="path-6-outside-3_2_393" maskUnits="userSpaceOnUse" x="67.7742" y="133.884" width="14.2003" height="13.216" fill="black">
<rect fill="white" x="67.7742" y="133.884" width="14.2003" height="13.216"/>
<path d="M73.0555 135.948L73.8714 135.935L73.8849 136.799C73.9139 138.671 72.7018 140.214 70.8631 140.831L70.3589 140.046C71.995 139.529 73.0911 138.24 73.069 136.812L73.0555 135.948ZM73.2355 135.945L74.0514 135.932L74.0648 136.796C74.0848 138.08 75.1829 139.239 76.7858 139.67L76.3302 140.47C74.5098 139.946 73.2756 138.525 73.2489 136.809L73.2355 135.945ZM70.6281 135.746L76.4354 135.655L76.4481 136.471L70.6408 136.561L70.6281 135.746ZM77.8059 135.034L78.8018 135.018L78.8885 140.598L77.8926 140.613L77.8059 135.034ZM78.4064 137.377L80.4341 137.345L80.447 138.173L78.4192 138.205L78.4064 137.377ZM72.0093 141.221L78.8965 141.114L78.9373 143.741L73.0581 143.833L73.084 145.501L72.1001 145.516L72.0628 143.116L77.9541 143.025L77.9367 141.909L72.0215 142.001L72.0093 141.221ZM72.0936 145.096L79.3527 144.983L79.3646 145.751L72.1055 145.864L72.0936 145.096Z"/>
</mask>
<path d="M73.0555 135.948L73.8714 135.935L73.8849 136.799C73.9139 138.671 72.7018 140.214 70.8631 140.831L70.3589 140.046C71.995 139.529 73.0911 138.24 73.069 136.812L73.0555 135.948ZM73.2355 135.945L74.0514 135.932L74.0648 136.796C74.0848 138.08 75.1829 139.239 76.7858 139.67L76.3302 140.47C74.5098 139.946 73.2756 138.525 73.2489 136.809L73.2355 135.945ZM70.6281 135.746L76.4354 135.655L76.4481 136.471L70.6408 136.561L70.6281 135.746ZM77.8059 135.034L78.8018 135.018L78.8885 140.598L77.8926 140.613L77.8059 135.034ZM78.4064 137.377L80.4341 137.345L80.447 138.173L78.4192 138.205L78.4064 137.377ZM72.0093 141.221L78.8965 141.114L78.9373 143.741L73.0581 143.833L73.084 145.501L72.1001 145.516L72.0628 143.116L77.9541 143.025L77.9367 141.909L72.0215 142.001L72.0093 141.221ZM72.0936 145.096L79.3527 144.983L79.3646 145.751L72.1055 145.864L72.0936 145.096Z" fill="white"/>
<path d="M73.0555 135.948L73.04 134.948L72.0401 134.964L72.0556 135.963L73.0555 135.948ZM73.8714 135.935L74.8713 135.92L74.8558 134.92L73.8559 134.935L73.8714 135.935ZM70.8631 140.831L70.022 141.371L70.443 142.026L71.1811 141.779L70.8631 140.831ZM70.3589 140.046L70.0573 139.093L68.8105 139.487L69.5177 140.587L70.3589 140.046ZM73.2355 135.945L73.22 134.945L72.2201 134.961L72.2356 135.961L73.2355 135.945ZM74.0514 135.932L75.0513 135.917L75.0357 134.917L74.0359 134.932L74.0514 135.932ZM76.7858 139.67L77.6545 140.166L78.2958 139.041L77.0456 138.705L76.7858 139.67ZM76.3302 140.47L76.0537 141.431L76.8094 141.648L77.1989 140.965L76.3302 140.47ZM70.6281 135.746L70.6125 134.746L69.6127 134.761L69.6282 135.761L70.6281 135.746ZM76.4354 135.655L77.4353 135.64L77.4197 134.64L76.4198 134.655L76.4354 135.655ZM76.4481 136.471L76.4636 137.471L77.4635 137.456L77.4479 136.456L76.4481 136.471ZM70.6408 136.561L69.6409 136.577L69.6564 137.577L70.6563 137.561L70.6408 136.561ZM77.8059 135.034L77.7904 134.034L76.7905 134.05L76.806 135.049L77.8059 135.034ZM78.8018 135.018L79.8017 135.003L79.7861 134.003L78.7862 134.019L78.8018 135.018ZM78.8885 140.598L78.904 141.598L79.9039 141.582L79.8884 140.582L78.8885 140.598ZM77.8926 140.613L76.8927 140.629L76.9083 141.629L77.9081 141.613L77.8926 140.613ZM78.4064 137.377L78.3908 136.377L77.391 136.393L77.4065 137.392L78.4064 137.377ZM80.4341 137.345L81.434 137.33L81.4185 136.33L80.4186 136.345L80.4341 137.345ZM80.447 138.173L80.4625 139.173L81.4624 139.158L81.4469 138.158L80.447 138.173ZM78.4192 138.205L77.4194 138.22L77.4349 139.22L78.4348 139.205L78.4192 138.205ZM72.0093 141.221L71.9938 140.221L70.9939 140.236L71.0095 141.236L72.0093 141.221ZM78.8965 141.114L79.8964 141.098L79.8808 140.098L78.881 140.114L78.8965 141.114ZM78.9373 143.741L78.9529 144.741L79.9528 144.726L79.9372 143.726L78.9373 143.741ZM73.0581 143.833L73.0425 142.833L72.0426 142.848L72.0582 143.848L73.0581 143.833ZM73.084 145.501L73.0995 146.5L74.0994 146.485L74.0839 145.485L73.084 145.501ZM72.1001 145.516L71.1002 145.531L71.1158 146.531L72.1156 146.516L72.1001 145.516ZM72.0628 143.116L72.0473 142.116L71.0474 142.132L71.0629 143.132L72.0628 143.116ZM77.9541 143.025L77.9696 144.024L78.9695 144.009L78.954 143.009L77.9541 143.025ZM77.9367 141.909L78.9366 141.893L78.9211 140.893L77.9212 140.909L77.9367 141.909ZM72.0215 142.001L71.0216 142.016L71.0371 143.016L72.037 143.001L72.0215 142.001ZM72.0936 145.096L72.078 144.096L71.0781 144.112L71.0937 145.111L72.0936 145.096ZM79.3527 144.983L80.3526 144.968L80.337 143.968L79.3372 143.983L79.3527 144.983ZM79.3646 145.751L79.3802 146.751L80.38 146.735L80.3645 145.735L79.3646 145.751ZM72.1055 145.864L71.1056 145.879L71.1212 146.879L72.121 146.864L72.1055 145.864ZM73.0711 136.948L73.887 136.935L73.8559 134.935L73.04 134.948L73.0711 136.948ZM72.8715 135.951L72.885 136.815L74.8847 136.784L74.8713 135.92L72.8715 135.951ZM72.885 136.815C72.9064 138.197 72.025 139.386 70.5452 139.882L71.1811 141.779C73.3786 141.042 74.9214 139.145 74.8847 136.784L72.885 136.815ZM71.7043 140.29L71.2 139.505L69.5177 140.587L70.022 141.371L71.7043 140.29ZM70.6604 141C72.5931 140.388 74.0997 138.784 74.0688 136.796L72.0691 136.827C72.0826 137.695 71.397 138.669 70.0573 139.093L70.6604 141ZM74.0688 136.796L74.0554 135.932L72.0556 135.963L72.0691 136.827L74.0688 136.796ZM73.251 136.945L74.0669 136.932L74.0359 134.932L73.22 134.945L73.251 136.945ZM73.0515 135.948L73.065 136.812L75.0647 136.781L75.0513 135.917L73.0515 135.948ZM73.065 136.812C73.0942 138.692 74.6571 140.133 76.5261 140.636L77.0456 138.705C75.7087 138.345 75.0754 137.468 75.0647 136.781L73.065 136.812ZM75.9171 139.175L75.4615 139.974L77.1989 140.965L77.6545 140.166L75.9171 139.175ZM76.6067 139.508C75.1252 139.082 74.2674 137.988 74.2488 136.793L72.249 136.824C72.2838 139.062 73.8945 140.809 76.0537 141.431L76.6067 139.508ZM74.2488 136.793L74.2354 135.93L72.2356 135.961L72.249 136.824L74.2488 136.793ZM70.6436 136.745L76.4509 136.655L76.4198 134.655L70.6125 134.746L70.6436 136.745ZM75.4355 135.671L75.4482 136.487L77.4479 136.456L77.4353 135.64L75.4355 135.671ZM76.4325 135.471L70.6252 135.562L70.6563 137.561L76.4636 137.471L76.4325 135.471ZM71.6406 136.546L71.628 135.73L69.6282 135.761L69.6409 136.577L71.6406 136.546ZM77.8214 136.034L78.8173 136.018L78.7862 134.019L77.7904 134.034L77.8214 136.034ZM77.8019 135.034L77.8886 140.613L79.8884 140.582L79.8017 135.003L77.8019 135.034ZM78.8729 139.598L77.8771 139.613L77.9081 141.613L78.904 141.598L78.8729 139.598ZM78.8925 140.598L78.8058 135.018L76.806 135.049L76.8927 140.629L78.8925 140.598ZM78.4219 138.377L80.4497 138.345L80.4186 136.345L78.3908 136.377L78.4219 138.377ZM79.4343 137.361L79.4471 138.189L81.4469 138.158L81.434 137.33L79.4343 137.361ZM80.4315 137.173L78.4037 137.205L78.4348 139.205L80.4625 139.173L80.4315 137.173ZM79.4191 138.189L79.4063 137.361L77.4065 137.392L77.4194 138.22L79.4191 138.189ZM72.0249 142.221L78.912 142.114L78.881 140.114L71.9938 140.221L72.0249 142.221ZM77.8966 141.129L77.9375 143.757L79.9372 143.726L79.8964 141.098L77.8966 141.129ZM78.9218 142.742L73.0425 142.833L73.0736 144.833L78.9529 144.741L78.9218 142.742ZM72.0582 143.848L72.0841 145.516L74.0839 145.485L74.0579 143.817L72.0582 143.848ZM73.0684 144.501L72.0846 144.516L72.1156 146.516L73.0995 146.5L73.0684 144.501ZM73.1 145.5L73.0627 143.101L71.0629 143.132L71.1002 145.531L73.1 145.5ZM72.0783 144.116L77.9696 144.024L77.9385 142.025L72.0473 142.116L72.0783 144.116ZM78.954 143.009L78.9366 141.893L76.9369 141.924L76.9542 143.04L78.954 143.009ZM77.9212 140.909L72.0059 141.001L72.037 143.001L77.9523 142.909L77.9212 140.909ZM73.0213 141.985L73.0092 141.205L71.0095 141.236L71.0216 142.016L73.0213 141.985ZM72.1091 146.096L79.3682 145.983L79.3372 143.983L72.078 144.096L72.1091 146.096ZM78.3528 144.999L78.3647 145.767L80.3645 145.735L80.3526 144.968L78.3528 144.999ZM79.3491 144.751L72.09 144.864L72.121 146.864L79.3802 146.751L79.3491 144.751ZM73.1054 145.848L73.0934 145.08L71.0937 145.111L71.1056 145.879L73.1054 145.848Z" fill="black" mask="url(#path-6-outside-3_2_393)"/>
<mask id="path-8-outside-4_2_393" maskUnits="userSpaceOnUse" x="83.3363" y="129.919" width="17.3212" height="17.3212" fill="black">
<rect fill="white" x="83.3363" y="129.919" width="17.3212" height="17.3212"/>
<path d="M93.0437 132.141L93.9548 131.879L95.8069 138.326L94.8957 138.588L93.0437 132.141ZM92.1666 135.476L94.1388 134.91L94.3641 135.694L92.3919 136.261L92.1666 135.476ZM90.8723 132.927L91.7834 132.665L93.5493 138.812L92.6382 139.074L90.8723 132.927ZM85.458 135.593L90.7404 134.076L90.9591 134.837L85.6767 136.354L85.458 135.593ZM88.4785 136.111C89.7818 135.737 90.8951 136.179 91.2065 137.263C91.5179 138.347 90.8089 139.312 89.5056 139.687C88.1908 140.065 87.0775 139.623 86.7661 138.539C86.4547 137.454 87.1637 136.489 88.4785 136.111ZM88.6873 136.838C87.8684 137.073 87.434 137.648 87.6196 138.293C87.8051 138.939 88.4813 139.207 89.3002 138.972C90.1075 138.74 90.5386 138.154 90.353 137.508C90.1675 136.862 89.4946 136.606 88.6873 136.838ZM87.3099 133.825L88.2441 133.557L88.7013 135.148L87.7671 135.417L87.3099 133.825ZM89.8643 140.37L90.6024 140.158L90.7051 140.516C91.0828 141.831 90.5955 143.394 89.2403 144.37L88.5851 143.784C89.7625 142.972 90.2387 141.674 89.967 140.728L89.8643 140.37ZM90.0834 140.307L90.787 140.105L90.8897 140.463C91.1779 141.466 92.094 142.352 93.4755 142.467L93.2805 143.309C91.6336 143.183 90.5671 141.991 90.1861 140.665L90.0834 140.307ZM93.6934 139.27L94.397 139.068L94.4997 139.426C94.8376 140.602 94.5845 142.286 93.2805 143.309L92.6796 142.695C93.7383 141.817 94.0446 140.493 93.7961 139.628L93.6934 139.27ZM93.8895 139.214L94.6276 139.002L94.7303 139.36C95.0219 140.375 96.101 141.176 97.5351 141.213L97.2792 142.061C95.6077 141.979 94.3898 140.956 93.9922 139.572L93.8895 139.214Z"/>
</mask>
<path d="M93.0437 132.141L93.9548 131.879L95.8069 138.326L94.8957 138.588L93.0437 132.141ZM92.1666 135.476L94.1388 134.91L94.3641 135.694L92.3919 136.261L92.1666 135.476ZM90.8723 132.927L91.7834 132.665L93.5493 138.812L92.6382 139.074L90.8723 132.927ZM85.458 135.593L90.7404 134.076L90.9591 134.837L85.6767 136.354L85.458 135.593ZM88.4785 136.111C89.7818 135.737 90.8951 136.179 91.2065 137.263C91.5179 138.347 90.8089 139.312 89.5056 139.687C88.1908 140.065 87.0775 139.623 86.7661 138.539C86.4547 137.454 87.1637 136.489 88.4785 136.111ZM88.6873 136.838C87.8684 137.073 87.434 137.648 87.6196 138.293C87.8051 138.939 88.4813 139.207 89.3002 138.972C90.1075 138.74 90.5386 138.154 90.353 137.508C90.1675 136.862 89.4946 136.606 88.6873 136.838ZM87.3099 133.825L88.2441 133.557L88.7013 135.148L87.7671 135.417L87.3099 133.825ZM89.8643 140.37L90.6024 140.158L90.7051 140.516C91.0828 141.831 90.5955 143.394 89.2403 144.37L88.5851 143.784C89.7625 142.972 90.2387 141.674 89.967 140.728L89.8643 140.37ZM90.0834 140.307L90.787 140.105L90.8897 140.463C91.1779 141.466 92.094 142.352 93.4755 142.467L93.2805 143.309C91.6336 143.183 90.5671 141.991 90.1861 140.665L90.0834 140.307ZM93.6934 139.27L94.397 139.068L94.4997 139.426C94.8376 140.602 94.5845 142.286 93.2805 143.309L92.6796 142.695C93.7383 141.817 94.0446 140.493 93.7961 139.628L93.6934 139.27ZM93.8895 139.214L94.6276 139.002L94.7303 139.36C95.0219 140.375 96.101 141.176 97.5351 141.213L97.2792 142.061C95.6077 141.979 94.3898 140.956 93.9922 139.572L93.8895 139.214Z" fill="white"/>
<path d="M93.0437 132.141L92.7676 131.18L91.8064 131.456L92.0825 132.417L93.0437 132.141ZM93.9548 131.879L94.9159 131.603L94.6398 130.642L93.6787 130.918L93.9548 131.879ZM95.8069 138.326L96.083 139.287L97.0441 139.011L96.768 138.05L95.8069 138.326ZM94.8957 138.588L93.9346 138.864L94.2107 139.825L95.1718 139.549L94.8957 138.588ZM92.1666 135.476L91.8905 134.515L90.9294 134.791L91.2054 135.753L92.1666 135.476ZM94.1388 134.91L95.0999 134.634L94.8238 133.673L93.8627 133.949L94.1388 134.91ZM94.3641 135.694L94.6402 136.655L95.6013 136.379L95.3252 135.418L94.3641 135.694ZM92.3919 136.261L91.4307 136.537L91.7068 137.498L92.668 137.222L92.3919 136.261ZM90.8723 132.927L90.5962 131.966L89.6351 132.242L89.9112 133.203L90.8723 132.927ZM91.7834 132.665L92.7446 132.389L92.4685 131.428L91.5073 131.704L91.7834 132.665ZM93.5493 138.812L93.8254 139.774L94.7866 139.497L94.5105 138.536L93.5493 138.812ZM92.6382 139.074L91.6771 139.35L91.9532 140.311L92.9143 140.035L92.6382 139.074ZM85.458 135.593L85.182 134.632L84.2208 134.908L84.4969 135.869L85.458 135.593ZM90.7404 134.076L91.7015 133.8L91.4255 132.839L90.4643 133.115L90.7404 134.076ZM90.9591 134.837L91.2352 135.798L92.1963 135.522L91.9202 134.561L90.9591 134.837ZM85.6767 136.354L84.7156 136.631L84.9917 137.592L85.9528 137.316L85.6767 136.354ZM87.3099 133.825L87.0338 132.864L86.0727 133.14L86.3488 134.101L87.3099 133.825ZM88.2441 133.557L89.2052 133.281L88.9291 132.32L87.968 132.596L88.2441 133.557ZM88.7013 135.148L88.9774 136.11L89.9385 135.834L89.6625 134.872L88.7013 135.148ZM87.7671 135.417L86.806 135.693L87.0821 136.654L88.0432 136.378L87.7671 135.417ZM89.8643 140.37L89.5882 139.409L88.627 139.685L88.9031 140.646L89.8643 140.37ZM90.6024 140.158L91.5635 139.882L91.2874 138.921L90.3263 139.197L90.6024 140.158ZM89.2403 144.37L88.5738 145.116L89.1728 145.651L89.8248 145.182L89.2403 144.37ZM88.5851 143.784L88.0171 142.961L86.9715 143.683L87.9185 144.53L88.5851 143.784ZM90.0834 140.307L89.8073 139.346L88.8462 139.622L89.1223 140.584L90.0834 140.307ZM90.787 140.105L91.7481 139.829L91.472 138.868L90.5109 139.144L90.787 140.105ZM93.4755 142.467L94.4497 142.692L94.7102 141.566L93.5585 141.47L93.4755 142.467ZM93.2805 143.309L93.2041 144.306L94.061 144.372L94.2548 143.535L93.2805 143.309ZM93.6934 139.27L93.4173 138.309L92.4562 138.585L92.7323 139.546L93.6934 139.27ZM94.397 139.068L95.3581 138.792L95.082 137.831L94.1209 138.107L94.397 139.068ZM93.2805 143.309L92.5658 144.009L93.1929 144.65L93.8981 144.096L93.2805 143.309ZM92.6796 142.695L92.0411 141.926L91.2057 142.619L91.965 143.395L92.6796 142.695ZM93.8895 139.214L93.6134 138.253L92.6523 138.529L92.9283 139.49L93.8895 139.214ZM94.6276 139.002L95.5888 138.726L95.3127 137.765L94.3515 138.041L94.6276 139.002ZM97.5351 141.213L98.4925 141.502L98.8712 140.248L97.5613 140.214L97.5351 141.213ZM97.2792 142.061L97.2304 143.06L98.0107 143.098L98.2365 142.35L97.2792 142.061ZM93.3198 133.102L94.2309 132.84L93.6787 130.918L92.7676 131.18L93.3198 133.102ZM92.9937 132.155L94.8457 138.602L96.768 138.05L94.9159 131.603L92.9937 132.155ZM95.5308 137.365L94.6196 137.627L95.1718 139.549L96.083 139.287L95.5308 137.365ZM95.8568 138.312L94.0048 131.865L92.0825 132.417L93.9346 138.864L95.8568 138.312ZM92.4427 136.438L94.4149 135.871L93.8627 133.949L91.8905 134.515L92.4427 136.438ZM93.1777 135.186L93.403 135.97L95.3252 135.418L95.0999 134.634L93.1777 135.186ZM94.088 134.733L92.1158 135.3L92.668 137.222L94.6402 136.655L94.088 134.733ZM93.353 135.985L93.1277 135.2L91.2054 135.753L91.4307 136.537L93.353 135.985ZM91.1484 133.888L92.0595 133.626L91.5073 131.704L90.5962 131.966L91.1484 133.888ZM90.8223 132.941L92.5882 139.088L94.5105 138.536L92.7446 132.389L90.8223 132.941ZM93.2733 137.851L92.3621 138.113L92.9143 140.035L93.8254 139.774L93.2733 137.851ZM93.5993 138.798L91.8334 132.651L89.9112 133.203L91.6771 139.35L93.5993 138.798ZM85.7341 136.554L91.0165 135.037L90.4643 133.115L85.182 134.632L85.7341 136.554ZM89.7793 134.352L89.998 135.113L91.9202 134.561L91.7015 133.8L89.7793 134.352ZM90.683 133.876L85.4006 135.393L85.9528 137.316L91.2352 135.798L90.683 133.876ZM86.6378 136.078L86.4192 135.317L84.4969 135.869L84.7156 136.631L86.6378 136.078ZM88.7546 137.073C89.2418 136.933 89.6063 136.971 89.8313 137.064C90.0332 137.148 90.1746 137.293 90.2454 137.539L92.1676 136.987C91.927 136.149 91.3561 135.531 90.5976 135.217C89.8623 134.912 89.0185 134.916 88.2024 135.15L88.7546 137.073ZM90.2454 137.539C90.3162 137.786 90.2732 137.983 90.1466 138.162C90.0054 138.36 89.7167 138.586 89.2295 138.726L89.7817 140.648C90.5978 140.414 91.3152 139.969 91.7765 139.321C92.2524 138.651 92.4083 137.825 92.1676 136.987L90.2454 137.539ZM89.2295 138.726C88.7348 138.868 88.367 138.83 88.1411 138.737C87.9389 138.653 87.7979 138.509 87.7272 138.262L85.805 138.815C86.0457 139.653 86.6171 140.271 87.3781 140.585C88.1153 140.89 88.9616 140.884 89.7817 140.648L89.2295 138.726ZM87.7272 138.262C87.6565 138.016 87.6993 137.819 87.8264 137.641C87.9684 137.442 88.2599 137.215 88.7546 137.073L88.2024 135.15C87.3823 135.386 86.6619 135.83 86.1985 136.479C85.7202 137.149 85.5643 137.977 85.805 138.815L87.7272 138.262ZM88.4112 135.877C87.85 136.038 87.3242 136.342 86.9729 136.817C86.6038 137.316 86.4781 137.942 86.6584 138.569L88.5807 138.017C88.5746 137.996 88.5786 137.996 88.5763 138.008C88.5741 138.02 88.5706 138.02 88.5806 138.007C88.6048 137.974 88.7056 137.873 88.9633 137.799L88.4112 135.877ZM86.6584 138.569C86.8382 139.195 87.2753 139.66 87.8498 139.891C88.3995 140.112 89.0094 140.096 89.5763 139.933L89.0241 138.011C88.7721 138.083 88.6345 138.051 88.5949 138.035C88.5778 138.028 88.5785 138.025 88.5845 138.031C88.5909 138.038 88.5868 138.039 88.5807 138.017L86.6584 138.569ZM89.5763 139.933C90.1402 139.771 90.6625 139.46 91.0089 138.982C91.3704 138.482 91.4938 137.857 91.3142 137.232L89.3919 137.784C89.398 137.806 89.3946 137.808 89.3962 137.799C89.3976 137.791 89.3997 137.794 89.389 137.809C89.3644 137.843 89.2675 137.941 89.0241 138.011L89.5763 139.933ZM91.3142 137.232C91.134 136.605 90.696 136.142 90.1216 135.914C89.5741 135.697 88.9693 135.717 88.4112 135.877L88.9633 137.799C89.2126 137.728 89.3479 137.759 89.3851 137.774C89.4005 137.78 89.3979 137.782 89.3903 137.774C89.3822 137.765 89.3858 137.763 89.3919 137.784L91.3142 137.232ZM87.586 134.786L88.5202 134.518L87.968 132.596L87.0338 132.864L87.586 134.786ZM87.283 133.833L87.7402 135.425L89.6625 134.872L89.2052 133.281L87.283 133.833ZM88.4252 134.187L87.491 134.456L88.0432 136.378L88.9774 136.11L88.4252 134.187ZM88.7282 135.141L88.271 133.549L86.3488 134.101L86.806 135.693L88.7282 135.141ZM90.1404 141.331L90.8785 141.119L90.3263 139.197L89.5882 139.409L90.1404 141.331ZM89.6413 140.434L89.744 140.792L91.6663 140.24L91.5635 139.882L89.6413 140.434ZM89.744 140.792C89.9996 141.682 89.6851 142.817 88.6559 143.559L89.8248 145.182C91.5059 143.971 92.166 141.98 91.6663 140.24L89.744 140.792ZM89.9069 143.625L89.2517 143.039L87.9185 144.53L88.5738 145.116L89.9069 143.625ZM89.1531 144.607C90.5998 143.609 91.3443 141.901 90.9281 140.452L89.0058 141.004C89.133 141.447 88.9252 142.334 88.0171 142.961L89.1531 144.607ZM90.9281 140.452L90.8254 140.094L88.9031 140.646L89.0058 141.004L90.9281 140.452ZM90.3595 141.269L91.063 141.066L90.5109 139.144L89.8073 139.346L90.3595 141.269ZM89.8258 140.381L89.9285 140.739L91.8508 140.187L91.7481 139.829L89.8258 140.381ZM89.9285 140.739C90.3302 142.137 91.5926 143.313 93.3925 143.463L93.5585 141.47C92.5954 141.39 92.0256 140.795 91.8508 140.187L89.9285 140.739ZM92.5012 142.241L92.3062 143.084L94.2548 143.535L94.4497 142.692L92.5012 142.241ZM93.3569 142.312C92.2211 142.225 91.4415 141.413 91.1472 140.389L89.225 140.941C89.6928 142.57 91.0462 144.141 93.2041 144.306L93.3569 142.312ZM91.1472 140.389L91.0445 140.031L89.1223 140.584L89.225 140.941L91.1472 140.389ZM93.9695 140.232L94.6731 140.029L94.1209 138.107L93.4173 138.309L93.9695 140.232ZM93.4358 139.344L93.5385 139.702L95.4608 139.15L95.3581 138.792L93.4358 139.344ZM93.5385 139.702C93.7891 140.574 93.5812 141.802 92.663 142.523L93.8981 144.096C95.5878 142.769 95.8861 140.63 95.4608 139.15L93.5385 139.702ZM93.9952 142.61L93.3943 141.996L91.965 143.395L92.5658 144.009L93.9952 142.61ZM93.3182 143.465C94.665 142.347 95.1215 140.62 94.7572 139.352L92.835 139.904C92.9677 140.366 92.8116 141.287 92.0411 141.926L93.3182 143.465ZM94.7572 139.352L94.6545 138.994L92.7323 139.546L92.835 139.904L94.7572 139.352ZM94.1656 140.175L94.9037 139.963L94.3515 138.041L93.6134 138.253L94.1656 140.175ZM93.6665 139.278L93.7692 139.636L95.6915 139.083L95.5888 138.726L93.6665 139.278ZM93.7692 139.636C94.2071 141.16 95.7402 142.167 97.509 142.213L97.5613 140.214C96.4619 140.185 95.8367 139.589 95.6915 139.083L93.7692 139.636ZM96.5778 140.924L96.3219 141.772L98.2365 142.35L98.4925 141.502L96.5778 140.924ZM97.328 141.062C96.0713 141.001 95.2293 140.256 94.9533 139.296L93.0311 139.848C93.5502 141.655 95.1441 142.958 97.2304 143.06L97.328 141.062ZM94.9533 139.296L94.8506 138.938L92.9283 139.49L93.0311 139.848L94.9533 139.296Z" fill="black" mask="url(#path-8-outside-4_2_393)"/>
<mask id="path-10-outside-5_2_393" maskUnits="userSpaceOnUse" x="97.3144" y="123.481" width="16.9957" height="17.3339" fill="black">
<rect fill="white" x="97.3144" y="123.481" width="16.9957" height="17.3339"/>
<path d="M102.15 129.006C103.495 128.193 105.224 128.872 106.416 130.843C107.615 132.825 107.413 134.672 106.068 135.485C104.713 136.305 102.994 135.62 101.795 133.638C100.603 131.666 100.794 129.826 102.15 129.006ZM102.615 129.776C101.722 130.317 101.7 131.648 102.607 133.147C103.52 134.657 104.722 135.276 105.615 134.736C106.508 134.196 106.518 132.843 105.605 131.334C104.698 129.835 103.509 129.236 102.615 129.776ZM106.038 125.673L106.88 125.164L112.506 134.467L111.664 134.976L106.038 125.673ZM105.891 130.6L108.55 128.992L108.972 129.69L106.313 131.299L105.891 130.6Z"/>
</mask>
<path d="M102.15 129.006C103.495 128.193 105.224 128.872 106.416 130.843C107.615 132.825 107.413 134.672 106.068 135.485C104.713 136.305 102.994 135.62 101.795 133.638C100.603 131.666 100.794 129.826 102.15 129.006ZM102.615 129.776C101.722 130.317 101.7 131.648 102.607 133.147C103.52 134.657 104.722 135.276 105.615 134.736C106.508 134.196 106.518 132.843 105.605 131.334C104.698 129.835 103.509 129.236 102.615 129.776ZM106.038 125.673L106.88 125.164L112.506 134.467L111.664 134.976L106.038 125.673ZM105.891 130.6L108.55 128.992L108.972 129.69L106.313 131.299L105.891 130.6Z" fill="white"/>
<path d="M106.038 125.673L105.52 124.817L104.665 125.335L105.182 126.19L106.038 125.673ZM106.88 125.164L107.736 124.646L107.218 123.791L106.362 124.308L106.88 125.164ZM112.506 134.467L113.024 135.322L113.879 134.805L113.362 133.949L112.506 134.467ZM111.664 134.976L110.808 135.493L111.326 136.349L112.182 135.832L111.664 134.976ZM105.891 130.6L105.373 129.745L104.517 130.262L105.035 131.118L105.891 130.6ZM108.55 128.992L109.406 128.474L108.888 127.619L108.033 128.136L108.55 128.992ZM108.972 129.69L109.49 130.546L110.345 130.028L109.828 129.173L108.972 129.69ZM106.313 131.299L105.457 131.816L105.975 132.672L106.83 132.154L106.313 131.299ZM102.667 129.862C103.042 129.635 103.471 129.6 103.953 129.802C104.459 130.015 105.043 130.505 105.56 131.361L107.272 130.326C106.597 129.21 105.72 128.375 104.727 127.958C103.71 127.532 102.603 127.563 101.632 128.15L102.667 129.862ZM105.56 131.361C106.082 132.223 106.246 132.97 106.2 133.518C106.155 134.04 105.925 134.403 105.551 134.63L106.586 136.341C107.556 135.754 108.099 134.787 108.192 133.687C108.283 132.612 107.949 131.446 107.272 130.326L105.56 131.361ZM105.551 134.63C105.17 134.86 104.741 134.894 104.262 134.691C103.758 134.478 103.173 133.984 102.651 133.12L100.94 134.155C101.616 135.273 102.49 136.113 103.484 136.533C104.503 136.964 105.611 136.93 106.586 136.341L105.551 134.63ZM102.651 133.12C102.132 132.263 101.968 131.519 102.014 130.974C102.057 130.457 102.286 130.092 102.667 129.862L101.632 128.15C100.658 128.74 100.113 129.705 100.021 130.806C99.9303 131.879 100.266 133.041 100.94 134.155L102.651 133.12ZM102.098 128.921C101.294 129.407 100.942 130.237 100.936 131.096C100.931 131.925 101.237 132.814 101.751 133.665L103.462 132.63C103.07 131.981 102.934 131.455 102.936 131.109C102.938 130.792 103.044 130.686 103.133 130.632L102.098 128.921ZM101.751 133.665C102.268 134.52 102.916 135.209 103.654 135.596C104.415 135.995 105.32 136.083 106.132 135.591L105.097 133.88C105.016 133.929 104.874 133.977 104.583 133.825C104.267 133.659 103.858 133.284 103.462 132.63L101.751 133.665ZM106.132 135.591C106.945 135.1 107.287 134.258 107.287 133.398C107.287 132.566 106.978 131.671 106.461 130.816L104.749 131.851C105.145 132.506 105.287 133.042 105.287 133.398C105.287 133.727 105.178 133.831 105.097 133.88L106.132 135.591ZM106.461 130.816C105.946 129.966 105.301 129.282 104.564 128.902C103.8 128.508 102.902 128.434 102.098 128.921L103.133 130.632C103.222 130.578 103.365 130.534 103.647 130.679C103.954 130.838 104.357 131.203 104.749 131.851L106.461 130.816ZM106.555 126.529L107.397 126.019L106.362 124.308L105.52 124.817L106.555 126.529ZM106.024 125.681L111.65 134.984L113.362 133.949L107.736 124.646L106.024 125.681ZM111.989 133.611L111.147 134.12L112.182 135.832L113.024 135.322L111.989 133.611ZM112.52 134.459L106.894 125.155L105.182 126.19L110.808 135.493L112.52 134.459ZM106.408 131.456L109.068 129.848L108.033 128.136L105.373 129.745L106.408 131.456ZM107.694 129.509L108.117 130.208L109.828 129.173L109.406 128.474L107.694 129.509ZM108.455 128.835L105.795 130.443L106.83 132.154L109.49 130.546L108.455 128.835ZM107.169 130.781L106.746 130.083L105.035 131.118L105.457 131.816L107.169 130.781Z" fill="black" mask="url(#path-10-outside-5_2_393)"/>
<mask id="path-12-outside-6_2_393" maskUnits="userSpaceOnUse" x="109.739" y="112.691" width="17.6571" height="17.6892" fill="black">
<rect fill="white" x="109.739" y="112.691" width="17.6571" height="17.6892"/>
<path d="M117.323 123.804L118.003 123.093L120.354 125.34L119.674 126.051L117.323 123.804ZM120.092 120.907L120.78 120.187L123.131 122.433L122.443 123.153L120.092 120.907ZM117.877 127.654L124.667 120.548L125.266 121.12L118.476 128.226L117.877 127.654ZM115.508 118.617C117.091 116.96 119.017 116.526 120.248 117.703C121.472 118.872 121.125 120.815 119.542 122.472C117.95 124.138 116.025 124.572 114.802 123.403C113.57 122.226 113.916 120.283 115.508 118.617ZM116.08 119.165C114.878 120.423 114.589 121.872 115.465 122.709C116.332 123.538 117.767 123.183 118.969 121.925C120.172 120.667 120.453 119.226 119.585 118.397C118.709 117.56 117.282 117.907 116.08 119.165Z"/>
</mask>
<path d="M117.323 123.804L118.003 123.093L120.354 125.34L119.674 126.051L117.323 123.804ZM120.092 120.907L120.78 120.187L123.131 122.433L122.443 123.153L120.092 120.907ZM117.877 127.654L124.667 120.548L125.266 121.12L118.476 128.226L117.877 127.654ZM115.508 118.617C117.091 116.96 119.017 116.526 120.248 117.703C121.472 118.872 121.125 120.815 119.542 122.472C117.95 124.138 116.025 124.572 114.802 123.403C113.57 122.226 113.916 120.283 115.508 118.617ZM116.08 119.165C114.878 120.423 114.589 121.872 115.465 122.709C116.332 123.538 117.767 123.183 118.969 121.925C120.172 120.667 120.453 119.226 119.585 118.397C118.709 117.56 117.282 117.907 116.08 119.165Z" fill="white"/>
<path d="M117.323 123.804L116.6 123.114L115.909 123.837L116.632 124.527L117.323 123.804ZM118.003 123.093L118.694 122.37L117.971 121.679L117.28 122.402L118.003 123.093ZM120.354 125.34L121.077 126.031L121.768 125.308L121.045 124.617L120.354 125.34ZM119.674 126.051L118.983 126.774L119.706 127.465L120.397 126.742L119.674 126.051ZM120.092 120.907L119.369 120.216L118.678 120.939L119.401 121.63L120.092 120.907ZM120.78 120.187L121.471 119.464L120.748 118.773L120.057 119.496L120.78 120.187ZM123.131 122.433L123.854 123.124L124.545 122.401L123.822 121.71L123.131 122.433ZM122.443 123.153L121.752 123.876L122.475 124.567L123.166 123.844L122.443 123.153ZM117.877 127.654L117.154 126.963L116.463 127.686L117.186 128.377L117.877 127.654ZM124.667 120.548L125.358 119.825L124.635 119.134L123.944 119.857L124.667 120.548ZM125.266 121.12L125.989 121.811L126.68 121.088L125.957 120.397L125.266 121.12ZM118.476 128.226L117.785 128.949L118.508 129.64L119.199 128.917L118.476 128.226ZM118.046 124.495L118.726 123.784L117.28 122.402L116.6 123.114L118.046 124.495ZM117.312 123.816L119.663 126.063L121.045 124.617L118.694 122.37L117.312 123.816ZM119.631 124.649L118.951 125.36L120.397 126.742L121.077 126.031L119.631 124.649ZM120.365 125.328L118.014 123.081L116.632 124.527L118.983 126.774L120.365 125.328ZM120.815 121.598L121.503 120.877L120.057 119.496L119.369 120.216L120.815 121.598ZM120.089 120.91L122.44 123.156L123.822 121.71L121.471 119.464L120.089 120.91ZM122.408 121.742L121.72 122.463L123.166 123.844L123.854 123.124L122.408 121.742ZM123.134 122.43L120.783 120.184L119.401 121.63L121.752 123.876L123.134 122.43ZM118.6 128.344L125.39 121.239L123.944 119.857L117.154 126.963L118.6 128.344ZM123.976 121.271L124.575 121.843L125.957 120.397L125.358 119.825L123.976 121.271ZM124.543 120.429L117.753 127.535L119.199 128.917L125.989 121.811L124.543 120.429ZM119.167 127.503L118.568 126.931L117.186 128.377L117.785 128.949L119.167 127.503ZM116.231 119.308C116.922 118.585 117.626 118.195 118.208 118.078C118.76 117.966 119.205 118.09 119.558 118.426L120.939 116.98C120.059 116.14 118.927 115.892 117.812 116.117C116.727 116.337 115.677 116.993 114.785 117.926L116.231 119.308ZM119.558 118.426C119.904 118.757 120.047 119.193 119.96 119.75C119.868 120.336 119.51 121.058 118.819 121.782L120.265 123.163C121.157 122.23 121.764 121.151 121.936 120.06C122.112 118.939 121.817 117.819 120.939 116.98L119.558 118.426ZM118.819 121.782C118.123 122.51 117.416 122.902 116.833 123.021C116.28 123.134 115.838 123.011 115.493 122.68L114.111 124.126C114.988 124.965 116.121 125.209 117.234 124.981C118.318 124.759 119.369 124.1 120.265 123.163L118.819 121.782ZM115.493 122.68C115.141 122.344 114.997 121.905 115.084 121.348C115.176 120.761 115.535 120.037 116.231 119.308L114.785 117.926C113.889 118.864 113.279 119.944 113.108 121.039C112.932 122.164 113.231 123.285 114.111 124.126L115.493 122.68ZM115.357 118.474C114.662 119.202 114.167 120.049 114.009 120.916C113.847 121.811 114.052 122.742 114.774 123.432L116.156 121.986C116.001 121.839 115.913 121.627 115.977 121.273C116.046 120.892 116.297 120.385 116.803 119.855L115.357 118.474ZM114.774 123.432C115.494 124.121 116.434 124.278 117.316 124.074C118.174 123.877 118.996 123.344 119.692 122.616L118.246 121.234C117.74 121.764 117.245 122.038 116.867 122.125C116.515 122.207 116.303 122.127 116.156 121.986L114.774 123.432ZM119.692 122.616C120.388 121.888 120.881 121.043 121.038 120.178C121.199 119.286 120.993 118.36 120.276 117.674L118.894 119.12C119.045 119.264 119.133 119.472 119.069 119.823C119.001 120.2 118.753 120.705 118.246 121.234L119.692 122.616ZM120.276 117.674C119.557 116.987 118.622 116.819 117.735 117.02C116.876 117.214 116.053 117.745 115.357 118.474L116.803 119.855C117.31 119.326 117.802 119.055 118.175 118.971C118.521 118.893 118.737 118.97 118.894 119.12L120.276 117.674Z" fill="black" mask="url(#path-12-outside-6_2_393)"/>
<mask id="path-14-outside-7_2_393" maskUnits="userSpaceOnUse" x="35" y="71" width="83" height="24" fill="black">
<rect fill="white" x="35" y="71" width="83" height="24"/>
<path d="M42.468 82.112H45.372V85.588H42.468V82.112ZM39.916 85.192H42.82V86.864H50.96V85.192H53.864V92.738H39.916V85.192ZM42.82 89.064V90.45H50.96V89.064H42.82ZM50.938 72.586H53.864V84.334H50.938V72.586ZM37.254 83.476L36.924 81.166C40.664 81.166 45.57 81.144 49.86 80.594L50.036 82.662C45.658 83.432 40.928 83.476 37.254 83.476ZM42.226 73.114H44.558V73.906C44.558 76.986 42.732 79.516 38.86 80.352L37.606 78.152C40.84 77.47 42.226 75.732 42.226 73.906V73.114ZM42.908 73.114H45.262V73.906C45.262 75.622 46.67 77.25 49.794 77.822L48.584 80.044C44.778 79.252 42.908 76.854 42.908 73.906V73.114ZM62.0243 75.798H64.3563V78.086C64.3563 82.794 62.4423 87.392 58.6143 89.13L56.9643 86.82C60.3743 85.302 62.0243 81.54 62.0243 78.086V75.798ZM62.6843 75.798H64.9943V78.086C64.9943 81.386 66.6223 84.906 70.0323 86.314L68.4483 88.624C64.5763 86.952 62.6843 82.618 62.6843 78.086V75.798ZM57.7783 74.544H69.1963V76.942H57.7783V74.544ZM71.0883 72.586H74.0363V92.958H71.0883V72.586ZM82.9226 73.554C86.0466 73.554 88.3566 75.534 88.3566 78.306C88.3566 81.1 86.0466 83.08 82.9226 83.08C79.8206 83.08 77.4886 81.1 77.4886 78.306C77.4886 75.534 79.8206 73.554 82.9226 73.554ZM82.9226 75.93C81.4486 75.93 80.3266 76.832 80.3266 78.306C80.3266 79.802 81.4486 80.704 82.9226 80.704C84.4186 80.704 85.5406 79.802 85.5406 78.306C85.5406 76.832 84.4186 75.93 82.9226 75.93ZM90.4686 72.586H93.3946V82.618H90.4686V72.586ZM92.2286 76.81H96.1006V79.186H92.2286V76.81ZM79.1606 90.098H80.2826C82.0646 90.098 83.6266 89.966 85.1226 89.46L85.5626 91.748C83.8686 92.342 82.2846 92.43 80.2826 92.43H79.1606V90.098ZM79.1606 84.576H81.9986V90.802H79.1606V84.576ZM84.8366 84.642H95.0226V86.732H84.8366V84.642ZM89.9406 87.238C92.2506 87.238 93.8566 88.36 93.8566 90.12C93.8566 91.88 92.2506 92.98 89.9406 92.98C87.6086 92.98 86.0026 91.88 86.0026 90.12C86.0026 88.36 87.6086 87.238 89.9406 87.238ZM89.9406 89.24C89.1486 89.24 88.5986 89.526 88.5986 90.12C88.5986 90.714 89.1486 91 89.9406 91C90.6886 91 91.2606 90.714 91.2606 90.12C91.2606 89.526 90.6886 89.24 89.9406 89.24ZM88.5326 83.19H91.3706V86.204H88.5326V83.19ZM110.619 72.564H113.567V93.002H110.619V72.564ZM112.907 80.11H116.515V82.508H112.907V80.11ZM98.3868 85.676H100.103C103.535 85.676 106.241 85.566 109.233 85.038L109.519 87.458C106.439 88.008 103.645 88.096 100.103 88.096H98.3868V85.676ZM98.3868 74.456H107.891V76.81H101.291V86.842H98.3868V74.456Z"/>
</mask>
<path d="M42.468 82.112H45.372V85.588H42.468V82.112ZM39.916 85.192H42.82V86.864H50.96V85.192H53.864V92.738H39.916V85.192ZM42.82 89.064V90.45H50.96V89.064H42.82ZM50.938 72.586H53.864V84.334H50.938V72.586ZM37.254 83.476L36.924 81.166C40.664 81.166 45.57 81.144 49.86 80.594L50.036 82.662C45.658 83.432 40.928 83.476 37.254 83.476ZM42.226 73.114H44.558V73.906C44.558 76.986 42.732 79.516 38.86 80.352L37.606 78.152C40.84 77.47 42.226 75.732 42.226 73.906V73.114ZM42.908 73.114H45.262V73.906C45.262 75.622 46.67 77.25 49.794 77.822L48.584 80.044C44.778 79.252 42.908 76.854 42.908 73.906V73.114ZM62.0243 75.798H64.3563V78.086C64.3563 82.794 62.4423 87.392 58.6143 89.13L56.9643 86.82C60.3743 85.302 62.0243 81.54 62.0243 78.086V75.798ZM62.6843 75.798H64.9943V78.086C64.9943 81.386 66.6223 84.906 70.0323 86.314L68.4483 88.624C64.5763 86.952 62.6843 82.618 62.6843 78.086V75.798ZM57.7783 74.544H69.1963V76.942H57.7783V74.544ZM71.0883 72.586H74.0363V92.958H71.0883V72.586ZM82.9226 73.554C86.0466 73.554 88.3566 75.534 88.3566 78.306C88.3566 81.1 86.0466 83.08 82.9226 83.08C79.8206 83.08 77.4886 81.1 77.4886 78.306C77.4886 75.534 79.8206 73.554 82.9226 73.554ZM82.9226 75.93C81.4486 75.93 80.3266 76.832 80.3266 78.306C80.3266 79.802 81.4486 80.704 82.9226 80.704C84.4186 80.704 85.5406 79.802 85.5406 78.306C85.5406 76.832 84.4186 75.93 82.9226 75.93ZM90.4686 72.586H93.3946V82.618H90.4686V72.586ZM92.2286 76.81H96.1006V79.186H92.2286V76.81ZM79.1606 90.098H80.2826C82.0646 90.098 83.6266 89.966 85.1226 89.46L85.5626 91.748C83.8686 92.342 82.2846 92.43 80.2826 92.43H79.1606V90.098ZM79.1606 84.576H81.9986V90.802H79.1606V84.576ZM84.8366 84.642H95.0226V86.732H84.8366V84.642ZM89.9406 87.238C92.2506 87.238 93.8566 88.36 93.8566 90.12C93.8566 91.88 92.2506 92.98 89.9406 92.98C87.6086 92.98 86.0026 91.88 86.0026 90.12C86.0026 88.36 87.6086 87.238 89.9406 87.238ZM89.9406 89.24C89.1486 89.24 88.5986 89.526 88.5986 90.12C88.5986 90.714 89.1486 91 89.9406 91C90.6886 91 91.2606 90.714 91.2606 90.12C91.2606 89.526 90.6886 89.24 89.9406 89.24ZM88.5326 83.19H91.3706V86.204H88.5326V83.19ZM110.619 72.564H113.567V93.002H110.619V72.564ZM112.907 80.11H116.515V82.508H112.907V80.11ZM98.3868 85.676H100.103C103.535 85.676 106.241 85.566 109.233 85.038L109.519 87.458C106.439 88.008 103.645 88.096 100.103 88.096H98.3868V85.676ZM98.3868 74.456H107.891V76.81H101.291V86.842H98.3868V74.456Z" fill="black"/>
<path d="M42.468 82.112V81.112H41.468V82.112H42.468ZM45.372 82.112H46.372V81.112H45.372V82.112ZM45.372 85.588V86.588H46.372V85.588H45.372ZM42.468 85.588H41.468V86.588H42.468V85.588ZM39.916 85.192V84.192H38.916V85.192H39.916ZM42.82 85.192H43.82V84.192H42.82V85.192ZM42.82 86.864H41.82V87.864H42.82V86.864ZM50.96 86.864V87.864H51.96V86.864H50.96ZM50.96 85.192V84.192H49.96V85.192H50.96ZM53.864 85.192H54.864V84.192H53.864V85.192ZM53.864 92.738V93.738H54.864V92.738H53.864ZM39.916 92.738H38.916V93.738H39.916V92.738ZM42.82 89.064V88.064H41.82V89.064H42.82ZM42.82 90.45H41.82V91.45H42.82V90.45ZM50.96 90.45V91.45H51.96V90.45H50.96ZM50.96 89.064H51.96V88.064H50.96V89.064ZM50.938 72.586V71.586H49.938V72.586H50.938ZM53.864 72.586H54.864V71.586H53.864V72.586ZM53.864 84.334V85.334H54.864V84.334H53.864ZM50.938 84.334H49.938V85.334H50.938V84.334ZM37.254 83.476L36.2641 83.6174L36.3867 84.476H37.254V83.476ZM36.924 81.166V80.166H35.771L35.9341 81.3074L36.924 81.166ZM49.86 80.594L50.8564 80.5092L50.7679 79.4694L49.7328 79.6021L49.86 80.594ZM50.036 82.662L50.2092 83.6469L51.11 83.4885L51.0324 82.5772L50.036 82.662ZM42.226 73.114V72.114H41.226V73.114H42.226ZM44.558 73.114H45.558V72.114H44.558V73.114ZM38.86 80.352L37.9912 80.8472L38.3543 81.4842L39.071 81.3295L38.86 80.352ZM37.606 78.152L37.3997 77.1735L36.0584 77.4564L36.7372 78.6472L37.606 78.152ZM42.908 73.114V72.114H41.908V73.114H42.908ZM45.262 73.114H46.262V72.114H45.262V73.114ZM49.794 77.822L50.6722 78.3002L51.3328 77.0871L49.9741 76.8384L49.794 77.822ZM48.584 80.044L48.3803 81.023L49.1072 81.1743L49.4622 80.5222L48.584 80.044ZM42.468 83.112H45.372V81.112H42.468V83.112ZM44.372 82.112V85.588H46.372V82.112H44.372ZM45.372 84.588H42.468V86.588H45.372V84.588ZM43.468 85.588V82.112H41.468V85.588H43.468ZM39.916 86.192H42.82V84.192H39.916V86.192ZM41.82 85.192V86.864H43.82V85.192H41.82ZM42.82 87.864H50.96V85.864H42.82V87.864ZM51.96 86.864V85.192H49.96V86.864H51.96ZM50.96 86.192H53.864V84.192H50.96V86.192ZM52.864 85.192V92.738H54.864V85.192H52.864ZM53.864 91.738H39.916V93.738H53.864V91.738ZM40.916 92.738V85.192H38.916V92.738H40.916ZM41.82 89.064V90.45H43.82V89.064H41.82ZM42.82 91.45H50.96V89.45H42.82V91.45ZM51.96 90.45V89.064H49.96V90.45H51.96ZM50.96 88.064H42.82V90.064H50.96V88.064ZM50.938 73.586H53.864V71.586H50.938V73.586ZM52.864 72.586V84.334H54.864V72.586H52.864ZM53.864 83.334H50.938V85.334H53.864V83.334ZM51.938 84.334V72.586H49.938V84.334H51.938ZM38.2439 83.3346L37.9139 81.0246L35.9341 81.3074L36.2641 83.6174L38.2439 83.3346ZM36.924 82.166C40.6561 82.166 45.6243 82.1452 49.9872 81.5859L49.7328 79.6021C45.5157 80.1428 40.6719 80.166 36.924 80.166V82.166ZM48.8636 80.6788L49.0396 82.7468L51.0324 82.5772L50.8564 80.5092L48.8636 80.6788ZM49.8628 81.6771C45.5812 82.4302 40.932 82.476 37.254 82.476V84.476C40.924 84.476 45.7348 84.4338 50.2092 83.6469L49.8628 81.6771ZM42.226 74.114H44.558V72.114H42.226V74.114ZM43.558 73.114V73.906H45.558V73.114H43.558ZM43.558 73.906C43.558 75.2431 43.1648 76.4093 42.3946 77.3281C41.623 78.2486 40.4112 78.994 38.649 79.3745L39.071 81.3295C41.1808 80.874 42.818 79.9364 43.9274 78.6129C45.0382 77.2877 45.558 75.6489 45.558 73.906H43.558ZM39.7288 79.8568L38.4748 77.6568L36.7372 78.6472L37.9912 80.8472L39.7288 79.8568ZM37.8123 79.1305C41.32 78.3908 43.226 76.3742 43.226 73.906H41.226C41.226 75.0898 40.36 76.5492 37.3997 77.1735L37.8123 79.1305ZM43.226 73.906V73.114H41.226V73.906H43.226ZM42.908 74.114H45.262V72.114H42.908V74.114ZM44.262 73.114V73.906H46.262V73.114H44.262ZM44.262 73.906C44.262 76.305 46.2439 78.1886 49.6139 78.8056L49.9741 76.8384C47.0961 76.3114 46.262 74.939 46.262 73.906H44.262ZM48.9158 77.3438L47.7058 79.5658L49.4622 80.5222L50.6722 78.3002L48.9158 77.3438ZM48.7877 79.065C47.0491 78.7032 45.8396 77.994 45.068 77.1212C44.3013 76.2539 43.908 75.1596 43.908 73.906H41.908C41.908 75.6004 42.4497 77.1791 43.5695 78.4458C44.6844 79.707 46.3129 80.5928 48.3803 81.023L48.7877 79.065ZM43.908 73.906V73.114H41.908V73.906H43.908ZM62.0243 75.798V74.798H61.0243V75.798H62.0243ZM64.3563 75.798H65.3563V74.798H64.3563V75.798ZM58.6143 89.13L57.8005 89.7112L58.2787 90.3806L59.0277 90.0405L58.6143 89.13ZM56.9643 86.82L56.5576 85.9064L55.4386 86.4046L56.1505 87.4012L56.9643 86.82ZM62.6843 75.798V74.798H61.6843V75.798H62.6843ZM64.9943 75.798H65.9943V74.798H64.9943V75.798ZM70.0323 86.314L70.857 86.8795L71.5554 85.861L70.4139 85.3897L70.0323 86.314ZM68.4483 88.624L68.0518 89.5421L68.8075 89.8684L69.273 89.1895L68.4483 88.624ZM57.7783 74.544V73.544H56.7783V74.544H57.7783ZM69.1963 74.544H70.1963V73.544H69.1963V74.544ZM69.1963 76.942V77.942H70.1963V76.942H69.1963ZM57.7783 76.942H56.7783V77.942H57.7783V76.942ZM71.0883 72.586V71.586H70.0883V72.586H71.0883ZM74.0363 72.586H75.0363V71.586H74.0363V72.586ZM74.0363 92.958V93.958H75.0363V92.958H74.0363ZM71.0883 92.958H70.0883V93.958H71.0883V92.958ZM62.0243 76.798H64.3563V74.798H62.0243V76.798ZM63.3563 75.798V78.086H65.3563V75.798H63.3563ZM63.3563 78.086C63.3563 82.6039 61.5183 86.7133 58.2009 88.2195L59.0277 90.0405C63.3663 88.0707 65.3563 82.9841 65.3563 78.086H63.3563ZM59.428 88.5488L57.778 86.2388L56.1505 87.4012L57.8005 89.7112L59.428 88.5488ZM57.371 87.7336C61.2548 86.0046 63.0243 81.7944 63.0243 78.086H61.0243C61.0243 81.2856 59.4938 84.5993 56.5576 85.9064L57.371 87.7336ZM63.0243 78.086V75.798H61.0243V78.086H63.0243ZM62.6843 76.798H64.9943V74.798H62.6843V76.798ZM63.9943 75.798V78.086H65.9943V75.798H63.9943ZM63.9943 78.086C63.9943 81.6666 65.7635 85.6333 69.6506 87.2383L70.4139 85.3897C67.481 84.1787 65.9943 81.1054 65.9943 78.086H63.9943ZM69.2076 85.7485L67.6236 88.0585L69.273 89.1895L70.857 86.8795L69.2076 85.7485ZM68.8447 87.7059C65.4817 86.2537 63.6843 82.4017 63.6843 78.086H61.6843C61.6843 82.8343 63.6708 87.6503 68.0518 89.5421L68.8447 87.7059ZM63.6843 78.086V75.798H61.6843V78.086H63.6843ZM57.7783 75.544H69.1963V73.544H57.7783V75.544ZM68.1963 74.544V76.942H70.1963V74.544H68.1963ZM69.1963 75.942H57.7783V77.942H69.1963V75.942ZM58.7783 76.942V74.544H56.7783V76.942H58.7783ZM71.0883 73.586H74.0363V71.586H71.0883V73.586ZM73.0363 72.586V92.958H75.0363V72.586H73.0363ZM74.0363 91.958H71.0883V93.958H74.0363V91.958ZM72.0883 92.958V72.586H70.0883V92.958H72.0883ZM90.4686 72.586V71.586H89.4686V72.586H90.4686ZM93.3946 72.586H94.3946V71.586H93.3946V72.586ZM93.3946 82.618V83.618H94.3946V82.618H93.3946ZM90.4686 82.618H89.4686V83.618H90.4686V82.618ZM92.2286 76.81V75.81H91.2286V76.81H92.2286ZM96.1006 76.81H97.1006V75.81H96.1006V76.81ZM96.1006 79.186V80.186H97.1006V79.186H96.1006ZM92.2286 79.186H91.2286V80.186H92.2286V79.186ZM79.1606 90.098V89.098H78.1606V90.098H79.1606ZM85.1226 89.46L86.1046 89.2712L85.8881 88.1454L84.8022 88.5127L85.1226 89.46ZM85.5626 91.748L85.8935 92.6917L86.7075 92.4062L86.5446 91.5592L85.5626 91.748ZM79.1606 92.43H78.1606V93.43H79.1606V92.43ZM79.1606 84.576V83.576H78.1606V84.576H79.1606ZM81.9986 84.576H82.9986V83.576H81.9986V84.576ZM81.9986 90.802V91.802H82.9986V90.802H81.9986ZM79.1606 90.802H78.1606V91.802H79.1606V90.802ZM84.8366 84.642V83.642H83.8366V84.642H84.8366ZM95.0226 84.642H96.0226V83.642H95.0226V84.642ZM95.0226 86.732V87.732H96.0226V86.732H95.0226ZM84.8366 86.732H83.8366V87.732H84.8366V86.732ZM88.5326 83.19V82.19H87.5326V83.19H88.5326ZM91.3706 83.19H92.3706V82.19H91.3706V83.19ZM91.3706 86.204V87.204H92.3706V86.204H91.3706ZM88.5326 86.204H87.5326V87.204H88.5326V86.204ZM82.9226 74.554C85.6304 74.554 87.3566 76.2132 87.3566 78.306H89.3566C89.3566 74.8548 86.4628 72.554 82.9226 72.554V74.554ZM87.3566 78.306C87.3566 80.4236 85.6271 82.08 82.9226 82.08V84.08C86.466 84.08 89.3566 81.7764 89.3566 78.306H87.3566ZM82.9226 82.08C80.2372 82.08 78.4886 80.4212 78.4886 78.306H76.4886C76.4886 81.7788 79.4039 84.08 82.9226 84.08V82.08ZM78.4886 78.306C78.4886 76.2156 80.2339 74.554 82.9226 74.554V72.554C79.4072 72.554 76.4886 74.8524 76.4886 78.306H78.4886ZM82.9226 74.93C81.986 74.93 81.0884 75.2175 80.4105 75.8152C79.7194 76.4244 79.3266 77.297 79.3266 78.306H81.3266C81.3266 77.841 81.4947 77.5256 81.7331 77.3153C81.9848 77.0935 82.3851 76.93 82.9226 76.93V74.93ZM79.3266 78.306C79.3266 79.3216 79.7161 80.1998 80.408 80.8139C81.0868 81.4164 81.9859 81.704 82.9226 81.704V79.704C82.3852 79.704 81.9863 79.5406 81.7356 79.3181C81.498 79.1072 81.3266 78.7864 81.3266 78.306H79.3266ZM82.9226 81.704C83.8668 81.704 84.7713 81.4184 85.4542 80.8158C86.1507 80.2013 86.5406 79.3219 86.5406 78.306H84.5406C84.5406 78.7861 84.3694 79.1057 84.1309 79.3162C83.8788 79.5386 83.4743 79.704 82.9226 79.704V81.704ZM86.5406 78.306C86.5406 77.2967 86.1474 76.423 85.4517 75.8132C84.7698 75.2155 83.8667 74.93 82.9226 74.93V76.93C83.4744 76.93 83.8804 77.0955 84.1334 77.3173C84.3727 77.527 84.5406 77.8413 84.5406 78.306H86.5406ZM90.4686 73.586H93.3946V71.586H90.4686V73.586ZM92.3946 72.586V82.618H94.3946V72.586H92.3946ZM93.3946 81.618H90.4686V83.618H93.3946V81.618ZM91.4686 82.618V72.586H89.4686V82.618H91.4686ZM92.2286 77.81H96.1006V75.81H92.2286V77.81ZM95.1006 76.81V79.186H97.1006V76.81H95.1006ZM96.1006 78.186H92.2286V80.186H96.1006V78.186ZM93.2286 79.186V76.81H91.2286V79.186H93.2286ZM79.1606 91.098H80.2826V89.098H79.1606V91.098ZM80.2826 91.098C82.1072 91.098 83.7956 90.9645 85.443 90.4073L84.8022 88.5127C83.4576 88.9675 82.0219 89.098 80.2826 89.098V91.098ZM84.1406 89.6488L84.5806 91.9368L86.5446 91.5592L86.1046 89.2712L84.1406 89.6488ZM85.2317 90.8043C83.7045 91.3398 82.2617 91.43 80.2826 91.43V93.43C82.3074 93.43 84.0327 93.3442 85.8935 92.6917L85.2317 90.8043ZM80.2826 91.43H79.1606V93.43H80.2826V91.43ZM80.1606 92.43V90.098H78.1606V92.43H80.1606ZM79.1606 85.576H81.9986V83.576H79.1606V85.576ZM80.9986 84.576V90.802H82.9986V84.576H80.9986ZM81.9986 89.802H79.1606V91.802H81.9986V89.802ZM80.1606 90.802V84.576H78.1606V90.802H80.1606ZM84.8366 85.642H95.0226V83.642H84.8366V85.642ZM94.0226 84.642V86.732H96.0226V84.642H94.0226ZM95.0226 85.732H84.8366V87.732H95.0226V85.732ZM85.8366 86.732V84.642H83.8366V86.732H85.8366ZM89.9406 88.238C90.9466 88.238 91.7023 88.4838 92.1778 88.8286C92.6271 89.1544 92.8566 89.5826 92.8566 90.12H94.8566C94.8566 88.8974 94.283 87.8846 93.3518 87.2094C92.4468 86.5532 91.2445 86.238 89.9406 86.238V88.238ZM92.8566 90.12C92.8566 90.6558 92.6288 91.077 92.182 91.3974C91.7073 91.7378 90.9506 91.98 89.9406 91.98V93.98C91.2405 93.98 92.4419 93.6722 93.3476 93.0226C94.2814 92.353 94.8566 91.3442 94.8566 90.12H92.8566ZM89.9406 91.98C88.9178 91.98 88.1554 91.737 87.6783 91.3963C87.2299 91.076 87.0026 90.6553 87.0026 90.12H85.0026C85.0026 91.3447 85.5782 92.354 86.5158 93.0237C87.4247 93.673 88.6314 93.98 89.9406 93.98V91.98ZM87.0026 90.12C87.0026 89.583 87.2316 89.1554 87.6826 88.8297C88.1603 88.4846 88.9217 88.238 89.9406 88.238V86.238C88.6274 86.238 87.4198 86.5524 86.5116 87.2083C85.5766 87.8836 85.0026 88.897 85.0026 90.12H87.0026ZM89.9406 88.24C89.4481 88.24 88.9037 88.3251 88.4479 88.6059C87.937 88.9208 87.5986 89.452 87.5986 90.12H89.5986C89.5986 90.1313 89.5943 90.1778 89.5621 90.2333C89.5477 90.2582 89.5319 90.2773 89.5185 90.2906C89.5054 90.3035 89.4969 90.3088 89.4972 90.3086C89.4999 90.3069 89.5329 90.2881 89.613 90.2703C89.6919 90.2528 89.8006 90.24 89.9406 90.24V88.24ZM87.5986 90.12C87.5986 90.788 87.937 91.3192 88.4479 91.6341C88.9037 91.9149 89.4481 92 89.9406 92V90C89.8006 90 89.6919 89.9872 89.613 89.9697C89.5329 89.9519 89.4999 89.9331 89.4972 89.9314C89.4969 89.9312 89.5054 89.9365 89.5185 89.9494C89.5319 89.9627 89.5477 89.9818 89.5621 90.0067C89.5943 90.0622 89.5986 90.1087 89.5986 90.12H87.5986ZM89.9406 92C90.4201 92 90.9551 91.9117 91.4057 91.6341C91.9042 91.3269 92.2606 90.8016 92.2606 90.12H90.2606C90.2606 90.1015 90.267 90.0528 90.2989 89.9987C90.3288 89.9483 90.3593 89.9296 90.3564 89.9314C90.3507 89.9349 90.3167 89.9536 90.2408 89.9709C90.1661 89.9879 90.0658 90 89.9406 90V92ZM92.2606 90.12C92.2606 89.4384 91.9042 88.9131 91.4057 88.6059C90.9551 88.3283 90.4201 88.24 89.9406 88.24V90.24C90.0658 90.24 90.1661 90.2521 90.2408 90.2691C90.3167 90.2864 90.3507 90.3051 90.3564 90.3086C90.3593 90.3104 90.3288 90.2917 90.2989 90.2413C90.267 90.1872 90.2606 90.1385 90.2606 90.12H92.2606ZM88.5326 84.19H91.3706V82.19H88.5326V84.19ZM90.3706 83.19V86.204H92.3706V83.19H90.3706ZM91.3706 85.204H88.5326V87.204H91.3706V85.204ZM89.5326 86.204V83.19H87.5326V86.204H89.5326ZM110.619 72.564V71.564H109.619V72.564H110.619ZM113.567 72.564H114.567V71.564H113.567V72.564ZM113.567 93.002V94.002H114.567V93.002H113.567ZM110.619 93.002H109.619V94.002H110.619V93.002ZM112.907 80.11V79.11H111.907V80.11H112.907ZM116.515 80.11H117.515V79.11H116.515V80.11ZM116.515 82.508V83.508H117.515V82.508H116.515ZM112.907 82.508H111.907V83.508H112.907V82.508ZM98.3868 85.676V84.676H97.3868V85.676H98.3868ZM109.233 85.038L110.226 84.9206L110.102 83.8692L109.059 84.0532L109.233 85.038ZM109.519 87.458L109.695 88.4424L110.623 88.2767L110.512 87.3406L109.519 87.458ZM98.3868 88.096H97.3868V89.096H98.3868V88.096ZM98.3868 74.456V73.456H97.3868V74.456H98.3868ZM107.891 74.456H108.891V73.456H107.891V74.456ZM107.891 76.81V77.81H108.891V76.81H107.891ZM101.291 76.81V75.81H100.291V76.81H101.291ZM101.291 86.842V87.842H102.291V86.842H101.291ZM98.3868 86.842H97.3868V87.842H98.3868V86.842ZM110.619 73.564H113.567V71.564H110.619V73.564ZM112.567 72.564V93.002H114.567V72.564H112.567ZM113.567 92.002H110.619V94.002H113.567V92.002ZM111.619 93.002V72.564H109.619V93.002H111.619ZM112.907 81.11H116.515V79.11H112.907V81.11ZM115.515 80.11V82.508H117.515V80.11H115.515ZM116.515 81.508H112.907V83.508H116.515V81.508ZM113.907 82.508V80.11H111.907V82.508H113.907ZM98.3868 86.676H100.103V84.676H98.3868V86.676ZM100.103 86.676C103.556 86.676 106.33 86.5658 109.407 86.0228L109.059 84.0532C106.152 84.5662 103.513 84.676 100.103 84.676V86.676ZM108.24 85.1554L108.526 87.5754L110.512 87.3406L110.226 84.9206L108.24 85.1554ZM109.343 86.4736C106.353 87.0075 103.631 87.096 100.103 87.096V89.096C103.659 89.096 106.525 89.0085 109.695 88.4424L109.343 86.4736ZM100.103 87.096H98.3868V89.096H100.103V87.096ZM99.3868 88.096V85.676H97.3868V88.096H99.3868ZM98.3868 75.456H107.891V73.456H98.3868V75.456ZM106.891 74.456V76.81H108.891V74.456H106.891ZM107.891 75.81H101.291V77.81H107.891V75.81ZM100.291 76.81V86.842H102.291V76.81H100.291ZM101.291 85.842H98.3868V87.842H101.291V85.842ZM99.3868 86.842V74.456H97.3868V86.842H99.3868Z" fill="white" mask="url(#path-14-outside-7_2_393)"/>
<path d="M75 66.375C86.0484 66.375 95 57.7031 95 47C95 36.2969 86.0484 27.625 75 27.625C63.9516 27.625 55 36.2969 55 47C55 57.7031 63.9516 66.375 75 66.375ZM75 31.375C83.8952 31.375 91.129 38.3828 91.129 47C91.129 55.6172 83.8952 62.625 75 62.625C66.1048 62.625 58.871 55.6172 58.871 47C58.871 38.3828 66.1048 31.375 75 31.375ZM81.4516 48.25C80.0242 48.25 78.871 49.3672 78.871 50.75C78.871 52.1328 80.0242 53.25 81.4516 53.25C82.879 53.25 84.0323 52.1328 84.0323 50.75C84.0323 49.3672 82.879 48.25 81.4516 48.25ZM68.5484 48.25C67.121 48.25 65.9677 49.3672 65.9677 50.75C65.9677 52.1328 67.121 53.25 68.5484 53.25C69.9758 53.25 71.129 52.1328 71.129 50.75C71.129 49.3672 69.9758 48.25 68.5484 48.25ZM68.2258 42.5781C69.9032 40.625 72.379 39.5 75 39.5C77.621 39.5 80.0968 40.6172 81.7742 42.5781C82.4597 43.375 83.6855 43.4766 84.5 42.8203C85.3226 42.1562 85.4274 40.9766 84.75 40.1797C82.3306 37.3672 78.7742 35.7578 75 35.7578C71.2258 35.7578 67.6694 37.3672 65.25 40.1797C64.5645 40.9766 64.6774 42.1562 65.5 42.8203C66.3145 43.4766 67.5403 43.375 68.2258 42.5781Z" fill="black"/>
</svg>
