<svg width="150" height="150" viewBox="0 0 150 150" fill="none" xmlns="http://www.w3.org/2000/svg">
<path d="M95.304 36.7923C95.0032 36.5271 94.6313 36.3584 94.2354 36.3074C93.8395 36.2564 93.4376 36.3255 93.0806 36.5058L84.712 40.7178L77.7251 28.9866C77.5455 28.6856 77.292 28.4365 76.9892 28.2637C76.6864 28.0908 76.3445 28 75.9967 28C75.649 28 75.3071 28.0908 75.0043 28.2637C74.7015 28.4365 74.448 28.6856 74.2683 28.9866L67.2815 40.7229L58.9162 36.5109C58.5601 36.3321 58.1597 36.2636 57.7652 36.3141C57.3707 36.3645 56.9998 36.5316 56.6989 36.7943C56.398 37.0571 56.1806 37.4038 56.074 37.791C55.9673 38.1782 55.9762 38.5886 56.0994 38.9707L62.2663 58.0696C62.3283 58.2614 62.4321 58.4368 62.5702 58.5827C62.7082 58.7285 62.8768 58.8412 63.0637 58.9124C63.2506 58.9835 63.4509 59.0113 63.6498 58.9938C63.8487 58.9762 64.0412 58.9137 64.213 58.8109C64.2547 58.7856 68.5165 56.3039 75.9967 56.3039C83.477 56.3039 87.7388 58.7856 87.7771 58.8092C87.949 58.913 88.1418 58.9764 88.3412 58.9946C88.5407 59.0127 88.7416 58.9853 88.9291 58.9142C89.1166 58.8432 89.2858 58.7304 89.4243 58.5841C89.5627 58.4379 89.6668 58.262 89.7288 58.0696L95.8957 38.9758C96.0225 38.5935 96.0339 38.1818 95.9286 37.793C95.8232 37.4042 95.6058 37.0558 95.304 36.7923ZM87.6638 55.7698C85.6637 54.9123 81.6769 53.6082 75.9967 53.6082C70.3166 53.6082 66.3298 54.9123 64.3297 55.7698L59.1145 39.6244L66.6264 43.4101C67.0811 43.6368 67.6033 43.6831 68.0901 43.54C68.5769 43.3969 68.993 43.0746 69.2565 42.6368L75.9967 31.3116L82.737 42.6335C83.0007 43.0706 83.4165 43.3922 83.9028 43.5353C84.3891 43.6784 84.9108 43.6326 85.3654 43.4068L92.8789 39.6244L87.6638 55.7698ZM83.9753 50.3785C83.9209 50.6903 83.7596 50.9728 83.5198 51.1764C83.2799 51.38 82.9768 51.4918 82.6636 51.4921C82.5854 51.492 82.5074 51.4853 82.4303 51.4719C78.1713 50.7328 73.8188 50.7328 69.5599 51.4719C69.2115 51.534 68.8531 51.4537 68.5633 51.2486C68.2736 51.0436 68.0763 50.7306 68.0148 50.3785C67.9534 50.0264 68.0328 49.664 68.2357 49.3711C68.4385 49.0782 68.7482 48.8788 69.0965 48.8167C73.6621 48.0237 78.328 48.0237 82.8936 48.8167C83.2413 48.8784 83.5505 49.0769 83.7536 49.3687C83.9567 49.6605 84.037 50.0218 83.977 50.3734L83.9753 50.3785Z" fill="#FFD700"/>
<circle cx="75" cy="75" r="65" stroke="#FFD700" stroke-width="20"/>
<mask id="path-3-outside-1_2_379" maskUnits="userSpaceOnUse" x="21.0321" y="111.968" width="18.38" height="18.38" fill="black">
<rect fill="white" x="21.0321" y="111.968" width="18.38" height="18.38"/>
<path d="M31.331 117.055L31.8947 117.645L31.5564 117.969C30.2116 119.254 28.2729 119.413 26.5959 118.509L26.8282 117.624C28.2948 118.446 29.9602 118.365 30.9926 117.379L31.331 117.055ZM31.4553 117.185L32.0191 117.775L31.6807 118.099C30.7264 119.011 30.5971 120.595 31.3613 122.072L30.4654 122.281C29.6213 120.581 29.859 118.711 31.117 117.509L31.4553 117.185ZM30.0373 114.972L34.0333 119.154L33.452 119.709L29.456 115.527L30.0373 114.972ZM32.6497 115.795L33.3378 116.515L32.1492 117.651L31.4611 116.931L32.6497 115.795ZM35.8731 119.238L36.5612 119.958L31.9197 124.393L31.2316 123.673L35.8731 119.238ZM34.3925 121.649L35.6941 123.011L35.0868 123.591L33.7852 122.229L34.3925 121.649ZM26.8464 119.814L31.5553 124.742L28.8224 127.353L24.1135 122.425L26.8464 119.814ZM30.3112 124.586L26.9453 121.064L25.3663 122.573L28.7322 126.095L30.3112 124.586Z"/>
</mask>
<path d="M31.331 117.055L31.8947 117.645L31.5564 117.969C30.2116 119.254 28.2729 119.413 26.5959 118.509L26.8282 117.624C28.2948 118.446 29.9602 118.365 30.9926 117.379L31.331 117.055ZM31.4553 117.185L32.0191 117.775L31.6807 118.099C30.7264 119.011 30.5971 120.595 31.3613 122.072L30.4654 122.281C29.6213 120.581 29.859 118.711 31.117 117.509L31.4553 117.185ZM30.0373 114.972L34.0333 119.154L33.452 119.709L29.456 115.527L30.0373 114.972ZM32.6497 115.795L33.3378 116.515L32.1492 117.651L31.4611 116.931L32.6497 115.795ZM35.8731 119.238L36.5612 119.958L31.9197 124.393L31.2316 123.673L35.8731 119.238ZM34.3925 121.649L35.6941 123.011L35.0868 123.591L33.7852 122.229L34.3925 121.649ZM26.8464 119.814L31.5553 124.742L28.8224 127.353L24.1135 122.425L26.8464 119.814ZM30.3112 124.586L26.9453 121.064L25.3663 122.573L28.7322 126.095L30.3112 124.586Z" fill="white"/>
<path d="M31.331 117.055L32.054 116.364L31.3631 115.642L30.6401 116.332L31.331 117.055ZM31.8947 117.645L32.5856 118.368L33.3086 117.677L32.6177 116.954L31.8947 117.645ZM26.5959 118.509L25.6286 118.256L25.4291 119.017L26.1215 119.39L26.5959 118.509ZM26.8282 117.624L27.3174 116.751L26.1891 116.119L25.8609 117.37L26.8282 117.624ZM31.4553 117.185L32.1783 116.495L31.4875 115.772L30.7645 116.463L31.4553 117.185ZM32.0191 117.775L32.71 118.498L33.4329 117.808L32.7421 117.085L32.0191 117.775ZM31.3613 122.072L31.5883 123.046L32.8402 122.754L32.2495 121.613L31.3613 122.072ZM30.4654 122.281L29.5698 122.726L29.9217 123.434L30.6924 123.255L30.4654 122.281ZM30.0373 114.972L30.7603 114.281L30.0694 113.558L29.3464 114.249L30.0373 114.972ZM34.0333 119.154L34.7241 119.877L35.4471 119.186L34.7562 118.463L34.0333 119.154ZM33.452 119.709L32.729 120.4L33.4199 121.123L34.1429 120.432L33.452 119.709ZM29.456 115.527L28.7651 114.804L28.0422 115.495L28.733 116.218L29.456 115.527ZM32.6497 115.795L33.3727 115.104L32.6818 114.381L31.9588 115.072L32.6497 115.795ZM33.3378 116.515L34.0287 117.238L34.7517 116.547L34.0608 115.824L33.3378 116.515ZM32.1492 117.651L31.4262 118.342L32.1171 119.065L32.8401 118.374L32.1492 117.651ZM31.4611 116.931L30.7703 116.208L30.0473 116.899L30.7381 117.622L31.4611 116.931ZM35.8731 119.238L36.5961 118.547L35.9052 117.824L35.1823 118.515L35.8731 119.238ZM36.5612 119.958L37.2521 120.681L37.9751 119.99L37.2842 119.267L36.5612 119.958ZM31.9197 124.393L31.1967 125.084L31.8876 125.807L32.6106 125.116L31.9197 124.393ZM31.2316 123.673L30.5407 122.95L29.8177 123.641L30.5086 124.364L31.2316 123.673ZM34.3925 121.649L35.1155 120.958L34.4246 120.235L33.7016 120.926L34.3925 121.649ZM35.6941 123.011L36.3849 123.734L37.1079 123.043L36.4171 122.32L35.6941 123.011ZM35.0868 123.591L34.3638 124.282L35.0547 125.005L35.7776 124.314L35.0868 123.591ZM33.7852 122.229L33.0943 121.506L32.3713 122.197L33.0622 122.92L33.7852 122.229ZM26.8464 119.814L27.5693 119.123L26.8785 118.4L26.1555 119.091L26.8464 119.814ZM31.5553 124.742L32.2462 125.465L32.9692 124.774L32.2783 124.051L31.5553 124.742ZM28.8224 127.353L28.0995 128.044L28.7903 128.767L29.5133 128.076L28.8224 127.353ZM24.1135 122.425L23.4226 121.702L22.6996 122.393L23.3905 123.116L24.1135 122.425ZM30.3112 124.586L31.0021 125.309L31.725 124.618L31.0342 123.895L30.3112 124.586ZM26.9453 121.064L27.6683 120.373L26.9774 119.65L26.2544 120.341L26.9453 121.064ZM25.3663 122.573L24.6754 121.85L23.9524 122.54L24.6433 123.263L25.3663 122.573ZM28.7322 126.095L28.0092 126.786L28.7001 127.509L29.4231 126.818L28.7322 126.095ZM30.608 117.746L31.1718 118.336L32.6177 116.954L32.054 116.364L30.608 117.746ZM31.2039 116.922L30.8655 117.246L32.2472 118.692L32.5856 118.368L31.2039 116.922ZM30.8655 117.246C29.8725 118.195 28.4148 118.354 27.0703 117.629L26.1215 119.39C28.131 120.473 30.5508 120.313 32.2472 118.692L30.8655 117.246ZM27.5632 118.763L27.7955 117.877L25.8609 117.37L25.6286 118.256L27.5632 118.763ZM26.339 118.496C28.0832 119.474 30.2535 119.468 31.6835 118.102L30.3018 116.656C29.667 117.262 28.5065 117.418 27.3174 116.751L26.339 118.496ZM31.6835 118.102L32.0219 117.778L30.6401 116.332L30.3018 116.656L31.6835 118.102ZM30.7324 117.876L31.2961 118.466L32.7421 117.085L32.1783 116.495L30.7324 117.876ZM31.3282 117.052L30.9899 117.376L32.3716 118.822L32.71 118.498L31.3282 117.052ZM30.9899 117.376C29.6184 118.686 29.5734 120.793 30.4732 122.532L32.2495 121.613C31.6207 120.397 31.8344 119.335 32.3716 118.822L30.9899 117.376ZM31.1343 121.098L30.2384 121.307L30.6924 123.255L31.5883 123.046L31.1343 121.098ZM31.361 121.836C30.681 120.467 30.9135 119.086 31.8079 118.232L30.4261 116.786C28.8045 118.335 28.5616 120.696 29.5698 122.726L31.361 121.836ZM31.8079 118.232L32.1462 117.908L30.7645 116.463L30.4261 116.786L31.8079 118.232ZM29.3143 115.663L33.3103 119.845L34.7562 118.463L30.7603 114.281L29.3143 115.663ZM33.3424 118.431L32.7611 118.986L34.1429 120.432L34.7241 119.877L33.3424 118.431ZM34.175 119.018L30.179 114.837L28.733 116.218L32.729 120.4L34.175 119.018ZM30.1469 116.25L30.7282 115.695L29.3464 114.249L28.7651 114.804L30.1469 116.25ZM31.9267 116.486L32.6148 117.206L34.0608 115.824L33.3727 115.104L31.9267 116.486ZM32.6469 115.792L31.4584 116.928L32.8401 118.374L34.0287 117.238L32.6469 115.792ZM32.8722 116.96L32.1841 116.24L30.7381 117.622L31.4262 118.342L32.8722 116.96ZM32.152 117.654L33.3406 116.518L31.9588 115.072L30.7703 116.208L32.152 117.654ZM35.1502 119.929L35.8383 120.649L37.2842 119.267L36.5961 118.547L35.1502 119.929ZM35.8704 119.235L31.2288 123.67L32.6106 125.116L37.2521 120.681L35.8704 119.235ZM32.6427 123.703L31.9546 122.982L30.5086 124.364L31.1967 125.084L32.6427 123.703ZM31.9225 124.396L36.564 119.961L35.1823 118.515L30.5407 122.95L31.9225 124.396ZM33.6695 122.34L34.9711 123.702L36.4171 122.32L35.1155 120.958L33.6695 122.34ZM35.0032 122.288L34.3959 122.868L35.7776 124.314L36.3849 123.734L35.0032 122.288ZM35.8098 122.9L34.5082 121.538L33.0622 122.92L34.3638 124.282L35.8098 122.9ZM34.476 122.952L35.0834 122.372L33.7016 120.926L33.0943 121.506L34.476 122.952ZM26.1234 120.505L30.8323 125.432L32.2783 124.051L27.5693 119.123L26.1234 120.505ZM30.8644 124.019L28.1316 126.63L29.5133 128.076L32.2462 125.465L30.8644 124.019ZM29.5454 126.662L24.8365 121.734L23.3905 123.116L28.0995 128.044L29.5454 126.662ZM24.8044 123.148L27.5372 120.537L26.1555 119.091L23.4226 121.702L24.8044 123.148ZM31.0342 123.895L27.6683 120.373L26.2223 121.755L29.5882 125.277L31.0342 123.895ZM26.2544 120.341L24.6754 121.85L26.0572 123.296L27.6362 121.787L26.2544 120.341ZM24.6433 123.263L28.0092 126.786L29.4552 125.404L26.0893 121.882L24.6433 123.263ZM29.4231 126.818L31.0021 125.309L29.6203 123.863L28.0413 125.372L29.4231 126.818Z" fill="#FFD700" mask="url(#path-3-outside-1_2_379)"/>
<mask id="path-5-outside-2_2_379" maskUnits="userSpaceOnUse" x="41.7429" y="127.675" width="9.86049" height="12.9669" fill="black">
<rect fill="white" x="41.7429" y="127.675" width="9.86049" height="12.9669"/>
<path d="M49.468 130.273L46.5722 135.838L45.6891 135.394L48.4326 129.752L49.468 130.273ZM44.9967 137.869C44.8089 137.775 44.6816 137.626 44.6148 137.424C44.5479 137.222 44.5618 137.027 44.6563 136.839C44.7508 136.651 44.8991 136.524 45.1013 136.457C45.3035 136.39 45.4985 136.404 45.6863 136.499C45.8741 136.593 46.0014 136.742 46.0682 136.944C46.135 137.146 46.1211 137.341 46.0267 137.529C45.9641 137.653 45.8749 137.751 45.7591 137.824C45.6458 137.897 45.5212 137.939 45.3852 137.95C45.2531 137.96 45.1236 137.933 44.9967 137.869Z"/>
</mask>
<path d="M49.468 130.273L46.5722 135.838L45.6891 135.394L48.4326 129.752L49.468 130.273ZM44.9967 137.869C44.8089 137.775 44.6816 137.626 44.6148 137.424C44.5479 137.222 44.5618 137.027 44.6563 136.839C44.7508 136.651 44.8991 136.524 45.1013 136.457C45.3035 136.39 45.4985 136.404 45.6863 136.499C45.8741 136.593 46.0014 136.742 46.0682 136.944C46.135 137.146 46.1211 137.341 46.0267 137.529C45.9641 137.653 45.8749 137.751 45.7591 137.824C45.6458 137.897 45.5212 137.939 45.3852 137.95C45.2531 137.96 45.1236 137.933 44.9967 137.869Z" fill="white"/>
<path d="M49.468 130.273L50.3551 130.735L50.823 129.835L49.9175 129.38L49.468 130.273ZM46.5722 135.838L46.1227 136.731L47.0039 137.175L47.4593 136.3L46.5722 135.838ZM45.6891 135.394L44.7898 134.956L44.3584 135.843L45.2396 136.287L45.6891 135.394ZM48.4326 129.752L48.8821 128.859L47.9766 128.403L47.5333 129.315L48.4326 129.752ZM44.6148 137.424L45.5643 137.11L45.5643 137.11L44.6148 137.424ZM46.0682 136.944L47.0177 136.63L47.0177 136.63L46.0682 136.944ZM45.7591 137.824L45.2304 136.975L45.2228 136.979L45.2153 136.984L45.7591 137.824ZM45.3852 137.95L45.4594 138.948L45.4665 138.947L45.3852 137.95ZM48.5809 129.811L45.6851 135.376L47.4593 136.3L50.3551 130.735L48.5809 129.811ZM47.0217 134.945L46.1386 134.5L45.2396 136.287L46.1227 136.731L47.0217 134.945ZM46.5884 135.831L49.3319 130.189L47.5333 129.315L44.7898 134.956L46.5884 135.831ZM47.9831 130.645L49.0185 131.166L49.9175 129.38L48.8821 128.859L47.9831 130.645ZM45.4462 136.976C45.4614 136.984 45.4904 137.002 45.5192 137.036C45.5478 137.069 45.5604 137.099 45.5643 137.11L43.6653 137.738C43.8141 138.188 44.1191 138.547 44.5472 138.762L45.4462 136.976ZM45.5643 137.11C45.5681 137.122 45.5756 137.153 45.5725 137.197C45.5694 137.241 45.5572 137.274 45.5496 137.289L43.763 136.39C43.5476 136.818 43.5164 137.288 43.6653 137.738L45.5643 137.11ZM45.5496 137.289C45.5419 137.304 45.5232 137.333 45.4897 137.362C45.4563 137.39 45.4267 137.403 45.4151 137.407L44.7875 135.508C44.3372 135.657 43.9784 135.962 43.763 136.39L45.5496 137.289ZM45.4151 137.407C45.4035 137.411 45.3722 137.418 45.3284 137.415C45.2843 137.412 45.252 137.4 45.2368 137.392L46.1358 135.606C45.7077 135.39 45.2379 135.359 44.7875 135.508L45.4151 137.407ZM45.2368 137.392C45.2216 137.384 45.1925 137.366 45.1637 137.332C45.1351 137.299 45.1225 137.269 45.1187 137.258L47.0177 136.63C46.8688 136.18 46.5639 135.821 46.1358 135.606L45.2368 137.392ZM45.1187 137.258C45.1148 137.246 45.1073 137.215 45.1104 137.171C45.1135 137.127 45.1257 137.095 45.1334 137.079L46.9199 137.978C47.1354 137.55 47.1665 137.08 47.0177 136.63L45.1187 137.258ZM45.1334 137.079C45.1407 137.065 45.1533 137.045 45.1725 137.024C45.1917 137.002 45.2122 136.986 45.2304 136.975L46.2877 138.672C46.5628 138.501 46.7766 138.263 46.9199 137.978L45.1334 137.079ZM45.2153 136.984C45.2263 136.977 45.2415 136.969 45.2597 136.963C45.2777 136.957 45.2933 136.954 45.304 136.954L45.4665 138.947C45.7654 138.923 46.0493 138.827 46.3029 138.663L45.2153 136.984ZM45.3111 136.953C45.338 136.951 45.3663 136.953 45.3931 136.958C45.4196 136.964 45.4376 136.972 45.4462 136.976L44.5472 138.762C44.8239 138.902 45.1334 138.972 45.4594 138.947L45.3111 136.953Z" fill="#FFD700" mask="url(#path-5-outside-2_2_379)"/>
<mask id="path-7-outside-3_2_379" maskUnits="userSpaceOnUse" x="67.7742" y="133.884" width="14.2003" height="13.216" fill="black">
<rect fill="white" x="67.7742" y="133.884" width="14.2003" height="13.216"/>
<path d="M73.0555 135.948L73.8714 135.935L73.8849 136.799C73.9139 138.671 72.7018 140.214 70.8631 140.831L70.3589 140.046C71.995 139.529 73.0911 138.24 73.069 136.812L73.0555 135.948ZM73.2355 135.945L74.0514 135.932L74.0648 136.796C74.0848 138.08 75.1829 139.239 76.7858 139.67L76.3302 140.47C74.5098 139.946 73.2756 138.525 73.2489 136.809L73.2355 135.945ZM70.6281 135.746L76.4354 135.655L76.4481 136.471L70.6408 136.561L70.6281 135.746ZM77.8059 135.034L78.8018 135.018L78.8885 140.598L77.8926 140.613L77.8059 135.034ZM78.4064 137.377L80.4341 137.345L80.447 138.173L78.4193 138.205L78.4064 137.377ZM72.0093 141.221L78.8965 141.114L78.9374 143.741L73.0581 143.833L73.084 145.501L72.1001 145.516L72.0628 143.116L77.9541 143.025L77.9368 141.909L72.0215 142.001L72.0093 141.221ZM72.0936 145.096L79.3527 144.983L79.3646 145.751L72.1055 145.864L72.0936 145.096Z"/>
</mask>
<path d="M73.0555 135.948L73.8714 135.935L73.8849 136.799C73.9139 138.671 72.7018 140.214 70.8631 140.831L70.3589 140.046C71.995 139.529 73.0911 138.24 73.069 136.812L73.0555 135.948ZM73.2355 135.945L74.0514 135.932L74.0648 136.796C74.0848 138.08 75.1829 139.239 76.7858 139.67L76.3302 140.47C74.5098 139.946 73.2756 138.525 73.2489 136.809L73.2355 135.945ZM70.6281 135.746L76.4354 135.655L76.4481 136.471L70.6408 136.561L70.6281 135.746ZM77.8059 135.034L78.8018 135.018L78.8885 140.598L77.8926 140.613L77.8059 135.034ZM78.4064 137.377L80.4341 137.345L80.447 138.173L78.4193 138.205L78.4064 137.377ZM72.0093 141.221L78.8965 141.114L78.9374 143.741L73.0581 143.833L73.084 145.501L72.1001 145.516L72.0628 143.116L77.9541 143.025L77.9368 141.909L72.0215 142.001L72.0093 141.221ZM72.0936 145.096L79.3527 144.983L79.3646 145.751L72.1055 145.864L72.0936 145.096Z" fill="white"/>
<path d="M73.0555 135.948L73.04 134.948L72.0401 134.964L72.0557 135.963L73.0555 135.948ZM73.8714 135.935L74.8713 135.92L74.8558 134.92L73.8559 134.935L73.8714 135.935ZM70.8631 140.831L70.022 141.371L70.443 142.026L71.1811 141.779L70.8631 140.831ZM70.3589 140.046L70.0573 139.093L68.8105 139.487L69.5178 140.587L70.3589 140.046ZM73.2355 135.945L73.22 134.945L72.2201 134.961L72.2356 135.961L73.2355 135.945ZM74.0514 135.932L75.0513 135.917L75.0357 134.917L74.0359 134.932L74.0514 135.932ZM76.7858 139.67L77.6546 140.166L78.2958 139.041L77.0456 138.705L76.7858 139.67ZM76.3302 140.47L76.0537 141.431L76.8094 141.648L77.1989 140.965L76.3302 140.47ZM70.6281 135.746L70.6126 134.746L69.6127 134.761L69.6282 135.761L70.6281 135.746ZM76.4354 135.655L77.4353 135.64L77.4197 134.64L76.4199 134.655L76.4354 135.655ZM76.4481 136.471L76.4636 137.471L77.4635 137.456L77.448 136.456L76.4481 136.471ZM70.6408 136.561L69.6409 136.577L69.6564 137.577L70.6563 137.561L70.6408 136.561ZM77.8059 135.034L77.7904 134.034L76.7905 134.05L76.806 135.049L77.8059 135.034ZM78.8018 135.018L79.8017 135.003L79.7861 134.003L78.7862 134.019L78.8018 135.018ZM78.8885 140.598L78.904 141.598L79.9039 141.582L79.8884 140.582L78.8885 140.598ZM77.8926 140.613L76.8927 140.629L76.9083 141.629L77.9082 141.613L77.8926 140.613ZM78.4064 137.377L78.3908 136.377L77.391 136.393L77.4065 137.392L78.4064 137.377ZM80.4341 137.345L81.434 137.33L81.4185 136.33L80.4186 136.345L80.4341 137.345ZM80.447 138.173L80.4625 139.173L81.4624 139.158L81.4469 138.158L80.447 138.173ZM78.4193 138.205L77.4194 138.22L77.4349 139.22L78.4348 139.205L78.4193 138.205ZM72.0093 141.221L71.9938 140.221L70.9939 140.236L71.0095 141.236L72.0093 141.221ZM78.8965 141.114L79.8964 141.098L79.8809 140.098L78.881 140.114L78.8965 141.114ZM78.9374 143.741L78.9529 144.741L79.9528 144.726L79.9372 143.726L78.9374 143.741ZM73.0581 143.833L73.0425 142.833L72.0426 142.848L72.0582 143.848L73.0581 143.833ZM73.084 145.501L73.0995 146.5L74.0994 146.485L74.0839 145.485L73.084 145.501ZM72.1001 145.516L71.1002 145.531L71.1158 146.531L72.1156 146.516L72.1001 145.516ZM72.0628 143.116L72.0473 142.116L71.0474 142.132L71.0629 143.132L72.0628 143.116ZM77.9541 143.025L77.9696 144.024L78.9695 144.009L78.954 143.009L77.9541 143.025ZM77.9368 141.909L78.9366 141.893L78.9211 140.893L77.9212 140.909L77.9368 141.909ZM72.0215 142.001L71.0216 142.016L71.0371 143.016L72.037 143.001L72.0215 142.001ZM72.0936 145.096L72.078 144.096L71.0782 144.112L71.0937 145.111L72.0936 145.096ZM79.3527 144.983L80.3526 144.968L80.337 143.968L79.3372 143.983L79.3527 144.983ZM79.3646 145.751L79.3802 146.751L80.3801 146.735L80.3645 145.735L79.3646 145.751ZM72.1055 145.864L71.1056 145.879L71.1212 146.879L72.121 146.864L72.1055 145.864ZM73.0711 136.948L73.887 136.935L73.8559 134.935L73.04 134.948L73.0711 136.948ZM72.8716 135.951L72.885 136.815L74.8847 136.784L74.8713 135.92L72.8716 135.951ZM72.885 136.815C72.9065 138.197 72.025 139.386 70.5452 139.882L71.1811 141.779C73.3786 141.042 74.9214 139.145 74.8847 136.784L72.885 136.815ZM71.7043 140.29L71.2 139.505L69.5178 140.587L70.022 141.371L71.7043 140.29ZM70.6605 141C72.5931 140.388 74.0997 138.784 74.0688 136.796L72.0691 136.827C72.0826 137.695 71.397 138.669 70.0573 139.093L70.6605 141ZM74.0688 136.796L74.0554 135.932L72.0557 135.963L72.0691 136.827L74.0688 136.796ZM73.251 136.945L74.067 136.932L74.0359 134.932L73.22 134.945L73.251 136.945ZM73.0515 135.948L73.065 136.812L75.0647 136.781L75.0513 135.917L73.0515 135.948ZM73.065 136.812C73.0942 138.692 74.6571 140.133 76.5261 140.636L77.0456 138.705C75.7087 138.345 75.0754 137.468 75.0647 136.781L73.065 136.812ZM75.9171 139.175L75.4615 139.974L77.1989 140.965L77.6546 140.166L75.9171 139.175ZM76.6067 139.508C75.1252 139.082 74.2674 137.988 74.2488 136.793L72.2491 136.824C72.2838 139.062 73.8945 140.809 76.0537 141.431L76.6067 139.508ZM74.2488 136.793L74.2354 135.93L72.2356 135.961L72.2491 136.824L74.2488 136.793ZM70.6436 136.745L76.4509 136.655L76.4199 134.655L70.6126 134.746L70.6436 136.745ZM75.4355 135.671L75.4482 136.487L77.448 136.456L77.4353 135.64L75.4355 135.671ZM76.4325 135.471L70.6252 135.562L70.6563 137.561L76.4636 137.471L76.4325 135.471ZM71.6407 136.546L71.628 135.73L69.6282 135.761L69.6409 136.577L71.6407 136.546ZM77.8214 136.034L78.8173 136.018L78.7862 134.019L77.7904 134.034L77.8214 136.034ZM77.8019 135.034L77.8886 140.613L79.8884 140.582L79.8017 135.003L77.8019 135.034ZM78.873 139.598L77.8771 139.613L77.9082 141.613L78.904 141.598L78.873 139.598ZM78.8925 140.598L78.8058 135.018L76.806 135.049L76.8927 140.629L78.8925 140.598ZM78.4219 138.377L80.4497 138.345L80.4186 136.345L78.3908 136.377L78.4219 138.377ZM79.4343 137.361L79.4471 138.189L81.4469 138.158L81.434 137.33L79.4343 137.361ZM80.4315 137.173L78.4037 137.205L78.4348 139.205L80.4625 139.173L80.4315 137.173ZM79.4191 138.189L79.4063 137.361L77.4065 137.392L77.4194 138.22L79.4191 138.189ZM72.0249 142.221L78.9121 142.114L78.881 140.114L71.9938 140.221L72.0249 142.221ZM77.8966 141.129L77.9375 143.757L79.9372 143.726L79.8964 141.098L77.8966 141.129ZM78.9218 142.742L73.0425 142.833L73.0736 144.833L78.9529 144.741L78.9218 142.742ZM72.0582 143.848L72.0841 145.516L74.0839 145.485L74.0579 143.817L72.0582 143.848ZM73.0684 144.501L72.0846 144.516L72.1156 146.516L73.0995 146.5L73.0684 144.501ZM73.1 145.5L73.0627 143.101L71.0629 143.132L71.1002 145.531L73.1 145.5ZM72.0783 144.116L77.9696 144.024L77.9386 142.025L72.0473 142.116L72.0783 144.116ZM78.954 143.009L78.9366 141.893L76.9369 141.924L76.9542 143.04L78.954 143.009ZM77.9212 140.909L72.0059 141.001L72.037 143.001L77.9523 142.909L77.9212 140.909ZM73.0213 141.985L73.0092 141.205L71.0095 141.236L71.0216 142.016L73.0213 141.985ZM72.1091 146.096L79.3682 145.983L79.3372 143.983L72.078 144.096L72.1091 146.096ZM78.3528 144.999L78.3648 145.767L80.3645 145.735L80.3526 144.968L78.3528 144.999ZM79.3491 144.751L72.09 144.864L72.121 146.864L79.3802 146.751L79.3491 144.751ZM73.1054 145.848L73.0935 145.08L71.0937 145.111L71.1056 145.879L73.1054 145.848Z" fill="#FFD700" mask="url(#path-7-outside-3_2_379)"/>
<mask id="path-9-outside-4_2_379" maskUnits="userSpaceOnUse" x="83.3363" y="129.919" width="17.3212" height="17.3212" fill="black">
<rect fill="white" x="83.3363" y="129.919" width="17.3212" height="17.3212"/>
<path d="M93.0437 132.141L93.9548 131.879L95.8069 138.326L94.8957 138.588L93.0437 132.141ZM92.1666 135.476L94.1388 134.91L94.3641 135.694L92.3919 136.261L92.1666 135.476ZM90.8723 132.927L91.7834 132.665L93.5494 138.812L92.6382 139.074L90.8723 132.927ZM85.4581 135.593L90.7404 134.076L90.9591 134.837L85.6767 136.354L85.4581 135.593ZM88.4785 136.111C89.7818 135.737 90.8951 136.179 91.2065 137.263C91.518 138.347 90.8089 139.312 89.5056 139.687C88.1908 140.065 87.0775 139.623 86.7661 138.539C86.4547 137.454 87.1637 136.489 88.4785 136.111ZM88.6873 136.838C87.8684 137.073 87.434 137.648 87.6196 138.293C87.8051 138.939 88.4813 139.207 89.3002 138.972C90.1075 138.74 90.5386 138.154 90.353 137.508C90.1675 136.862 89.4946 136.606 88.6873 136.838ZM87.3099 133.825L88.2441 133.557L88.7013 135.148L87.7671 135.417L87.3099 133.825ZM89.8643 140.37L90.6024 140.158L90.7051 140.516C91.0828 141.831 90.5955 143.394 89.2403 144.37L88.5851 143.784C89.7625 142.972 90.2387 141.674 89.967 140.728L89.8643 140.37ZM90.0834 140.307L90.787 140.105L90.8897 140.463C91.1779 141.466 92.094 142.352 93.4755 142.467L93.2805 143.309C91.6337 143.183 90.5671 141.991 90.1861 140.665L90.0834 140.307ZM93.6934 139.27L94.397 139.068L94.4997 139.426C94.8376 140.602 94.5845 142.286 93.2805 143.309L92.6796 142.695C93.7383 141.817 94.0446 140.493 93.7961 139.628L93.6934 139.27ZM93.8895 139.214L94.6276 139.002L94.7303 139.36C95.0219 140.375 96.1011 141.176 97.5352 141.213L97.2792 142.061C95.6077 141.979 94.3898 140.956 93.9922 139.572L93.8895 139.214Z"/>
</mask>
<path d="M93.0437 132.141L93.9548 131.879L95.8069 138.326L94.8957 138.588L93.0437 132.141ZM92.1666 135.476L94.1388 134.91L94.3641 135.694L92.3919 136.261L92.1666 135.476ZM90.8723 132.927L91.7834 132.665L93.5494 138.812L92.6382 139.074L90.8723 132.927ZM85.4581 135.593L90.7404 134.076L90.9591 134.837L85.6767 136.354L85.4581 135.593ZM88.4785 136.111C89.7818 135.737 90.8951 136.179 91.2065 137.263C91.518 138.347 90.8089 139.312 89.5056 139.687C88.1908 140.065 87.0775 139.623 86.7661 138.539C86.4547 137.454 87.1637 136.489 88.4785 136.111ZM88.6873 136.838C87.8684 137.073 87.434 137.648 87.6196 138.293C87.8051 138.939 88.4813 139.207 89.3002 138.972C90.1075 138.74 90.5386 138.154 90.353 137.508C90.1675 136.862 89.4946 136.606 88.6873 136.838ZM87.3099 133.825L88.2441 133.557L88.7013 135.148L87.7671 135.417L87.3099 133.825ZM89.8643 140.37L90.6024 140.158L90.7051 140.516C91.0828 141.831 90.5955 143.394 89.2403 144.37L88.5851 143.784C89.7625 142.972 90.2387 141.674 89.967 140.728L89.8643 140.37ZM90.0834 140.307L90.787 140.105L90.8897 140.463C91.1779 141.466 92.094 142.352 93.4755 142.467L93.2805 143.309C91.6337 143.183 90.5671 141.991 90.1861 140.665L90.0834 140.307ZM93.6934 139.27L94.397 139.068L94.4997 139.426C94.8376 140.602 94.5845 142.286 93.2805 143.309L92.6796 142.695C93.7383 141.817 94.0446 140.493 93.7961 139.628L93.6934 139.27ZM93.8895 139.214L94.6276 139.002L94.7303 139.36C95.0219 140.375 96.1011 141.176 97.5352 141.213L97.2792 142.061C95.6077 141.979 94.3898 140.956 93.9922 139.572L93.8895 139.214Z" fill="white"/>
<path d="M93.0437 132.141L92.7676 131.18L91.8064 131.456L92.0825 132.417L93.0437 132.141ZM93.9548 131.879L94.916 131.603L94.6399 130.642L93.6787 130.918L93.9548 131.879ZM95.8069 138.326L96.083 139.287L97.0441 139.011L96.768 138.05L95.8069 138.326ZM94.8957 138.588L93.9346 138.864L94.2107 139.825L95.1718 139.549L94.8957 138.588ZM92.1666 135.476L91.8905 134.515L90.9294 134.791L91.2055 135.753L92.1666 135.476ZM94.1388 134.91L95.1 134.634L94.8239 133.673L93.8627 133.949L94.1388 134.91ZM94.3641 135.694L94.6402 136.655L95.6013 136.379L95.3252 135.418L94.3641 135.694ZM92.3919 136.261L91.4307 136.537L91.7068 137.498L92.668 137.222L92.3919 136.261ZM90.8723 132.927L90.5962 131.966L89.6351 132.242L89.9112 133.203L90.8723 132.927ZM91.7834 132.665L92.7446 132.389L92.4685 131.428L91.5074 131.704L91.7834 132.665ZM93.5494 138.812L93.8255 139.774L94.7866 139.497L94.5105 138.536L93.5494 138.812ZM92.6382 139.074L91.6771 139.35L91.9532 140.311L92.9143 140.035L92.6382 139.074ZM85.4581 135.593L85.182 134.632L84.2208 134.908L84.4969 135.869L85.4581 135.593ZM90.7404 134.076L91.7016 133.8L91.4255 132.839L90.4643 133.115L90.7404 134.076ZM90.9591 134.837L91.2352 135.798L92.1963 135.522L91.9202 134.561L90.9591 134.837ZM85.6767 136.354L84.7156 136.631L84.9917 137.592L85.9528 137.316L85.6767 136.354ZM87.3099 133.825L87.0338 132.864L86.0727 133.14L86.3488 134.101L87.3099 133.825ZM88.2441 133.557L89.2052 133.281L88.9291 132.32L87.968 132.596L88.2441 133.557ZM88.7013 135.148L88.9774 136.11L89.9386 135.834L89.6625 134.872L88.7013 135.148ZM87.7671 135.417L86.806 135.693L87.0821 136.654L88.0432 136.378L87.7671 135.417ZM89.8643 140.37L89.5882 139.409L88.627 139.685L88.9031 140.646L89.8643 140.37ZM90.6024 140.158L91.5636 139.882L91.2875 138.921L90.3263 139.197L90.6024 140.158ZM89.2403 144.37L88.5738 145.116L89.1728 145.651L89.8248 145.182L89.2403 144.37ZM88.5851 143.784L88.0171 142.961L86.9715 143.683L87.9186 144.53L88.5851 143.784ZM90.0834 140.307L89.8073 139.346L88.8462 139.622L89.1223 140.584L90.0834 140.307ZM90.787 140.105L91.7481 139.829L91.472 138.868L90.5109 139.144L90.787 140.105ZM93.4755 142.467L94.4497 142.692L94.7103 141.566L93.5585 141.47L93.4755 142.467ZM93.2805 143.309L93.2041 144.306L94.061 144.372L94.2548 143.535L93.2805 143.309ZM93.6934 139.27L93.4173 138.309L92.4562 138.585L92.7323 139.546L93.6934 139.27ZM94.397 139.068L95.3581 138.792L95.082 137.831L94.1209 138.107L94.397 139.068ZM93.2805 143.309L92.5658 144.009L93.1929 144.65L93.8981 144.096L93.2805 143.309ZM92.6796 142.695L92.0411 141.926L91.2057 142.619L91.965 143.395L92.6796 142.695ZM93.8895 139.214L93.6134 138.253L92.6523 138.529L92.9284 139.49L93.8895 139.214ZM94.6276 139.002L95.5888 138.726L95.3127 137.765L94.3515 138.041L94.6276 139.002ZM97.5352 141.213L98.4925 141.502L98.8712 140.248L97.5613 140.214L97.5352 141.213ZM97.2792 142.061L97.2304 143.06L98.0107 143.098L98.2365 142.35L97.2792 142.061ZM93.3198 133.102L94.2309 132.84L93.6787 130.918L92.7676 131.18L93.3198 133.102ZM92.9937 132.155L94.8457 138.602L96.768 138.05L94.916 131.603L92.9937 132.155ZM95.5308 137.365L94.6196 137.627L95.1718 139.549L96.083 139.287L95.5308 137.365ZM95.8569 138.312L94.0048 131.865L92.0825 132.417L93.9346 138.864L95.8569 138.312ZM92.4427 136.438L94.4149 135.871L93.8627 133.949L91.8905 134.515L92.4427 136.438ZM93.1777 135.186L93.403 135.97L95.3252 135.418L95.1 134.634L93.1777 135.186ZM94.088 134.733L92.1158 135.3L92.668 137.222L94.6402 136.655L94.088 134.733ZM93.353 135.985L93.1277 135.2L91.2055 135.753L91.4307 136.537L93.353 135.985ZM91.1484 133.888L92.0595 133.626L91.5074 131.704L90.5962 131.966L91.1484 133.888ZM90.8223 132.941L92.5882 139.088L94.5105 138.536L92.7446 132.389L90.8223 132.941ZM93.2733 137.851L92.3621 138.113L92.9143 140.035L93.8255 139.774L93.2733 137.851ZM93.5993 138.798L91.8334 132.651L89.9112 133.203L91.6771 139.35L93.5993 138.798ZM85.7341 136.554L91.0165 135.037L90.4643 133.115L85.182 134.632L85.7341 136.554ZM89.7793 134.352L89.998 135.113L91.9202 134.561L91.7016 133.8L89.7793 134.352ZM90.683 133.876L85.4006 135.393L85.9528 137.316L91.2352 135.798L90.683 133.876ZM86.6379 136.078L86.4192 135.317L84.4969 135.869L84.7156 136.631L86.6379 136.078ZM88.7546 137.073C89.2418 136.933 89.6063 136.971 89.8313 137.064C90.0332 137.148 90.1746 137.293 90.2454 137.539L92.1676 136.987C91.927 136.149 91.3561 135.531 90.5976 135.217C89.8623 134.912 89.0185 134.916 88.2024 135.15L88.7546 137.073ZM90.2454 137.539C90.3162 137.786 90.2733 137.983 90.1466 138.162C90.0054 138.36 89.7167 138.586 89.2295 138.726L89.7817 140.648C90.5978 140.414 91.3152 139.969 91.7765 139.321C92.2524 138.651 92.4083 137.825 92.1676 136.987L90.2454 137.539ZM89.2295 138.726C88.7348 138.868 88.367 138.83 88.1411 138.737C87.9389 138.653 87.798 138.509 87.7272 138.262L85.805 138.815C86.0457 139.653 86.6171 140.271 87.3781 140.585C88.1153 140.89 88.9616 140.884 89.7817 140.648L89.2295 138.726ZM87.7272 138.262C87.6565 138.016 87.6993 137.819 87.8264 137.641C87.9684 137.442 88.2599 137.215 88.7546 137.073L88.2024 135.15C87.3824 135.386 86.6619 135.83 86.1985 136.479C85.7202 137.149 85.5643 137.977 85.805 138.815L87.7272 138.262ZM88.4112 135.877C87.85 136.038 87.3242 136.342 86.9729 136.817C86.6038 137.316 86.4781 137.942 86.6584 138.569L88.5807 138.017C88.5746 137.996 88.5786 137.996 88.5763 138.008C88.5741 138.02 88.5706 138.02 88.5806 138.007C88.6048 137.974 88.7056 137.873 88.9634 137.799L88.4112 135.877ZM86.6584 138.569C86.8382 139.195 87.2753 139.66 87.8499 139.891C88.3995 140.112 89.0094 140.096 89.5763 139.933L89.0241 138.011C88.7721 138.083 88.6345 138.051 88.5949 138.035C88.5778 138.028 88.5785 138.025 88.5845 138.031C88.5909 138.038 88.5868 138.039 88.5807 138.017L86.6584 138.569ZM89.5763 139.933C90.1403 139.771 90.6626 139.46 91.0089 138.982C91.3704 138.482 91.4938 137.857 91.3142 137.232L89.3919 137.784C89.398 137.806 89.3946 137.808 89.3962 137.799C89.3977 137.791 89.3997 137.794 89.389 137.809C89.3644 137.843 89.2675 137.941 89.0241 138.011L89.5763 139.933ZM91.3142 137.232C91.134 136.605 90.696 136.142 90.1216 135.914C89.5741 135.697 88.9693 135.717 88.4112 135.877L88.9634 137.799C89.2126 137.728 89.3479 137.759 89.3851 137.774C89.4006 137.78 89.3979 137.782 89.3903 137.774C89.3822 137.765 89.3858 137.763 89.3919 137.784L91.3142 137.232ZM87.586 134.786L88.5202 134.518L87.968 132.596L87.0338 132.864L87.586 134.786ZM87.283 133.833L87.7402 135.425L89.6625 134.872L89.2052 133.281L87.283 133.833ZM88.4252 134.187L87.491 134.456L88.0432 136.378L88.9774 136.11L88.4252 134.187ZM88.7282 135.141L88.271 133.549L86.3488 134.101L86.806 135.693L88.7282 135.141ZM90.1404 141.331L90.8785 141.119L90.3263 139.197L89.5882 139.409L90.1404 141.331ZM89.6413 140.434L89.744 140.792L91.6663 140.24L91.5636 139.882L89.6413 140.434ZM89.744 140.792C89.9996 141.682 89.6851 142.817 88.6559 143.559L89.8248 145.182C91.5059 143.971 92.166 141.98 91.6663 140.24L89.744 140.792ZM89.9069 143.625L89.2517 143.039L87.9186 144.53L88.5738 145.116L89.9069 143.625ZM89.1532 144.607C90.5998 143.609 91.3444 141.901 90.9281 140.452L89.0059 141.004C89.133 141.447 88.9252 142.334 88.0171 142.961L89.1532 144.607ZM90.9281 140.452L90.8254 140.094L88.9031 140.646L89.0059 141.004L90.9281 140.452ZM90.3595 141.269L91.0631 141.066L90.5109 139.144L89.8073 139.346L90.3595 141.269ZM89.8258 140.381L89.9285 140.739L91.8508 140.187L91.7481 139.829L89.8258 140.381ZM89.9285 140.739C90.3302 142.137 91.5926 143.313 93.3925 143.463L93.5585 141.47C92.5954 141.39 92.0256 140.795 91.8508 140.187L89.9285 140.739ZM92.5012 142.241L92.3063 143.084L94.2548 143.535L94.4497 142.692L92.5012 142.241ZM93.3569 142.312C92.2211 142.225 91.4415 141.413 91.1472 140.389L89.225 140.941C89.6928 142.57 91.0463 144.141 93.2041 144.306L93.3569 142.312ZM91.1472 140.389L91.0445 140.031L89.1223 140.584L89.225 140.941L91.1472 140.389ZM93.9695 140.232L94.6731 140.029L94.1209 138.107L93.4173 138.309L93.9695 140.232ZM93.4358 139.344L93.5385 139.702L95.4608 139.15L95.3581 138.792L93.4358 139.344ZM93.5385 139.702C93.7891 140.574 93.5812 141.802 92.663 142.523L93.8981 144.096C95.5879 142.769 95.8861 140.63 95.4608 139.15L93.5385 139.702ZM93.9952 142.61L93.3943 141.996L91.965 143.395L92.5658 144.009L93.9952 142.61ZM93.3182 143.465C94.665 142.347 95.1215 140.62 94.7573 139.352L92.835 139.904C92.9677 140.366 92.8116 141.287 92.0411 141.926L93.3182 143.465ZM94.7573 139.352L94.6545 138.994L92.7323 139.546L92.835 139.904L94.7573 139.352ZM94.1656 140.175L94.9037 139.963L94.3515 138.041L93.6134 138.253L94.1656 140.175ZM93.6665 139.278L93.7692 139.636L95.6915 139.083L95.5888 138.726L93.6665 139.278ZM93.7692 139.636C94.2071 141.16 95.7402 142.167 97.509 142.213L97.5613 140.214C96.4619 140.185 95.8367 139.589 95.6915 139.083L93.7692 139.636ZM96.5778 140.924L96.3219 141.772L98.2365 142.35L98.4925 141.502L96.5778 140.924ZM97.328 141.062C96.0713 141.001 95.2293 140.256 94.9533 139.296L93.0311 139.848C93.5502 141.655 95.1441 142.958 97.2304 143.06L97.328 141.062ZM94.9533 139.296L94.8506 138.938L92.9284 139.49L93.0311 139.848L94.9533 139.296Z" fill="#FFD700" mask="url(#path-9-outside-4_2_379)"/>
<mask id="path-11-outside-5_2_379" maskUnits="userSpaceOnUse" x="97.3145" y="123.481" width="16.9957" height="17.3339" fill="black">
<rect fill="white" x="97.3145" y="123.481" width="16.9957" height="17.3339"/>
<path d="M102.15 129.006C103.495 128.193 105.224 128.872 106.416 130.843C107.615 132.825 107.413 134.672 106.068 135.485C104.713 136.305 102.994 135.62 101.795 133.638C100.603 131.666 100.794 129.826 102.15 129.006ZM102.615 129.776C101.722 130.317 101.7 131.648 102.607 133.147C103.52 134.657 104.722 135.276 105.615 134.736C106.508 134.196 106.518 132.843 105.605 131.334C104.698 129.835 103.509 129.236 102.615 129.776ZM106.038 125.673L106.88 125.164L112.506 134.467L111.664 134.976L106.038 125.673ZM105.891 130.6L108.55 128.992L108.972 129.69L106.313 131.299L105.891 130.6Z"/>
</mask>
<path d="M102.15 129.006C103.495 128.193 105.224 128.872 106.416 130.843C107.615 132.825 107.413 134.672 106.068 135.485C104.713 136.305 102.994 135.62 101.795 133.638C100.603 131.666 100.794 129.826 102.15 129.006ZM102.615 129.776C101.722 130.317 101.7 131.648 102.607 133.147C103.52 134.657 104.722 135.276 105.615 134.736C106.508 134.196 106.518 132.843 105.605 131.334C104.698 129.835 103.509 129.236 102.615 129.776ZM106.038 125.673L106.88 125.164L112.506 134.467L111.664 134.976L106.038 125.673ZM105.891 130.6L108.55 128.992L108.972 129.69L106.313 131.299L105.891 130.6Z" fill="white"/>
<path d="M106.038 125.673L105.52 124.817L104.665 125.335L105.182 126.19L106.038 125.673ZM106.88 125.164L107.736 124.646L107.218 123.791L106.362 124.308L106.88 125.164ZM112.506 134.467L113.024 135.322L113.879 134.805L113.362 133.949L112.506 134.467ZM111.664 134.976L110.808 135.493L111.326 136.349L112.182 135.832L111.664 134.976ZM105.891 130.6L105.373 129.745L104.517 130.262L105.035 131.118L105.891 130.6ZM108.55 128.992L109.406 128.474L108.888 127.619L108.033 128.136L108.55 128.992ZM108.972 129.69L109.49 130.546L110.345 130.028L109.828 129.173L108.972 129.69ZM106.313 131.299L105.457 131.816L105.975 132.672L106.83 132.154L106.313 131.299ZM102.667 129.862C103.042 129.635 103.471 129.6 103.953 129.802C104.459 130.015 105.043 130.505 105.561 131.361L107.272 130.326C106.597 129.21 105.72 128.375 104.727 127.958C103.71 127.532 102.603 127.563 101.632 128.15L102.667 129.862ZM105.561 131.361C106.082 132.223 106.246 132.97 106.2 133.518C106.155 134.04 105.925 134.403 105.551 134.63L106.586 136.341C107.556 135.754 108.099 134.787 108.192 133.687C108.283 132.612 107.949 131.446 107.272 130.326L105.561 131.361ZM105.551 134.63C105.17 134.86 104.741 134.894 104.262 134.691C103.758 134.478 103.173 133.984 102.651 133.12L100.94 134.155C101.616 135.273 102.49 136.113 103.484 136.533C104.503 136.964 105.611 136.93 106.586 136.341L105.551 134.63ZM102.651 133.12C102.133 132.263 101.968 131.519 102.014 130.974C102.057 130.457 102.286 130.092 102.667 129.862L101.632 128.15C100.658 128.74 100.113 129.705 100.021 130.806C99.9303 131.879 100.266 133.041 100.94 134.155L102.651 133.12ZM102.098 128.921C101.294 129.407 100.942 130.237 100.936 131.096C100.931 131.925 101.237 132.814 101.751 133.665L103.462 132.63C103.07 131.981 102.934 131.455 102.936 131.109C102.938 130.792 103.044 130.686 103.133 130.632L102.098 128.921ZM101.751 133.665C102.268 134.52 102.916 135.209 103.654 135.596C104.415 135.995 105.32 136.083 106.132 135.591L105.097 133.88C105.016 133.929 104.874 133.977 104.583 133.825C104.267 133.659 103.858 133.284 103.462 132.63L101.751 133.665ZM106.132 135.591C106.945 135.1 107.287 134.258 107.287 133.398C107.287 132.566 106.978 131.671 106.461 130.816L104.749 131.851C105.145 132.506 105.287 133.042 105.287 133.398C105.287 133.727 105.178 133.831 105.097 133.88L106.132 135.591ZM106.461 130.816C105.946 129.966 105.301 129.282 104.564 128.902C103.8 128.508 102.902 128.434 102.098 128.921L103.133 130.632C103.222 130.578 103.365 130.534 103.647 130.679C103.954 130.838 104.357 131.203 104.749 131.851L106.461 130.816ZM106.555 126.529L107.397 126.019L106.362 124.308L105.52 124.817L106.555 126.529ZM106.024 125.681L111.65 134.984L113.362 133.949L107.736 124.646L106.024 125.681ZM111.989 133.611L111.147 134.12L112.182 135.832L113.024 135.322L111.989 133.611ZM112.52 134.459L106.894 125.155L105.182 126.19L110.808 135.493L112.52 134.459ZM106.408 131.456L109.068 129.848L108.033 128.136L105.373 129.745L106.408 131.456ZM107.694 129.509L108.117 130.208L109.828 129.173L109.406 128.474L107.694 129.509ZM108.455 128.835L105.795 130.443L106.83 132.154L109.49 130.546L108.455 128.835ZM107.169 130.781L106.746 130.083L105.035 131.118L105.457 131.816L107.169 130.781Z" fill="#FFD700" mask="url(#path-11-outside-5_2_379)"/>
<mask id="path-13-outside-6_2_379" maskUnits="userSpaceOnUse" x="109.739" y="112.691" width="17.6571" height="17.6892" fill="black">
<rect fill="white" x="109.739" y="112.691" width="17.6571" height="17.6892"/>
<path d="M117.323 123.804L118.003 123.093L120.354 125.34L119.674 126.051L117.323 123.804ZM120.092 120.907L120.78 120.187L123.131 122.433L122.443 123.153L120.092 120.907ZM117.877 127.654L124.667 120.548L125.266 121.12L118.476 128.226L117.877 127.654ZM115.508 118.617C117.091 116.96 119.017 116.526 120.248 117.703C121.472 118.872 121.125 120.815 119.542 122.472C117.95 124.138 116.025 124.572 114.802 123.403C113.57 122.226 113.916 120.283 115.508 118.617ZM116.08 119.165C114.878 120.423 114.589 121.872 115.465 122.709C116.332 123.538 117.767 123.183 118.969 121.925C120.172 120.667 120.453 119.226 119.585 118.397C118.709 117.56 117.282 117.907 116.08 119.165Z"/>
</mask>
<path d="M117.323 123.804L118.003 123.093L120.354 125.34L119.674 126.051L117.323 123.804ZM120.092 120.907L120.78 120.187L123.131 122.433L122.443 123.153L120.092 120.907ZM117.877 127.654L124.667 120.548L125.266 121.12L118.476 128.226L117.877 127.654ZM115.508 118.617C117.091 116.96 119.017 116.526 120.248 117.703C121.472 118.872 121.125 120.815 119.542 122.472C117.95 124.138 116.025 124.572 114.802 123.403C113.57 122.226 113.916 120.283 115.508 118.617ZM116.08 119.165C114.878 120.423 114.589 121.872 115.465 122.709C116.332 123.538 117.767 123.183 118.969 121.925C120.172 120.667 120.453 119.226 119.585 118.397C118.709 117.56 117.282 117.907 116.08 119.165Z" fill="white"/>
<path d="M117.323 123.804L116.6 123.114L115.909 123.837L116.632 124.527L117.323 123.804ZM118.003 123.093L118.694 122.37L117.971 121.679L117.28 122.402L118.003 123.093ZM120.354 125.34L121.077 126.031L121.768 125.308L121.045 124.617L120.354 125.34ZM119.674 126.051L118.983 126.774L119.706 127.465L120.397 126.742L119.674 126.051ZM120.092 120.907L119.369 120.216L118.678 120.939L119.401 121.63L120.092 120.907ZM120.78 120.187L121.471 119.464L120.748 118.773L120.057 119.496L120.78 120.187ZM123.131 122.433L123.854 123.124L124.545 122.401L123.822 121.71L123.131 122.433ZM122.443 123.153L121.752 123.876L122.475 124.567L123.166 123.844L122.443 123.153ZM117.877 127.654L117.154 126.963L116.463 127.686L117.186 128.377L117.877 127.654ZM124.667 120.548L125.358 119.825L124.635 119.134L123.944 119.857L124.667 120.548ZM125.266 121.12L125.989 121.811L126.68 121.088L125.957 120.397L125.266 121.12ZM118.476 128.226L117.785 128.949L118.508 129.64L119.199 128.917L118.476 128.226ZM118.046 124.495L118.726 123.784L117.28 122.402L116.6 123.114L118.046 124.495ZM117.312 123.816L119.663 126.063L121.045 124.617L118.694 122.37L117.312 123.816ZM119.631 124.649L118.951 125.36L120.397 126.742L121.077 126.031L119.631 124.649ZM120.365 125.328L118.014 123.081L116.632 124.527L118.983 126.774L120.365 125.328ZM120.815 121.598L121.503 120.877L120.057 119.496L119.369 120.216L120.815 121.598ZM120.089 120.91L122.44 123.156L123.822 121.71L121.471 119.464L120.089 120.91ZM122.408 121.742L121.72 122.463L123.166 123.844L123.854 123.124L122.408 121.742ZM123.134 122.43L120.783 120.184L119.401 121.63L121.752 123.876L123.134 122.43ZM118.6 128.344L125.39 121.239L123.944 119.857L117.154 126.963L118.6 128.344ZM123.976 121.271L124.575 121.843L125.957 120.397L125.358 119.825L123.976 121.271ZM124.543 120.429L117.753 127.535L119.199 128.917L125.989 121.811L124.543 120.429ZM119.167 127.503L118.568 126.931L117.186 128.377L117.785 128.949L119.167 127.503ZM116.231 119.308C116.922 118.585 117.626 118.195 118.208 118.078C118.76 117.966 119.206 118.09 119.558 118.426L120.939 116.98C120.06 116.14 118.927 115.892 117.812 116.117C116.727 116.337 115.677 116.993 114.785 117.926L116.231 119.308ZM119.558 118.426C119.904 118.757 120.047 119.193 119.96 119.75C119.868 120.336 119.51 121.058 118.819 121.782L120.265 123.163C121.157 122.23 121.764 121.151 121.936 120.06C122.112 118.939 121.817 117.819 120.939 116.98L119.558 118.426ZM118.819 121.782C118.123 122.51 117.416 122.902 116.833 123.021C116.28 123.134 115.838 123.011 115.493 122.68L114.111 124.126C114.988 124.965 116.121 125.209 117.234 124.981C118.318 124.759 119.369 124.1 120.265 123.163L118.819 121.782ZM115.493 122.68C115.141 122.344 114.997 121.905 115.084 121.348C115.176 120.761 115.535 120.037 116.231 119.308L114.785 117.926C113.889 118.864 113.279 119.944 113.108 121.039C112.932 122.164 113.231 123.285 114.111 124.126L115.493 122.68ZM115.357 118.474C114.662 119.202 114.167 120.049 114.009 120.916C113.847 121.811 114.052 122.742 114.774 123.432L116.156 121.986C116.002 121.839 115.913 121.627 115.977 121.273C116.046 120.892 116.297 120.385 116.803 119.855L115.357 118.474ZM114.774 123.432C115.494 124.121 116.434 124.278 117.316 124.074C118.174 123.877 118.996 123.344 119.692 122.616L118.246 121.234C117.74 121.764 117.245 122.038 116.867 122.125C116.515 122.207 116.303 122.127 116.156 121.986L114.774 123.432ZM119.692 122.616C120.388 121.888 120.881 121.043 121.038 120.178C121.199 119.286 120.993 118.36 120.276 117.674L118.894 119.12C119.045 119.264 119.133 119.472 119.069 119.823C119.001 120.2 118.753 120.705 118.246 121.234L119.692 122.616ZM120.276 117.674C119.557 116.987 118.622 116.819 117.735 117.02C116.876 117.214 116.053 117.745 115.357 118.474L116.803 119.855C117.31 119.326 117.802 119.055 118.175 118.971C118.521 118.893 118.737 118.97 118.894 119.12L120.276 117.674Z" fill="#FFD700" mask="url(#path-13-outside-6_2_379)"/>
<mask id="path-15-outside-7_2_379" maskUnits="userSpaceOnUse" x="35" y="71" width="82" height="23" fill="black">
<rect fill="white" x="35" y="71" width="82" height="23"/>
<path d="M49.992 72.608H52.918V87.832H49.992V72.608ZM52.082 78.812H55.624V81.21H52.082V78.812ZM36.88 74.72H48.87V77.008H36.88V74.72ZM42.886 77.734C45.812 77.734 47.88 79.34 47.88 81.672C47.88 84.004 45.812 85.588 42.886 85.588C39.938 85.588 37.87 84.004 37.87 81.672C37.87 79.34 39.938 77.734 42.886 77.734ZM42.886 79.956C41.588 79.956 40.686 80.572 40.686 81.672C40.686 82.772 41.588 83.366 42.886 83.366C44.184 83.366 45.086 82.772 45.086 81.672C45.086 80.572 44.184 79.956 42.886 79.956ZM41.412 72.564H44.338V75.842H41.412V72.564ZM39.784 90.274H53.644V92.606H39.784V90.274ZM39.784 86.688H42.71V91.286H39.784V86.688ZM66.7543 77.998H71.9903V80.33H66.7543V77.998ZM71.2423 72.608H74.1683V87.634H71.2423V72.608ZM60.6823 90.274H74.6083V92.606H60.6823V90.274ZM60.6823 86.16H63.6303V91.616H60.6823V86.16ZM57.9763 73.928H60.8803V77.03H64.7523V73.928H67.6123V84.444H57.9763V73.928ZM60.8803 79.252V82.134H64.7523V79.252H60.8803ZM77.9506 74.258H87.6526V84.092H77.9506V74.258ZM84.7706 76.568H80.8326V81.782H84.7706V76.568ZM90.4686 72.586H93.3946V87.436H90.4686V72.586ZM92.5586 78.46H96.1006V80.858H92.5586V78.46ZM80.2606 90.274H94.1206V92.606H80.2606V90.274ZM80.2606 85.984H83.1866V91.44H80.2606V85.984ZM105.735 80.088H109.079V82.442H105.735V80.088ZM112.313 72.586H115.107V92.958H112.313V72.586ZM108.155 72.894H110.905V92.034H108.155V72.894ZM102.171 74.016C104.877 74.016 106.615 76.81 106.615 81.408C106.615 86.028 104.877 88.822 102.171 88.822C99.4868 88.822 97.7708 86.028 97.7708 81.408C97.7708 76.81 99.4868 74.016 102.171 74.016ZM102.171 76.766C101.071 76.766 100.433 78.306 100.433 81.408C100.433 84.532 101.071 86.05 102.171 86.05C103.315 86.05 103.953 84.532 103.953 81.408C103.953 78.306 103.315 76.766 102.171 76.766Z"/>
</mask>
<path d="M49.992 72.608H52.918V87.832H49.992V72.608ZM52.082 78.812H55.624V81.21H52.082V78.812ZM36.88 74.72H48.87V77.008H36.88V74.72ZM42.886 77.734C45.812 77.734 47.88 79.34 47.88 81.672C47.88 84.004 45.812 85.588 42.886 85.588C39.938 85.588 37.87 84.004 37.87 81.672C37.87 79.34 39.938 77.734 42.886 77.734ZM42.886 79.956C41.588 79.956 40.686 80.572 40.686 81.672C40.686 82.772 41.588 83.366 42.886 83.366C44.184 83.366 45.086 82.772 45.086 81.672C45.086 80.572 44.184 79.956 42.886 79.956ZM41.412 72.564H44.338V75.842H41.412V72.564ZM39.784 90.274H53.644V92.606H39.784V90.274ZM39.784 86.688H42.71V91.286H39.784V86.688ZM66.7543 77.998H71.9903V80.33H66.7543V77.998ZM71.2423 72.608H74.1683V87.634H71.2423V72.608ZM60.6823 90.274H74.6083V92.606H60.6823V90.274ZM60.6823 86.16H63.6303V91.616H60.6823V86.16ZM57.9763 73.928H60.8803V77.03H64.7523V73.928H67.6123V84.444H57.9763V73.928ZM60.8803 79.252V82.134H64.7523V79.252H60.8803ZM77.9506 74.258H87.6526V84.092H77.9506V74.258ZM84.7706 76.568H80.8326V81.782H84.7706V76.568ZM90.4686 72.586H93.3946V87.436H90.4686V72.586ZM92.5586 78.46H96.1006V80.858H92.5586V78.46ZM80.2606 90.274H94.1206V92.606H80.2606V90.274ZM80.2606 85.984H83.1866V91.44H80.2606V85.984ZM105.735 80.088H109.079V82.442H105.735V80.088ZM112.313 72.586H115.107V92.958H112.313V72.586ZM108.155 72.894H110.905V92.034H108.155V72.894ZM102.171 74.016C104.877 74.016 106.615 76.81 106.615 81.408C106.615 86.028 104.877 88.822 102.171 88.822C99.4868 88.822 97.7708 86.028 97.7708 81.408C97.7708 76.81 99.4868 74.016 102.171 74.016ZM102.171 76.766C101.071 76.766 100.433 78.306 100.433 81.408C100.433 84.532 101.071 86.05 102.171 86.05C103.315 86.05 103.953 84.532 103.953 81.408C103.953 78.306 103.315 76.766 102.171 76.766Z" fill="#FFD700"/>
<path d="M49.992 72.608V71.608H48.992V72.608H49.992ZM52.918 72.608H53.918V71.608H52.918V72.608ZM52.918 87.832V88.832H53.918V87.832H52.918ZM49.992 87.832H48.992V88.832H49.992V87.832ZM52.082 78.812V77.812H51.082V78.812H52.082ZM55.624 78.812H56.624V77.812H55.624V78.812ZM55.624 81.21V82.21H56.624V81.21H55.624ZM52.082 81.21H51.082V82.21H52.082V81.21ZM36.88 74.72V73.72H35.88V74.72H36.88ZM48.87 74.72H49.87V73.72H48.87V74.72ZM48.87 77.008V78.008H49.87V77.008H48.87ZM36.88 77.008H35.88V78.008H36.88V77.008ZM41.412 72.564V71.564H40.412V72.564H41.412ZM44.338 72.564H45.338V71.564H44.338V72.564ZM44.338 75.842V76.842H45.338V75.842H44.338ZM41.412 75.842H40.412V76.842H41.412V75.842ZM39.784 90.274V89.274H38.784V90.274H39.784ZM53.644 90.274H54.644V89.274H53.644V90.274ZM53.644 92.606V93.606H54.644V92.606H53.644ZM39.784 92.606H38.784V93.606H39.784V92.606ZM39.784 86.688V85.688H38.784V86.688H39.784ZM42.71 86.688H43.71V85.688H42.71V86.688ZM42.71 91.286V92.286H43.71V91.286H42.71ZM39.784 91.286H38.784V92.286H39.784V91.286ZM49.992 73.608H52.918V71.608H49.992V73.608ZM51.918 72.608V87.832H53.918V72.608H51.918ZM52.918 86.832H49.992V88.832H52.918V86.832ZM50.992 87.832V72.608H48.992V87.832H50.992ZM52.082 79.812H55.624V77.812H52.082V79.812ZM54.624 78.812V81.21H56.624V78.812H54.624ZM55.624 80.21H52.082V82.21H55.624V80.21ZM53.082 81.21V78.812H51.082V81.21H53.082ZM36.88 75.72H48.87V73.72H36.88V75.72ZM47.87 74.72V77.008H49.87V74.72H47.87ZM48.87 76.008H36.88V78.008H48.87V76.008ZM37.88 77.008V74.72H35.88V77.008H37.88ZM42.886 78.734C44.1741 78.734 45.1912 79.0878 45.8628 79.6151C46.5177 80.1292 46.88 80.83 46.88 81.672H48.88C48.88 80.182 48.2083 78.9138 47.0977 78.0419C46.0038 77.1832 44.5239 76.734 42.886 76.734V78.734ZM46.88 81.672C46.88 82.5129 46.5188 83.207 45.8658 83.7155C45.1949 84.238 44.1772 84.588 42.886 84.588V86.588C44.5208 86.588 46.0001 86.146 47.0947 85.2935C48.2072 84.427 48.88 83.1631 48.88 81.672H46.88ZM42.886 84.588C41.5822 84.588 40.5589 84.2372 39.8858 83.7146C39.2309 83.2062 38.87 82.5126 38.87 81.672H36.87C36.87 83.1634 37.5431 84.4278 38.6592 85.2944C39.7571 86.1468 41.2418 86.588 42.886 86.588V84.588ZM38.87 81.672C38.87 80.8303 39.232 80.13 39.8888 79.616C40.5626 79.0887 41.5853 78.734 42.886 78.734V76.734C41.2387 76.734 39.7534 77.1823 38.6562 78.041C37.542 78.913 36.87 80.1817 36.87 81.672H38.87ZM42.886 78.956C42.0938 78.956 41.3101 79.1422 40.6983 79.6022C40.0538 80.0867 39.686 80.8146 39.686 81.672H41.686C41.686 81.4294 41.7692 81.2993 41.9002 81.2008C42.0639 81.0778 42.3802 80.956 42.886 80.956V78.956ZM39.686 81.672C39.686 82.5316 40.056 83.2571 40.7057 83.7363C41.3188 84.1885 42.1011 84.366 42.886 84.366V82.366C42.3729 82.366 42.0552 82.2465 41.8928 82.1267C41.767 82.0339 41.686 81.9124 41.686 81.672H39.686ZM42.886 84.366C43.6709 84.366 44.4532 84.1885 45.0663 83.7363C45.716 83.2571 46.086 82.5316 46.086 81.672H44.086C44.086 81.9124 44.005 82.0339 43.8792 82.1267C43.7168 82.2465 43.3991 82.366 42.886 82.366V84.366ZM46.086 81.672C46.086 80.8146 45.7182 80.0867 45.0737 79.6022C44.4619 79.1422 43.6782 78.956 42.886 78.956V80.956C43.3918 80.956 43.7081 81.0778 43.8718 81.2008C44.0028 81.2993 44.086 81.4294 44.086 81.672H46.086ZM41.412 73.564H44.338V71.564H41.412V73.564ZM43.338 72.564V75.842H45.338V72.564H43.338ZM44.338 74.842H41.412V76.842H44.338V74.842ZM42.412 75.842V72.564H40.412V75.842H42.412ZM39.784 91.274H53.644V89.274H39.784V91.274ZM52.644 90.274V92.606H54.644V90.274H52.644ZM53.644 91.606H39.784V93.606H53.644V91.606ZM40.784 92.606V90.274H38.784V92.606H40.784ZM39.784 87.688H42.71V85.688H39.784V87.688ZM41.71 86.688V91.286H43.71V86.688H41.71ZM42.71 90.286H39.784V92.286H42.71V90.286ZM40.784 91.286V86.688H38.784V91.286H40.784ZM66.7543 77.998V76.998H65.7543V77.998H66.7543ZM71.9903 77.998H72.9903V76.998H71.9903V77.998ZM71.9903 80.33V81.33H72.9903V80.33H71.9903ZM66.7543 80.33H65.7543V81.33H66.7543V80.33ZM71.2423 72.608V71.608H70.2423V72.608H71.2423ZM74.1683 72.608H75.1683V71.608H74.1683V72.608ZM74.1683 87.634V88.634H75.1683V87.634H74.1683ZM71.2423 87.634H70.2423V88.634H71.2423V87.634ZM60.6823 90.274V89.274H59.6823V90.274H60.6823ZM74.6083 90.274H75.6083V89.274H74.6083V90.274ZM74.6083 92.606V93.606H75.6083V92.606H74.6083ZM60.6823 92.606H59.6823V93.606H60.6823V92.606ZM60.6823 86.16V85.16H59.6823V86.16H60.6823ZM63.6303 86.16H64.6303V85.16H63.6303V86.16ZM63.6303 91.616V92.616H64.6303V91.616H63.6303ZM60.6823 91.616H59.6823V92.616H60.6823V91.616ZM57.9763 73.928V72.928H56.9763V73.928H57.9763ZM60.8803 73.928H61.8803V72.928H60.8803V73.928ZM60.8803 77.03H59.8803V78.03H60.8803V77.03ZM64.7523 77.03V78.03H65.7523V77.03H64.7523ZM64.7523 73.928V72.928H63.7523V73.928H64.7523ZM67.6123 73.928H68.6123V72.928H67.6123V73.928ZM67.6123 84.444V85.444H68.6123V84.444H67.6123ZM57.9763 84.444H56.9763V85.444H57.9763V84.444ZM60.8803 79.252V78.252H59.8803V79.252H60.8803ZM60.8803 82.134H59.8803V83.134H60.8803V82.134ZM64.7523 82.134V83.134H65.7523V82.134H64.7523ZM64.7523 79.252H65.7523V78.252H64.7523V79.252ZM66.7543 78.998H71.9903V76.998H66.7543V78.998ZM70.9903 77.998V80.33H72.9903V77.998H70.9903ZM71.9903 79.33H66.7543V81.33H71.9903V79.33ZM67.7543 80.33V77.998H65.7543V80.33H67.7543ZM71.2423 73.608H74.1683V71.608H71.2423V73.608ZM73.1683 72.608V87.634H75.1683V72.608H73.1683ZM74.1683 86.634H71.2423V88.634H74.1683V86.634ZM72.2423 87.634V72.608H70.2423V87.634H72.2423ZM60.6823 91.274H74.6083V89.274H60.6823V91.274ZM73.6083 90.274V92.606H75.6083V90.274H73.6083ZM74.6083 91.606H60.6823V93.606H74.6083V91.606ZM61.6823 92.606V90.274H59.6823V92.606H61.6823ZM60.6823 87.16H63.6303V85.16H60.6823V87.16ZM62.6303 86.16V91.616H64.6303V86.16H62.6303ZM63.6303 90.616H60.6823V92.616H63.6303V90.616ZM61.6823 91.616V86.16H59.6823V91.616H61.6823ZM57.9763 74.928H60.8803V72.928H57.9763V74.928ZM59.8803 73.928V77.03H61.8803V73.928H59.8803ZM60.8803 78.03H64.7523V76.03H60.8803V78.03ZM65.7523 77.03V73.928H63.7523V77.03H65.7523ZM64.7523 74.928H67.6123V72.928H64.7523V74.928ZM66.6123 73.928V84.444H68.6123V73.928H66.6123ZM67.6123 83.444H57.9763V85.444H67.6123V83.444ZM58.9763 84.444V73.928H56.9763V84.444H58.9763ZM59.8803 79.252V82.134H61.8803V79.252H59.8803ZM60.8803 83.134H64.7523V81.134H60.8803V83.134ZM65.7523 82.134V79.252H63.7523V82.134H65.7523ZM64.7523 78.252H60.8803V80.252H64.7523V78.252ZM77.9506 74.258V73.258H76.9506V74.258H77.9506ZM87.6526 74.258H88.6526V73.258H87.6526V74.258ZM87.6526 84.092V85.092H88.6526V84.092H87.6526ZM77.9506 84.092H76.9506V85.092H77.9506V84.092ZM84.7706 76.568H85.7706V75.568H84.7706V76.568ZM80.8326 76.568V75.568H79.8326V76.568H80.8326ZM80.8326 81.782H79.8326V82.782H80.8326V81.782ZM84.7706 81.782V82.782H85.7706V81.782H84.7706ZM90.4686 72.586V71.586H89.4686V72.586H90.4686ZM93.3946 72.586H94.3946V71.586H93.3946V72.586ZM93.3946 87.436V88.436H94.3946V87.436H93.3946ZM90.4686 87.436H89.4686V88.436H90.4686V87.436ZM92.5586 78.46V77.46H91.5586V78.46H92.5586ZM96.1006 78.46H97.1006V77.46H96.1006V78.46ZM96.1006 80.858V81.858H97.1006V80.858H96.1006ZM92.5586 80.858H91.5586V81.858H92.5586V80.858ZM80.2606 90.274V89.274H79.2606V90.274H80.2606ZM94.1206 90.274H95.1206V89.274H94.1206V90.274ZM94.1206 92.606V93.606H95.1206V92.606H94.1206ZM80.2606 92.606H79.2606V93.606H80.2606V92.606ZM80.2606 85.984V84.984H79.2606V85.984H80.2606ZM83.1866 85.984H84.1866V84.984H83.1866V85.984ZM83.1866 91.44V92.44H84.1866V91.44H83.1866ZM80.2606 91.44H79.2606V92.44H80.2606V91.44ZM77.9506 75.258H87.6526V73.258H77.9506V75.258ZM86.6526 74.258V84.092H88.6526V74.258H86.6526ZM87.6526 83.092H77.9506V85.092H87.6526V83.092ZM78.9506 84.092V74.258H76.9506V84.092H78.9506ZM84.7706 75.568H80.8326V77.568H84.7706V75.568ZM79.8326 76.568V81.782H81.8326V76.568H79.8326ZM80.8326 82.782H84.7706V80.782H80.8326V82.782ZM85.7706 81.782V76.568H83.7706V81.782H85.7706ZM90.4686 73.586H93.3946V71.586H90.4686V73.586ZM92.3946 72.586V87.436H94.3946V72.586H92.3946ZM93.3946 86.436H90.4686V88.436H93.3946V86.436ZM91.4686 87.436V72.586H89.4686V87.436H91.4686ZM92.5586 79.46H96.1006V77.46H92.5586V79.46ZM95.1006 78.46V80.858H97.1006V78.46H95.1006ZM96.1006 79.858H92.5586V81.858H96.1006V79.858ZM93.5586 80.858V78.46H91.5586V80.858H93.5586ZM80.2606 91.274H94.1206V89.274H80.2606V91.274ZM93.1206 90.274V92.606H95.1206V90.274H93.1206ZM94.1206 91.606H80.2606V93.606H94.1206V91.606ZM81.2606 92.606V90.274H79.2606V92.606H81.2606ZM80.2606 86.984H83.1866V84.984H80.2606V86.984ZM82.1866 85.984V91.44H84.1866V85.984H82.1866ZM83.1866 90.44H80.2606V92.44H83.1866V90.44ZM81.2606 91.44V85.984H79.2606V91.44H81.2606ZM105.735 80.088V79.088H104.735V80.088H105.735ZM109.079 80.088H110.079V79.088H109.079V80.088ZM109.079 82.442V83.442H110.079V82.442H109.079ZM105.735 82.442H104.735V83.442H105.735V82.442ZM112.313 72.586V71.586H111.313V72.586H112.313ZM115.107 72.586H116.107V71.586H115.107V72.586ZM115.107 92.958V93.958H116.107V92.958H115.107ZM112.313 92.958H111.313V93.958H112.313V92.958ZM108.155 72.894V71.894H107.155V72.894H108.155ZM110.905 72.894H111.905V71.894H110.905V72.894ZM110.905 92.034V93.034H111.905V92.034H110.905ZM108.155 92.034H107.155V93.034H108.155V92.034ZM105.735 81.088H109.079V79.088H105.735V81.088ZM108.079 80.088V82.442H110.079V80.088H108.079ZM109.079 81.442H105.735V83.442H109.079V81.442ZM106.735 82.442V80.088H104.735V82.442H106.735ZM112.313 73.586H115.107V71.586H112.313V73.586ZM114.107 72.586V92.958H116.107V72.586H114.107ZM115.107 91.958H112.313V93.958H115.107V91.958ZM113.313 92.958V72.586H111.313V92.958H113.313ZM108.155 73.894H110.905V71.894H108.155V73.894ZM109.905 72.894V92.034H111.905V72.894H109.905ZM110.905 91.034H108.155V93.034H110.905V91.034ZM109.155 92.034V72.894H107.155V92.034H109.155ZM102.171 75.016C103.118 75.016 103.93 75.4805 104.553 76.5066C105.198 77.569 105.615 79.2156 105.615 81.408H107.615C107.615 79.0024 107.163 76.953 106.262 75.4689C105.34 73.9485 103.93 73.016 102.171 73.016V75.016ZM105.615 81.408C105.615 83.6121 105.197 85.2644 104.552 86.3295C103.929 87.3578 103.118 87.822 102.171 87.822V89.822C103.93 89.822 105.34 88.8892 106.263 87.3655C107.163 85.8786 107.615 83.8239 107.615 81.408H105.615ZM102.171 87.822C101.239 87.822 100.439 87.3624 99.8222 86.3335C99.1836 85.2677 98.7708 83.614 98.7708 81.408H96.7708C96.7708 83.822 97.2161 85.8753 98.1065 87.3615C99.0191 88.8846 100.418 89.822 102.171 89.822V87.822ZM98.7708 81.408C98.7708 79.2138 99.1833 77.5656 99.8217 76.5025C100.438 75.4759 101.239 75.016 102.171 75.016V73.016C100.419 73.016 99.0196 73.9531 98.107 75.473C97.2163 76.9564 96.7708 79.0042 96.7708 81.408H98.7708ZM102.171 75.766C101.017 75.766 100.319 76.6209 99.9559 77.565C99.5933 78.5085 99.4328 79.814 99.4328 81.408H101.433C101.433 79.9 101.591 78.8845 101.823 78.2825C101.937 77.9865 102.045 77.8516 102.104 77.7987C102.143 77.7633 102.154 77.766 102.171 77.766V75.766ZM99.4328 81.408C99.4328 83.0119 99.5931 84.3186 99.9563 85.2604C100.322 86.2082 101.022 87.05 102.171 87.05V85.05C102.15 85.05 102.138 85.0512 102.1 85.0174C102.043 84.9663 101.936 84.8343 101.822 84.5406C101.592 83.9424 101.433 82.9281 101.433 81.408H99.4328ZM102.171 87.05C103.324 87.05 104.043 86.2311 104.422 85.2662C104.793 84.3209 104.953 83.0108 104.953 81.408H102.953C102.953 82.9292 102.794 83.9401 102.56 84.5348C102.446 84.8255 102.337 84.9563 102.277 85.0081C102.236 85.0436 102.214 85.05 102.171 85.05V87.05ZM104.953 81.408C104.953 79.8152 104.793 78.5062 104.422 77.5592C104.046 76.5978 103.33 75.766 102.171 75.766V77.766C102.21 77.766 102.232 77.7711 102.274 77.8081C102.335 77.8616 102.445 77.9952 102.56 78.2883C102.794 78.8868 102.953 79.8988 102.953 81.408H104.953Z" fill="white" mask="url(#path-15-outside-7_2_379)"/>
</svg>
