<svg width="150" height="150" viewBox="0 0 150 150" fill="none" xmlns="http://www.w3.org/2000/svg">
<circle cx="75" cy="75" r="65" stroke="#C5C5C5" stroke-width="20"/>
<mask id="path-2-outside-1_2_382" maskUnits="userSpaceOnUse" x="21.0321" y="111.968" width="18.38" height="18.38" fill="black">
<rect fill="white" x="21.0321" y="111.968" width="18.38" height="18.38"/>
<path d="M31.331 117.055L31.8947 117.645L31.5564 117.969C30.2116 119.254 28.2729 119.413 26.5959 118.509L26.8282 117.624C28.2948 118.446 29.9602 118.365 30.9926 117.379L31.331 117.055ZM31.4553 117.185L32.0191 117.775L31.6807 118.099C30.7264 119.011 30.5971 120.595 31.3613 122.072L30.4654 122.281C29.6213 120.581 29.859 118.711 31.117 117.509L31.4553 117.185ZM30.0373 114.972L34.0333 119.154L33.452 119.709L29.456 115.527L30.0373 114.972ZM32.6497 115.795L33.3378 116.515L32.1492 117.651L31.4611 116.931L32.6497 115.795ZM35.8731 119.238L36.5612 119.958L31.9197 124.393L31.2316 123.673L35.8731 119.238ZM34.3925 121.649L35.6941 123.011L35.0868 123.591L33.7852 122.229L34.3925 121.649ZM26.8464 119.814L31.5553 124.742L28.8224 127.353L24.1135 122.425L26.8464 119.814ZM30.3112 124.586L26.9453 121.064L25.3663 122.573L28.7322 126.095L30.3112 124.586Z"/>
</mask>
<path d="M31.331 117.055L31.8947 117.645L31.5564 117.969C30.2116 119.254 28.2729 119.413 26.5959 118.509L26.8282 117.624C28.2948 118.446 29.9602 118.365 30.9926 117.379L31.331 117.055ZM31.4553 117.185L32.0191 117.775L31.6807 118.099C30.7264 119.011 30.5971 120.595 31.3613 122.072L30.4654 122.281C29.6213 120.581 29.859 118.711 31.117 117.509L31.4553 117.185ZM30.0373 114.972L34.0333 119.154L33.452 119.709L29.456 115.527L30.0373 114.972ZM32.6497 115.795L33.3378 116.515L32.1492 117.651L31.4611 116.931L32.6497 115.795ZM35.8731 119.238L36.5612 119.958L31.9197 124.393L31.2316 123.673L35.8731 119.238ZM34.3925 121.649L35.6941 123.011L35.0868 123.591L33.7852 122.229L34.3925 121.649ZM26.8464 119.814L31.5553 124.742L28.8224 127.353L24.1135 122.425L26.8464 119.814ZM30.3112 124.586L26.9453 121.064L25.3663 122.573L28.7322 126.095L30.3112 124.586Z" fill="white"/>
<path d="M31.331 117.055L32.054 116.364L31.3631 115.642L30.6401 116.332L31.331 117.055ZM31.8947 117.645L32.5856 118.368L33.3086 117.677L32.6177 116.954L31.8947 117.645ZM26.5959 118.509L25.6286 118.256L25.4291 119.017L26.1215 119.39L26.5959 118.509ZM26.8282 117.624L27.3174 116.751L26.1891 116.119L25.8609 117.37L26.8282 117.624ZM31.4553 117.185L32.1783 116.495L31.4875 115.772L30.7645 116.463L31.4553 117.185ZM32.0191 117.775L32.71 118.498L33.4329 117.808L32.7421 117.085L32.0191 117.775ZM31.3613 122.072L31.5883 123.046L32.8402 122.754L32.2495 121.613L31.3613 122.072ZM30.4654 122.281L29.5698 122.726L29.9217 123.434L30.6924 123.255L30.4654 122.281ZM30.0373 114.972L30.7603 114.281L30.0694 113.558L29.3464 114.249L30.0373 114.972ZM34.0333 119.154L34.7241 119.877L35.4471 119.186L34.7562 118.463L34.0333 119.154ZM33.452 119.709L32.729 120.4L33.4199 121.123L34.1429 120.432L33.452 119.709ZM29.456 115.527L28.7651 114.804L28.0422 115.495L28.733 116.218L29.456 115.527ZM32.6497 115.795L33.3727 115.104L32.6818 114.381L31.9588 115.072L32.6497 115.795ZM33.3378 116.515L34.0287 117.238L34.7517 116.547L34.0608 115.824L33.3378 116.515ZM32.1492 117.651L31.4262 118.342L32.1171 119.065L32.8401 118.374L32.1492 117.651ZM31.4611 116.931L30.7703 116.208L30.0473 116.899L30.7381 117.622L31.4611 116.931ZM35.8731 119.238L36.5961 118.547L35.9052 117.824L35.1823 118.515L35.8731 119.238ZM36.5612 119.958L37.2521 120.681L37.9751 119.99L37.2842 119.267L36.5612 119.958ZM31.9197 124.393L31.1967 125.084L31.8876 125.807L32.6106 125.116L31.9197 124.393ZM31.2316 123.673L30.5407 122.95L29.8177 123.641L30.5086 124.364L31.2316 123.673ZM34.3925 121.649L35.1155 120.958L34.4246 120.235L33.7016 120.926L34.3925 121.649ZM35.6941 123.011L36.3849 123.734L37.1079 123.043L36.4171 122.32L35.6941 123.011ZM35.0868 123.591L34.3638 124.282L35.0547 125.005L35.7776 124.314L35.0868 123.591ZM33.7852 122.229L33.0943 121.506L32.3713 122.197L33.0622 122.92L33.7852 122.229ZM26.8464 119.814L27.5693 119.123L26.8785 118.4L26.1555 119.091L26.8464 119.814ZM31.5553 124.742L32.2462 125.465L32.9692 124.774L32.2783 124.051L31.5553 124.742ZM28.8224 127.353L28.0995 128.044L28.7903 128.767L29.5133 128.076L28.8224 127.353ZM24.1135 122.425L23.4226 121.702L22.6996 122.393L23.3905 123.116L24.1135 122.425ZM30.3112 124.586L31.0021 125.309L31.725 124.618L31.0342 123.895L30.3112 124.586ZM26.9453 121.064L27.6683 120.373L26.9774 119.65L26.2544 120.341L26.9453 121.064ZM25.3663 122.573L24.6754 121.85L23.9524 122.54L24.6433 123.263L25.3663 122.573ZM28.7322 126.095L28.0092 126.786L28.7001 127.509L29.4231 126.818L28.7322 126.095ZM30.608 117.746L31.1718 118.336L32.6177 116.954L32.054 116.364L30.608 117.746ZM31.2039 116.922L30.8655 117.246L32.2472 118.692L32.5856 118.368L31.2039 116.922ZM30.8655 117.246C29.8725 118.195 28.4148 118.354 27.0703 117.629L26.1215 119.39C28.131 120.473 30.5508 120.313 32.2472 118.692L30.8655 117.246ZM27.5632 118.763L27.7955 117.877L25.8609 117.37L25.6286 118.256L27.5632 118.763ZM26.339 118.496C28.0832 119.474 30.2535 119.468 31.6835 118.102L30.3018 116.656C29.667 117.262 28.5065 117.418 27.3174 116.751L26.339 118.496ZM31.6835 118.102L32.0219 117.778L30.6401 116.332L30.3018 116.656L31.6835 118.102ZM30.7324 117.876L31.2961 118.466L32.7421 117.085L32.1783 116.495L30.7324 117.876ZM31.3282 117.052L30.9899 117.376L32.3716 118.822L32.71 118.498L31.3282 117.052ZM30.9899 117.376C29.6184 118.686 29.5734 120.793 30.4732 122.532L32.2495 121.613C31.6207 120.397 31.8344 119.335 32.3716 118.822L30.9899 117.376ZM31.1343 121.098L30.2384 121.307L30.6924 123.255L31.5883 123.046L31.1343 121.098ZM31.361 121.836C30.681 120.467 30.9135 119.086 31.8079 118.232L30.4261 116.786C28.8045 118.335 28.5616 120.696 29.5698 122.726L31.361 121.836ZM31.8079 118.232L32.1462 117.908L30.7645 116.463L30.4261 116.786L31.8079 118.232ZM29.3143 115.663L33.3103 119.845L34.7562 118.463L30.7603 114.281L29.3143 115.663ZM33.3424 118.431L32.7611 118.986L34.1429 120.432L34.7241 119.877L33.3424 118.431ZM34.175 119.018L30.179 114.837L28.733 116.218L32.729 120.4L34.175 119.018ZM30.1469 116.25L30.7282 115.695L29.3464 114.249L28.7651 114.804L30.1469 116.25ZM31.9267 116.486L32.6148 117.206L34.0608 115.824L33.3727 115.104L31.9267 116.486ZM32.6469 115.792L31.4584 116.928L32.8401 118.374L34.0287 117.238L32.6469 115.792ZM32.8722 116.96L32.1841 116.24L30.7381 117.622L31.4262 118.342L32.8722 116.96ZM32.152 117.654L33.3406 116.518L31.9588 115.072L30.7703 116.208L32.152 117.654ZM35.1501 119.929L35.8383 120.649L37.2842 119.267L36.5961 118.547L35.1501 119.929ZM35.8704 119.235L31.2288 123.67L32.6106 125.116L37.2521 120.681L35.8704 119.235ZM32.6427 123.703L31.9546 122.982L30.5086 124.364L31.1967 125.084L32.6427 123.703ZM31.9225 124.396L36.564 119.961L35.1823 118.515L30.5407 122.95L31.9225 124.396ZM33.6695 122.34L34.9711 123.702L36.4171 122.32L35.1155 120.958L33.6695 122.34ZM35.0032 122.288L34.3959 122.868L35.7776 124.314L36.3849 123.734L35.0032 122.288ZM35.8097 122.9L34.5082 121.538L33.0622 122.92L34.3638 124.282L35.8097 122.9ZM34.476 122.952L35.0833 122.372L33.7016 120.926L33.0943 121.506L34.476 122.952ZM26.1234 120.505L30.8323 125.432L32.2783 124.051L27.5693 119.123L26.1234 120.505ZM30.8644 124.019L28.1316 126.63L29.5133 128.076L32.2462 125.465L30.8644 124.019ZM29.5454 126.662L24.8365 121.734L23.3905 123.116L28.0995 128.044L29.5454 126.662ZM24.8044 123.148L27.5372 120.537L26.1555 119.091L23.4226 121.702L24.8044 123.148ZM31.0342 123.895L27.6683 120.373L26.2223 121.755L29.5882 125.277L31.0342 123.895ZM26.2544 120.341L24.6754 121.85L26.0572 123.296L27.6361 121.787L26.2544 120.341ZM24.6433 123.263L28.0092 126.786L29.4552 125.404L26.0893 121.882L24.6433 123.263ZM29.4231 126.818L31.0021 125.309L29.6203 123.863L28.0413 125.372L29.4231 126.818Z" fill="#C5C5C5" mask="url(#path-2-outside-1_2_382)"/>
<mask id="path-4-outside-2_2_382" maskUnits="userSpaceOnUse" x="41.7428" y="127.675" width="9.86049" height="12.9669" fill="black">
<rect fill="white" x="41.7428" y="127.675" width="9.86049" height="12.9669"/>
<path d="M49.468 130.273L46.5722 135.838L45.6891 135.394L48.4326 129.752L49.468 130.273ZM44.9967 137.869C44.8089 137.775 44.6816 137.626 44.6148 137.424C44.5479 137.222 44.5618 137.027 44.6563 136.839C44.7508 136.651 44.8991 136.524 45.1013 136.457C45.3035 136.39 45.4985 136.404 45.6863 136.499C45.874 136.593 46.0013 136.742 46.0682 136.944C46.135 137.146 46.1211 137.341 46.0266 137.529C45.9641 137.653 45.8749 137.751 45.7591 137.824C45.6458 137.897 45.5212 137.939 45.3852 137.95C45.2531 137.96 45.1236 137.933 44.9967 137.869Z"/>
</mask>
<path d="M49.468 130.273L46.5722 135.838L45.6891 135.394L48.4326 129.752L49.468 130.273ZM44.9967 137.869C44.8089 137.775 44.6816 137.626 44.6148 137.424C44.5479 137.222 44.5618 137.027 44.6563 136.839C44.7508 136.651 44.8991 136.524 45.1013 136.457C45.3035 136.39 45.4985 136.404 45.6863 136.499C45.874 136.593 46.0013 136.742 46.0682 136.944C46.135 137.146 46.1211 137.341 46.0266 137.529C45.9641 137.653 45.8749 137.751 45.7591 137.824C45.6458 137.897 45.5212 137.939 45.3852 137.95C45.2531 137.96 45.1236 137.933 44.9967 137.869Z" fill="white"/>
<path d="M49.468 130.273L50.3551 130.735L50.823 129.835L49.9175 129.38L49.468 130.273ZM46.5722 135.838L46.1227 136.731L47.0039 137.175L47.4593 136.3L46.5722 135.838ZM45.6891 135.394L44.7898 134.956L44.3584 135.843L45.2396 136.287L45.6891 135.394ZM48.4326 129.752L48.8821 128.859L47.9766 128.403L47.5333 129.315L48.4326 129.752ZM44.6148 137.424L45.5642 137.11L45.5642 137.11L44.6148 137.424ZM46.0682 136.944L47.0177 136.63L47.0177 136.63L46.0682 136.944ZM45.7591 137.824L45.2304 136.975L45.2228 136.979L45.2153 136.984L45.7591 137.824ZM45.3852 137.95L45.4594 138.948L45.4665 138.947L45.3852 137.95ZM48.5809 129.811L45.6851 135.376L47.4593 136.3L50.3551 130.735L48.5809 129.811ZM47.0217 134.945L46.1386 134.5L45.2396 136.287L46.1227 136.731L47.0217 134.945ZM46.5884 135.831L49.3319 130.189L47.5333 129.315L44.7898 134.956L46.5884 135.831ZM47.9831 130.645L49.0185 131.166L49.9175 129.38L48.8821 128.859L47.9831 130.645ZM45.4462 136.976C45.4614 136.984 45.4904 137.002 45.5192 137.036C45.5478 137.069 45.5604 137.099 45.5642 137.11L43.6653 137.738C43.8141 138.188 44.119 138.547 44.5472 138.762L45.4462 136.976ZM45.5642 137.11C45.5681 137.122 45.5756 137.153 45.5725 137.197C45.5694 137.241 45.5572 137.274 45.5496 137.289L43.763 136.39C43.5476 136.818 43.5164 137.288 43.6653 137.738L45.5642 137.11ZM45.5496 137.289C45.5419 137.304 45.5232 137.333 45.4897 137.362C45.4563 137.39 45.4267 137.403 45.4151 137.407L44.7875 135.508C44.3371 135.657 43.9784 135.962 43.763 136.39L45.5496 137.289ZM45.4151 137.407C45.4035 137.411 45.3722 137.418 45.3284 137.415C45.2843 137.412 45.2519 137.4 45.2367 137.392L46.1358 135.606C45.7077 135.39 45.2379 135.359 44.7875 135.508L45.4151 137.407ZM45.2367 137.392C45.2215 137.384 45.1925 137.366 45.1637 137.332C45.1351 137.299 45.1225 137.269 45.1187 137.258L47.0177 136.63C46.8688 136.18 46.5639 135.821 46.1358 135.606L45.2367 137.392ZM45.1187 137.258C45.1148 137.246 45.1073 137.215 45.1104 137.171C45.1135 137.127 45.1257 137.095 45.1334 137.079L46.9199 137.978C47.1353 137.55 47.1665 137.08 47.0177 136.63L45.1187 137.258ZM45.1334 137.079C45.1407 137.065 45.1533 137.045 45.1724 137.024C45.1917 137.002 45.2122 136.986 45.2304 136.975L46.2877 138.672C46.5628 138.501 46.7766 138.263 46.9199 137.978L45.1334 137.079ZM45.2153 136.984C45.2263 136.977 45.2415 136.969 45.2596 136.963C45.2777 136.957 45.2933 136.954 45.304 136.954L45.4665 138.947C45.7654 138.923 46.0493 138.827 46.3029 138.663L45.2153 136.984ZM45.3111 136.953C45.338 136.951 45.3663 136.953 45.3931 136.958C45.4196 136.964 45.4376 136.972 45.4462 136.976L44.5472 138.762C44.8239 138.902 45.1334 138.972 45.4594 138.947L45.3111 136.953Z" fill="#C5C5C5" mask="url(#path-4-outside-2_2_382)"/>
<mask id="path-6-outside-3_2_382" maskUnits="userSpaceOnUse" x="67.7742" y="133.884" width="14.2003" height="13.216" fill="black">
<rect fill="white" x="67.7742" y="133.884" width="14.2003" height="13.216"/>
<path d="M73.0555 135.948L73.8714 135.935L73.8849 136.799C73.9139 138.671 72.7018 140.214 70.8631 140.831L70.3589 140.046C71.995 139.529 73.0911 138.24 73.069 136.812L73.0555 135.948ZM73.2355 135.945L74.0514 135.932L74.0648 136.796C74.0848 138.08 75.1829 139.239 76.7858 139.67L76.3302 140.47C74.5098 139.946 73.2756 138.525 73.2489 136.809L73.2355 135.945ZM70.6281 135.746L76.4354 135.655L76.4481 136.471L70.6408 136.561L70.6281 135.746ZM77.8059 135.034L78.8018 135.018L78.8885 140.598L77.8926 140.613L77.8059 135.034ZM78.4064 137.377L80.4341 137.345L80.447 138.173L78.4192 138.205L78.4064 137.377ZM72.0093 141.221L78.8965 141.114L78.9373 143.741L73.0581 143.833L73.084 145.501L72.1001 145.516L72.0628 143.116L77.9541 143.025L77.9367 141.909L72.0215 142.001L72.0093 141.221ZM72.0936 145.096L79.3527 144.983L79.3646 145.751L72.1055 145.864L72.0936 145.096Z"/>
</mask>
<path d="M73.0555 135.948L73.8714 135.935L73.8849 136.799C73.9139 138.671 72.7018 140.214 70.8631 140.831L70.3589 140.046C71.995 139.529 73.0911 138.24 73.069 136.812L73.0555 135.948ZM73.2355 135.945L74.0514 135.932L74.0648 136.796C74.0848 138.08 75.1829 139.239 76.7858 139.67L76.3302 140.47C74.5098 139.946 73.2756 138.525 73.2489 136.809L73.2355 135.945ZM70.6281 135.746L76.4354 135.655L76.4481 136.471L70.6408 136.561L70.6281 135.746ZM77.8059 135.034L78.8018 135.018L78.8885 140.598L77.8926 140.613L77.8059 135.034ZM78.4064 137.377L80.4341 137.345L80.447 138.173L78.4192 138.205L78.4064 137.377ZM72.0093 141.221L78.8965 141.114L78.9373 143.741L73.0581 143.833L73.084 145.501L72.1001 145.516L72.0628 143.116L77.9541 143.025L77.9367 141.909L72.0215 142.001L72.0093 141.221ZM72.0936 145.096L79.3527 144.983L79.3646 145.751L72.1055 145.864L72.0936 145.096Z" fill="white"/>
<path d="M73.0555 135.948L73.04 134.948L72.0401 134.964L72.0556 135.963L73.0555 135.948ZM73.8714 135.935L74.8713 135.92L74.8558 134.92L73.8559 134.935L73.8714 135.935ZM70.8631 140.831L70.022 141.371L70.443 142.026L71.1811 141.779L70.8631 140.831ZM70.3589 140.046L70.0573 139.093L68.8105 139.487L69.5177 140.587L70.3589 140.046ZM73.2355 135.945L73.22 134.945L72.2201 134.961L72.2356 135.961L73.2355 135.945ZM74.0514 135.932L75.0513 135.917L75.0357 134.917L74.0359 134.932L74.0514 135.932ZM76.7858 139.67L77.6545 140.166L78.2958 139.041L77.0456 138.705L76.7858 139.67ZM76.3302 140.47L76.0537 141.431L76.8094 141.648L77.1989 140.965L76.3302 140.47ZM70.6281 135.746L70.6125 134.746L69.6127 134.761L69.6282 135.761L70.6281 135.746ZM76.4354 135.655L77.4353 135.64L77.4197 134.64L76.4198 134.655L76.4354 135.655ZM76.4481 136.471L76.4636 137.471L77.4635 137.456L77.4479 136.456L76.4481 136.471ZM70.6408 136.561L69.6409 136.577L69.6564 137.577L70.6563 137.561L70.6408 136.561ZM77.8059 135.034L77.7904 134.034L76.7905 134.05L76.806 135.049L77.8059 135.034ZM78.8018 135.018L79.8017 135.003L79.7861 134.003L78.7862 134.019L78.8018 135.018ZM78.8885 140.598L78.904 141.598L79.9039 141.582L79.8884 140.582L78.8885 140.598ZM77.8926 140.613L76.8927 140.629L76.9083 141.629L77.9081 141.613L77.8926 140.613ZM78.4064 137.377L78.3908 136.377L77.391 136.393L77.4065 137.392L78.4064 137.377ZM80.4341 137.345L81.434 137.33L81.4185 136.33L80.4186 136.345L80.4341 137.345ZM80.447 138.173L80.4625 139.173L81.4624 139.158L81.4469 138.158L80.447 138.173ZM78.4192 138.205L77.4194 138.22L77.4349 139.22L78.4348 139.205L78.4192 138.205ZM72.0093 141.221L71.9938 140.221L70.9939 140.236L71.0095 141.236L72.0093 141.221ZM78.8965 141.114L79.8964 141.098L79.8808 140.098L78.881 140.114L78.8965 141.114ZM78.9373 143.741L78.9529 144.741L79.9528 144.726L79.9372 143.726L78.9373 143.741ZM73.0581 143.833L73.0425 142.833L72.0426 142.848L72.0582 143.848L73.0581 143.833ZM73.084 145.501L73.0995 146.5L74.0994 146.485L74.0839 145.485L73.084 145.501ZM72.1001 145.516L71.1002 145.531L71.1158 146.531L72.1156 146.516L72.1001 145.516ZM72.0628 143.116L72.0473 142.116L71.0474 142.132L71.0629 143.132L72.0628 143.116ZM77.9541 143.025L77.9696 144.024L78.9695 144.009L78.954 143.009L77.9541 143.025ZM77.9367 141.909L78.9366 141.893L78.9211 140.893L77.9212 140.909L77.9367 141.909ZM72.0215 142.001L71.0216 142.016L71.0371 143.016L72.037 143.001L72.0215 142.001ZM72.0936 145.096L72.078 144.096L71.0781 144.112L71.0937 145.111L72.0936 145.096ZM79.3527 144.983L80.3526 144.968L80.337 143.968L79.3372 143.983L79.3527 144.983ZM79.3646 145.751L79.3802 146.751L80.38 146.735L80.3645 145.735L79.3646 145.751ZM72.1055 145.864L71.1056 145.879L71.1212 146.879L72.121 146.864L72.1055 145.864ZM73.0711 136.948L73.887 136.935L73.8559 134.935L73.04 134.948L73.0711 136.948ZM72.8715 135.951L72.885 136.815L74.8847 136.784L74.8713 135.92L72.8715 135.951ZM72.885 136.815C72.9064 138.197 72.025 139.386 70.5452 139.882L71.1811 141.779C73.3786 141.042 74.9214 139.145 74.8847 136.784L72.885 136.815ZM71.7043 140.29L71.2 139.505L69.5177 140.587L70.022 141.371L71.7043 140.29ZM70.6604 141C72.5931 140.388 74.0997 138.784 74.0688 136.796L72.0691 136.827C72.0826 137.695 71.397 138.669 70.0573 139.093L70.6604 141ZM74.0688 136.796L74.0554 135.932L72.0556 135.963L72.0691 136.827L74.0688 136.796ZM73.251 136.945L74.0669 136.932L74.0359 134.932L73.22 134.945L73.251 136.945ZM73.0515 135.948L73.065 136.812L75.0647 136.781L75.0513 135.917L73.0515 135.948ZM73.065 136.812C73.0942 138.692 74.6571 140.133 76.5261 140.636L77.0456 138.705C75.7087 138.345 75.0754 137.468 75.0647 136.781L73.065 136.812ZM75.9171 139.175L75.4615 139.974L77.1989 140.965L77.6545 140.166L75.9171 139.175ZM76.6067 139.508C75.1252 139.082 74.2674 137.988 74.2488 136.793L72.249 136.824C72.2838 139.062 73.8945 140.809 76.0537 141.431L76.6067 139.508ZM74.2488 136.793L74.2354 135.93L72.2356 135.961L72.249 136.824L74.2488 136.793ZM70.6436 136.745L76.4509 136.655L76.4198 134.655L70.6125 134.746L70.6436 136.745ZM75.4355 135.671L75.4482 136.487L77.4479 136.456L77.4353 135.64L75.4355 135.671ZM76.4325 135.471L70.6252 135.562L70.6563 137.561L76.4636 137.471L76.4325 135.471ZM71.6406 136.546L71.628 135.73L69.6282 135.761L69.6409 136.577L71.6406 136.546ZM77.8214 136.034L78.8173 136.018L78.7862 134.019L77.7904 134.034L77.8214 136.034ZM77.8019 135.034L77.8886 140.613L79.8884 140.582L79.8017 135.003L77.8019 135.034ZM78.8729 139.598L77.8771 139.613L77.9081 141.613L78.904 141.598L78.8729 139.598ZM78.8925 140.598L78.8058 135.018L76.806 135.049L76.8927 140.629L78.8925 140.598ZM78.4219 138.377L80.4497 138.345L80.4186 136.345L78.3908 136.377L78.4219 138.377ZM79.4343 137.361L79.4471 138.189L81.4469 138.158L81.434 137.33L79.4343 137.361ZM80.4315 137.173L78.4037 137.205L78.4348 139.205L80.4625 139.173L80.4315 137.173ZM79.4191 138.189L79.4063 137.361L77.4065 137.392L77.4194 138.22L79.4191 138.189ZM72.0249 142.221L78.912 142.114L78.881 140.114L71.9938 140.221L72.0249 142.221ZM77.8966 141.129L77.9375 143.757L79.9372 143.726L79.8964 141.098L77.8966 141.129ZM78.9218 142.742L73.0425 142.833L73.0736 144.833L78.9529 144.741L78.9218 142.742ZM72.0582 143.848L72.0841 145.516L74.0839 145.485L74.0579 143.817L72.0582 143.848ZM73.0684 144.501L72.0846 144.516L72.1156 146.516L73.0995 146.5L73.0684 144.501ZM73.1 145.5L73.0627 143.101L71.0629 143.132L71.1002 145.531L73.1 145.5ZM72.0783 144.116L77.9696 144.024L77.9385 142.025L72.0473 142.116L72.0783 144.116ZM78.954 143.009L78.9366 141.893L76.9369 141.924L76.9542 143.04L78.954 143.009ZM77.9212 140.909L72.0059 141.001L72.037 143.001L77.9523 142.909L77.9212 140.909ZM73.0213 141.985L73.0092 141.205L71.0095 141.236L71.0216 142.016L73.0213 141.985ZM72.1091 146.096L79.3682 145.983L79.3372 143.983L72.078 144.096L72.1091 146.096ZM78.3528 144.999L78.3647 145.767L80.3645 145.735L80.3526 144.968L78.3528 144.999ZM79.3491 144.751L72.09 144.864L72.121 146.864L79.3802 146.751L79.3491 144.751ZM73.1054 145.848L73.0934 145.08L71.0937 145.111L71.1056 145.879L73.1054 145.848Z" fill="#C5C5C5" mask="url(#path-6-outside-3_2_382)"/>
<mask id="path-8-outside-4_2_382" maskUnits="userSpaceOnUse" x="83.3363" y="129.919" width="17.3212" height="17.3212" fill="black">
<rect fill="white" x="83.3363" y="129.919" width="17.3212" height="17.3212"/>
<path d="M93.0437 132.141L93.9548 131.879L95.8069 138.326L94.8957 138.588L93.0437 132.141ZM92.1666 135.476L94.1388 134.91L94.3641 135.694L92.3919 136.261L92.1666 135.476ZM90.8723 132.927L91.7834 132.665L93.5493 138.812L92.6382 139.074L90.8723 132.927ZM85.458 135.593L90.7404 134.076L90.9591 134.837L85.6767 136.354L85.458 135.593ZM88.4785 136.111C89.7818 135.737 90.8951 136.179 91.2065 137.263C91.5179 138.347 90.8089 139.312 89.5056 139.687C88.1908 140.065 87.0775 139.623 86.7661 138.539C86.4547 137.454 87.1637 136.489 88.4785 136.111ZM88.6873 136.838C87.8684 137.073 87.434 137.648 87.6196 138.293C87.8051 138.939 88.4813 139.207 89.3002 138.972C90.1075 138.74 90.5386 138.154 90.353 137.508C90.1675 136.862 89.4946 136.606 88.6873 136.838ZM87.3099 133.825L88.2441 133.557L88.7013 135.148L87.7671 135.417L87.3099 133.825ZM89.8643 140.37L90.6024 140.158L90.7051 140.516C91.0828 141.831 90.5955 143.394 89.2403 144.37L88.5851 143.784C89.7625 142.972 90.2387 141.674 89.967 140.728L89.8643 140.37ZM90.0834 140.307L90.787 140.105L90.8897 140.463C91.1779 141.466 92.094 142.352 93.4755 142.467L93.2805 143.309C91.6336 143.183 90.5671 141.991 90.1861 140.665L90.0834 140.307ZM93.6934 139.27L94.397 139.068L94.4997 139.426C94.8376 140.602 94.5845 142.286 93.2805 143.309L92.6796 142.695C93.7383 141.817 94.0446 140.493 93.7961 139.628L93.6934 139.27ZM93.8895 139.214L94.6276 139.002L94.7303 139.36C95.0219 140.375 96.101 141.176 97.5351 141.213L97.2792 142.061C95.6077 141.979 94.3898 140.956 93.9922 139.572L93.8895 139.214Z"/>
</mask>
<path d="M93.0437 132.141L93.9548 131.879L95.8069 138.326L94.8957 138.588L93.0437 132.141ZM92.1666 135.476L94.1388 134.91L94.3641 135.694L92.3919 136.261L92.1666 135.476ZM90.8723 132.927L91.7834 132.665L93.5493 138.812L92.6382 139.074L90.8723 132.927ZM85.458 135.593L90.7404 134.076L90.9591 134.837L85.6767 136.354L85.458 135.593ZM88.4785 136.111C89.7818 135.737 90.8951 136.179 91.2065 137.263C91.5179 138.347 90.8089 139.312 89.5056 139.687C88.1908 140.065 87.0775 139.623 86.7661 138.539C86.4547 137.454 87.1637 136.489 88.4785 136.111ZM88.6873 136.838C87.8684 137.073 87.434 137.648 87.6196 138.293C87.8051 138.939 88.4813 139.207 89.3002 138.972C90.1075 138.74 90.5386 138.154 90.353 137.508C90.1675 136.862 89.4946 136.606 88.6873 136.838ZM87.3099 133.825L88.2441 133.557L88.7013 135.148L87.7671 135.417L87.3099 133.825ZM89.8643 140.37L90.6024 140.158L90.7051 140.516C91.0828 141.831 90.5955 143.394 89.2403 144.37L88.5851 143.784C89.7625 142.972 90.2387 141.674 89.967 140.728L89.8643 140.37ZM90.0834 140.307L90.787 140.105L90.8897 140.463C91.1779 141.466 92.094 142.352 93.4755 142.467L93.2805 143.309C91.6336 143.183 90.5671 141.991 90.1861 140.665L90.0834 140.307ZM93.6934 139.27L94.397 139.068L94.4997 139.426C94.8376 140.602 94.5845 142.286 93.2805 143.309L92.6796 142.695C93.7383 141.817 94.0446 140.493 93.7961 139.628L93.6934 139.27ZM93.8895 139.214L94.6276 139.002L94.7303 139.36C95.0219 140.375 96.101 141.176 97.5351 141.213L97.2792 142.061C95.6077 141.979 94.3898 140.956 93.9922 139.572L93.8895 139.214Z" fill="white"/>
<path d="M93.0437 132.141L92.7676 131.18L91.8064 131.456L92.0825 132.417L93.0437 132.141ZM93.9548 131.879L94.9159 131.603L94.6398 130.642L93.6787 130.918L93.9548 131.879ZM95.8069 138.326L96.083 139.287L97.0441 139.011L96.768 138.05L95.8069 138.326ZM94.8957 138.588L93.9346 138.864L94.2107 139.825L95.1718 139.549L94.8957 138.588ZM92.1666 135.476L91.8905 134.515L90.9294 134.791L91.2054 135.753L92.1666 135.476ZM94.1388 134.91L95.0999 134.634L94.8238 133.673L93.8627 133.949L94.1388 134.91ZM94.3641 135.694L94.6402 136.655L95.6013 136.379L95.3252 135.418L94.3641 135.694ZM92.3919 136.261L91.4307 136.537L91.7068 137.498L92.668 137.222L92.3919 136.261ZM90.8723 132.927L90.5962 131.966L89.6351 132.242L89.9112 133.203L90.8723 132.927ZM91.7834 132.665L92.7446 132.389L92.4685 131.428L91.5073 131.704L91.7834 132.665ZM93.5493 138.812L93.8254 139.774L94.7866 139.497L94.5105 138.536L93.5493 138.812ZM92.6382 139.074L91.6771 139.35L91.9532 140.311L92.9143 140.035L92.6382 139.074ZM85.458 135.593L85.182 134.632L84.2208 134.908L84.4969 135.869L85.458 135.593ZM90.7404 134.076L91.7015 133.8L91.4255 132.839L90.4643 133.115L90.7404 134.076ZM90.9591 134.837L91.2352 135.798L92.1963 135.522L91.9202 134.561L90.9591 134.837ZM85.6767 136.354L84.7156 136.631L84.9917 137.592L85.9528 137.316L85.6767 136.354ZM87.3099 133.825L87.0338 132.864L86.0727 133.14L86.3488 134.101L87.3099 133.825ZM88.2441 133.557L89.2052 133.281L88.9291 132.32L87.968 132.596L88.2441 133.557ZM88.7013 135.148L88.9774 136.11L89.9385 135.834L89.6625 134.872L88.7013 135.148ZM87.7671 135.417L86.806 135.693L87.0821 136.654L88.0432 136.378L87.7671 135.417ZM89.8643 140.37L89.5882 139.409L88.627 139.685L88.9031 140.646L89.8643 140.37ZM90.6024 140.158L91.5635 139.882L91.2874 138.921L90.3263 139.197L90.6024 140.158ZM89.2403 144.37L88.5738 145.116L89.1728 145.651L89.8248 145.182L89.2403 144.37ZM88.5851 143.784L88.0171 142.961L86.9715 143.683L87.9185 144.53L88.5851 143.784ZM90.0834 140.307L89.8073 139.346L88.8462 139.622L89.1223 140.584L90.0834 140.307ZM90.787 140.105L91.7481 139.829L91.472 138.868L90.5109 139.144L90.787 140.105ZM93.4755 142.467L94.4497 142.692L94.7102 141.566L93.5585 141.47L93.4755 142.467ZM93.2805 143.309L93.2041 144.306L94.061 144.372L94.2548 143.535L93.2805 143.309ZM93.6934 139.27L93.4173 138.309L92.4562 138.585L92.7323 139.546L93.6934 139.27ZM94.397 139.068L95.3581 138.792L95.082 137.831L94.1209 138.107L94.397 139.068ZM93.2805 143.309L92.5658 144.009L93.1929 144.65L93.8981 144.096L93.2805 143.309ZM92.6796 142.695L92.0411 141.926L91.2057 142.619L91.965 143.395L92.6796 142.695ZM93.8895 139.214L93.6134 138.253L92.6523 138.529L92.9283 139.49L93.8895 139.214ZM94.6276 139.002L95.5888 138.726L95.3127 137.765L94.3515 138.041L94.6276 139.002ZM97.5351 141.213L98.4925 141.502L98.8712 140.248L97.5613 140.214L97.5351 141.213ZM97.2792 142.061L97.2304 143.06L98.0107 143.098L98.2365 142.35L97.2792 142.061ZM93.3198 133.102L94.2309 132.84L93.6787 130.918L92.7676 131.18L93.3198 133.102ZM92.9937 132.155L94.8457 138.602L96.768 138.05L94.9159 131.603L92.9937 132.155ZM95.5308 137.365L94.6196 137.627L95.1718 139.549L96.083 139.287L95.5308 137.365ZM95.8568 138.312L94.0048 131.865L92.0825 132.417L93.9346 138.864L95.8568 138.312ZM92.4427 136.438L94.4149 135.871L93.8627 133.949L91.8905 134.515L92.4427 136.438ZM93.1777 135.186L93.403 135.97L95.3252 135.418L95.0999 134.634L93.1777 135.186ZM94.088 134.733L92.1158 135.3L92.668 137.222L94.6402 136.655L94.088 134.733ZM93.353 135.985L93.1277 135.2L91.2054 135.753L91.4307 136.537L93.353 135.985ZM91.1484 133.888L92.0595 133.626L91.5073 131.704L90.5962 131.966L91.1484 133.888ZM90.8223 132.941L92.5882 139.088L94.5105 138.536L92.7446 132.389L90.8223 132.941ZM93.2733 137.851L92.3621 138.113L92.9143 140.035L93.8254 139.774L93.2733 137.851ZM93.5993 138.798L91.8334 132.651L89.9112 133.203L91.6771 139.35L93.5993 138.798ZM85.7341 136.554L91.0165 135.037L90.4643 133.115L85.182 134.632L85.7341 136.554ZM89.7793 134.352L89.998 135.113L91.9202 134.561L91.7015 133.8L89.7793 134.352ZM90.683 133.876L85.4006 135.393L85.9528 137.316L91.2352 135.798L90.683 133.876ZM86.6378 136.078L86.4192 135.317L84.4969 135.869L84.7156 136.631L86.6378 136.078ZM88.7546 137.073C89.2418 136.933 89.6063 136.971 89.8313 137.064C90.0332 137.148 90.1746 137.293 90.2454 137.539L92.1676 136.987C91.927 136.149 91.3561 135.531 90.5976 135.217C89.8623 134.912 89.0185 134.916 88.2024 135.15L88.7546 137.073ZM90.2454 137.539C90.3162 137.786 90.2732 137.983 90.1466 138.162C90.0054 138.36 89.7167 138.586 89.2295 138.726L89.7817 140.648C90.5978 140.414 91.3152 139.969 91.7765 139.321C92.2524 138.651 92.4083 137.825 92.1676 136.987L90.2454 137.539ZM89.2295 138.726C88.7348 138.868 88.367 138.83 88.1411 138.737C87.9389 138.653 87.7979 138.509 87.7272 138.262L85.805 138.815C86.0457 139.653 86.6171 140.271 87.3781 140.585C88.1153 140.89 88.9616 140.884 89.7817 140.648L89.2295 138.726ZM87.7272 138.262C87.6565 138.016 87.6993 137.819 87.8264 137.641C87.9684 137.442 88.2599 137.215 88.7546 137.073L88.2024 135.15C87.3823 135.386 86.6619 135.83 86.1985 136.479C85.7202 137.149 85.5643 137.977 85.805 138.815L87.7272 138.262ZM88.4112 135.877C87.85 136.038 87.3242 136.342 86.9729 136.817C86.6038 137.316 86.4781 137.942 86.6584 138.569L88.5807 138.017C88.5746 137.996 88.5786 137.996 88.5763 138.008C88.5741 138.02 88.5706 138.02 88.5806 138.007C88.6048 137.974 88.7056 137.873 88.9633 137.799L88.4112 135.877ZM86.6584 138.569C86.8382 139.195 87.2753 139.66 87.8498 139.891C88.3995 140.112 89.0094 140.096 89.5763 139.933L89.0241 138.011C88.7721 138.083 88.6345 138.051 88.5949 138.035C88.5778 138.028 88.5785 138.025 88.5845 138.031C88.5909 138.038 88.5868 138.039 88.5807 138.017L86.6584 138.569ZM89.5763 139.933C90.1402 139.771 90.6625 139.46 91.0089 138.982C91.3704 138.482 91.4938 137.857 91.3142 137.232L89.3919 137.784C89.398 137.806 89.3946 137.808 89.3962 137.799C89.3976 137.791 89.3997 137.794 89.389 137.809C89.3644 137.843 89.2675 137.941 89.0241 138.011L89.5763 139.933ZM91.3142 137.232C91.134 136.605 90.696 136.142 90.1216 135.914C89.5741 135.697 88.9693 135.717 88.4112 135.877L88.9633 137.799C89.2126 137.728 89.3479 137.759 89.3851 137.774C89.4005 137.78 89.3979 137.782 89.3903 137.774C89.3822 137.765 89.3858 137.763 89.3919 137.784L91.3142 137.232ZM87.586 134.786L88.5202 134.518L87.968 132.596L87.0338 132.864L87.586 134.786ZM87.283 133.833L87.7402 135.425L89.6625 134.872L89.2052 133.281L87.283 133.833ZM88.4252 134.187L87.491 134.456L88.0432 136.378L88.9774 136.11L88.4252 134.187ZM88.7282 135.141L88.271 133.549L86.3488 134.101L86.806 135.693L88.7282 135.141ZM90.1404 141.331L90.8785 141.119L90.3263 139.197L89.5882 139.409L90.1404 141.331ZM89.6413 140.434L89.744 140.792L91.6663 140.24L91.5635 139.882L89.6413 140.434ZM89.744 140.792C89.9996 141.682 89.6851 142.817 88.6559 143.559L89.8248 145.182C91.5059 143.971 92.166 141.98 91.6663 140.24L89.744 140.792ZM89.9069 143.625L89.2517 143.039L87.9185 144.53L88.5738 145.116L89.9069 143.625ZM89.1531 144.607C90.5998 143.609 91.3443 141.901 90.9281 140.452L89.0058 141.004C89.133 141.447 88.9252 142.334 88.0171 142.961L89.1531 144.607ZM90.9281 140.452L90.8254 140.094L88.9031 140.646L89.0058 141.004L90.9281 140.452ZM90.3595 141.269L91.063 141.066L90.5109 139.144L89.8073 139.346L90.3595 141.269ZM89.8258 140.381L89.9285 140.739L91.8508 140.187L91.7481 139.829L89.8258 140.381ZM89.9285 140.739C90.3302 142.137 91.5926 143.313 93.3925 143.463L93.5585 141.47C92.5954 141.39 92.0256 140.795 91.8508 140.187L89.9285 140.739ZM92.5012 142.241L92.3062 143.084L94.2548 143.535L94.4497 142.692L92.5012 142.241ZM93.3569 142.312C92.2211 142.225 91.4415 141.413 91.1472 140.389L89.225 140.941C89.6928 142.57 91.0462 144.141 93.2041 144.306L93.3569 142.312ZM91.1472 140.389L91.0445 140.031L89.1223 140.584L89.225 140.941L91.1472 140.389ZM93.9695 140.232L94.6731 140.029L94.1209 138.107L93.4173 138.309L93.9695 140.232ZM93.4358 139.344L93.5385 139.702L95.4608 139.15L95.3581 138.792L93.4358 139.344ZM93.5385 139.702C93.7891 140.574 93.5812 141.802 92.663 142.523L93.8981 144.096C95.5878 142.769 95.8861 140.63 95.4608 139.15L93.5385 139.702ZM93.9952 142.61L93.3943 141.996L91.965 143.395L92.5658 144.009L93.9952 142.61ZM93.3182 143.465C94.665 142.347 95.1215 140.62 94.7572 139.352L92.835 139.904C92.9677 140.366 92.8116 141.287 92.0411 141.926L93.3182 143.465ZM94.7572 139.352L94.6545 138.994L92.7323 139.546L92.835 139.904L94.7572 139.352ZM94.1656 140.175L94.9037 139.963L94.3515 138.041L93.6134 138.253L94.1656 140.175ZM93.6665 139.278L93.7692 139.636L95.6915 139.083L95.5888 138.726L93.6665 139.278ZM93.7692 139.636C94.2071 141.16 95.7402 142.167 97.509 142.213L97.5613 140.214C96.4619 140.185 95.8367 139.589 95.6915 139.083L93.7692 139.636ZM96.5778 140.924L96.3219 141.772L98.2365 142.35L98.4925 141.502L96.5778 140.924ZM97.328 141.062C96.0713 141.001 95.2293 140.256 94.9533 139.296L93.0311 139.848C93.5502 141.655 95.1441 142.958 97.2304 143.06L97.328 141.062ZM94.9533 139.296L94.8506 138.938L92.9283 139.49L93.0311 139.848L94.9533 139.296Z" fill="#C5C5C5" mask="url(#path-8-outside-4_2_382)"/>
<mask id="path-10-outside-5_2_382" maskUnits="userSpaceOnUse" x="97.3144" y="123.481" width="16.9957" height="17.3339" fill="black">
<rect fill="white" x="97.3144" y="123.481" width="16.9957" height="17.3339"/>
<path d="M102.15 129.006C103.495 128.193 105.224 128.872 106.416 130.843C107.615 132.825 107.413 134.672 106.068 135.485C104.713 136.305 102.994 135.62 101.795 133.638C100.603 131.666 100.794 129.826 102.15 129.006ZM102.615 129.776C101.722 130.317 101.7 131.648 102.607 133.147C103.52 134.657 104.722 135.276 105.615 134.736C106.508 134.196 106.518 132.843 105.605 131.334C104.698 129.835 103.509 129.236 102.615 129.776ZM106.038 125.673L106.88 125.164L112.506 134.467L111.664 134.976L106.038 125.673ZM105.891 130.6L108.55 128.992L108.972 129.69L106.313 131.299L105.891 130.6Z"/>
</mask>
<path d="M102.15 129.006C103.495 128.193 105.224 128.872 106.416 130.843C107.615 132.825 107.413 134.672 106.068 135.485C104.713 136.305 102.994 135.62 101.795 133.638C100.603 131.666 100.794 129.826 102.15 129.006ZM102.615 129.776C101.722 130.317 101.7 131.648 102.607 133.147C103.52 134.657 104.722 135.276 105.615 134.736C106.508 134.196 106.518 132.843 105.605 131.334C104.698 129.835 103.509 129.236 102.615 129.776ZM106.038 125.673L106.88 125.164L112.506 134.467L111.664 134.976L106.038 125.673ZM105.891 130.6L108.55 128.992L108.972 129.69L106.313 131.299L105.891 130.6Z" fill="white"/>
<path d="M106.038 125.673L105.52 124.817L104.665 125.335L105.182 126.19L106.038 125.673ZM106.88 125.164L107.736 124.646L107.218 123.791L106.362 124.308L106.88 125.164ZM112.506 134.467L113.024 135.322L113.879 134.805L113.362 133.949L112.506 134.467ZM111.664 134.976L110.808 135.493L111.326 136.349L112.182 135.832L111.664 134.976ZM105.891 130.6L105.373 129.745L104.517 130.262L105.035 131.118L105.891 130.6ZM108.55 128.992L109.406 128.474L108.888 127.619L108.033 128.136L108.55 128.992ZM108.972 129.69L109.49 130.546L110.345 130.028L109.828 129.173L108.972 129.69ZM106.313 131.299L105.457 131.816L105.975 132.672L106.83 132.154L106.313 131.299ZM102.667 129.862C103.042 129.635 103.471 129.6 103.953 129.802C104.459 130.015 105.043 130.505 105.56 131.361L107.272 130.326C106.597 129.21 105.72 128.375 104.727 127.958C103.71 127.532 102.603 127.563 101.632 128.15L102.667 129.862ZM105.56 131.361C106.082 132.223 106.246 132.97 106.2 133.518C106.155 134.04 105.925 134.403 105.551 134.63L106.586 136.341C107.556 135.754 108.099 134.787 108.192 133.687C108.283 132.612 107.949 131.446 107.272 130.326L105.56 131.361ZM105.551 134.63C105.17 134.86 104.741 134.894 104.262 134.691C103.758 134.478 103.173 133.984 102.651 133.12L100.94 134.155C101.616 135.273 102.49 136.113 103.484 136.533C104.503 136.964 105.611 136.93 106.586 136.341L105.551 134.63ZM102.651 133.12C102.132 132.263 101.968 131.519 102.014 130.974C102.057 130.457 102.286 130.092 102.667 129.862L101.632 128.15C100.658 128.74 100.113 129.705 100.021 130.806C99.9303 131.879 100.266 133.041 100.94 134.155L102.651 133.12ZM102.098 128.921C101.294 129.407 100.942 130.237 100.936 131.096C100.931 131.925 101.237 132.814 101.751 133.665L103.462 132.63C103.07 131.981 102.934 131.455 102.936 131.109C102.938 130.792 103.044 130.686 103.133 130.632L102.098 128.921ZM101.751 133.665C102.268 134.52 102.916 135.209 103.654 135.596C104.415 135.995 105.32 136.083 106.132 135.591L105.097 133.88C105.016 133.929 104.874 133.977 104.583 133.825C104.267 133.659 103.858 133.284 103.462 132.63L101.751 133.665ZM106.132 135.591C106.945 135.1 107.287 134.258 107.287 133.398C107.287 132.566 106.978 131.671 106.461 130.816L104.749 131.851C105.145 132.506 105.287 133.042 105.287 133.398C105.287 133.727 105.178 133.831 105.097 133.88L106.132 135.591ZM106.461 130.816C105.946 129.966 105.301 129.282 104.564 128.902C103.8 128.508 102.902 128.434 102.098 128.921L103.133 130.632C103.222 130.578 103.365 130.534 103.647 130.679C103.954 130.838 104.357 131.203 104.749 131.851L106.461 130.816ZM106.555 126.529L107.397 126.019L106.362 124.308L105.52 124.817L106.555 126.529ZM106.024 125.681L111.65 134.984L113.362 133.949L107.736 124.646L106.024 125.681ZM111.989 133.611L111.147 134.12L112.182 135.832L113.024 135.322L111.989 133.611ZM112.52 134.459L106.894 125.155L105.182 126.19L110.808 135.493L112.52 134.459ZM106.408 131.456L109.068 129.848L108.033 128.136L105.373 129.745L106.408 131.456ZM107.694 129.509L108.117 130.208L109.828 129.173L109.406 128.474L107.694 129.509ZM108.455 128.835L105.795 130.443L106.83 132.154L109.49 130.546L108.455 128.835ZM107.169 130.781L106.746 130.083L105.035 131.118L105.457 131.816L107.169 130.781Z" fill="#C5C5C5" mask="url(#path-10-outside-5_2_382)"/>
<mask id="path-12-outside-6_2_382" maskUnits="userSpaceOnUse" x="109.739" y="112.691" width="17.6571" height="17.6892" fill="black">
<rect fill="white" x="109.739" y="112.691" width="17.6571" height="17.6892"/>
<path d="M117.323 123.804L118.003 123.093L120.354 125.34L119.674 126.051L117.323 123.804ZM120.092 120.907L120.78 120.187L123.131 122.433L122.443 123.153L120.092 120.907ZM117.877 127.654L124.667 120.548L125.266 121.12L118.476 128.226L117.877 127.654ZM115.508 118.617C117.091 116.96 119.017 116.526 120.248 117.703C121.472 118.872 121.125 120.815 119.542 122.472C117.95 124.138 116.025 124.572 114.802 123.403C113.57 122.226 113.916 120.283 115.508 118.617ZM116.08 119.165C114.878 120.423 114.589 121.872 115.465 122.709C116.332 123.538 117.767 123.183 118.969 121.925C120.172 120.667 120.453 119.226 119.585 118.397C118.709 117.56 117.282 117.907 116.08 119.165Z"/>
</mask>
<path d="M117.323 123.804L118.003 123.093L120.354 125.34L119.674 126.051L117.323 123.804ZM120.092 120.907L120.78 120.187L123.131 122.433L122.443 123.153L120.092 120.907ZM117.877 127.654L124.667 120.548L125.266 121.12L118.476 128.226L117.877 127.654ZM115.508 118.617C117.091 116.96 119.017 116.526 120.248 117.703C121.472 118.872 121.125 120.815 119.542 122.472C117.95 124.138 116.025 124.572 114.802 123.403C113.57 122.226 113.916 120.283 115.508 118.617ZM116.08 119.165C114.878 120.423 114.589 121.872 115.465 122.709C116.332 123.538 117.767 123.183 118.969 121.925C120.172 120.667 120.453 119.226 119.585 118.397C118.709 117.56 117.282 117.907 116.08 119.165Z" fill="white"/>
<path d="M117.323 123.804L116.6 123.114L115.909 123.837L116.632 124.527L117.323 123.804ZM118.003 123.093L118.694 122.37L117.971 121.679L117.28 122.402L118.003 123.093ZM120.354 125.34L121.077 126.031L121.768 125.308L121.045 124.617L120.354 125.34ZM119.674 126.051L118.983 126.774L119.706 127.465L120.397 126.742L119.674 126.051ZM120.092 120.907L119.369 120.216L118.678 120.939L119.401 121.63L120.092 120.907ZM120.78 120.187L121.471 119.464L120.748 118.773L120.057 119.496L120.78 120.187ZM123.131 122.433L123.854 123.124L124.545 122.401L123.822 121.71L123.131 122.433ZM122.443 123.153L121.752 123.876L122.475 124.567L123.166 123.844L122.443 123.153ZM117.877 127.654L117.154 126.963L116.463 127.686L117.186 128.377L117.877 127.654ZM124.667 120.548L125.358 119.825L124.635 119.134L123.944 119.857L124.667 120.548ZM125.266 121.12L125.989 121.811L126.68 121.088L125.957 120.397L125.266 121.12ZM118.476 128.226L117.785 128.949L118.508 129.64L119.199 128.917L118.476 128.226ZM118.046 124.495L118.726 123.784L117.28 122.402L116.6 123.114L118.046 124.495ZM117.312 123.816L119.663 126.063L121.045 124.617L118.694 122.37L117.312 123.816ZM119.631 124.649L118.951 125.36L120.397 126.742L121.077 126.031L119.631 124.649ZM120.365 125.328L118.014 123.081L116.632 124.527L118.983 126.774L120.365 125.328ZM120.815 121.598L121.503 120.877L120.057 119.496L119.369 120.216L120.815 121.598ZM120.089 120.91L122.44 123.156L123.822 121.71L121.471 119.464L120.089 120.91ZM122.408 121.742L121.72 122.463L123.166 123.844L123.854 123.124L122.408 121.742ZM123.134 122.43L120.783 120.184L119.401 121.63L121.752 123.876L123.134 122.43ZM118.6 128.344L125.39 121.239L123.944 119.857L117.154 126.963L118.6 128.344ZM123.976 121.271L124.575 121.843L125.957 120.397L125.358 119.825L123.976 121.271ZM124.543 120.429L117.753 127.535L119.199 128.917L125.989 121.811L124.543 120.429ZM119.167 127.503L118.568 126.931L117.186 128.377L117.785 128.949L119.167 127.503ZM116.231 119.308C116.922 118.585 117.626 118.195 118.208 118.078C118.76 117.966 119.205 118.09 119.558 118.426L120.939 116.98C120.059 116.14 118.927 115.892 117.812 116.117C116.727 116.337 115.677 116.993 114.785 117.926L116.231 119.308ZM119.558 118.426C119.904 118.757 120.047 119.193 119.96 119.75C119.868 120.336 119.51 121.058 118.819 121.782L120.265 123.163C121.157 122.23 121.764 121.151 121.936 120.06C122.112 118.939 121.817 117.819 120.939 116.98L119.558 118.426ZM118.819 121.782C118.123 122.51 117.416 122.902 116.833 123.021C116.28 123.134 115.838 123.011 115.493 122.68L114.111 124.126C114.988 124.965 116.121 125.209 117.234 124.981C118.318 124.759 119.369 124.1 120.265 123.163L118.819 121.782ZM115.493 122.68C115.141 122.344 114.997 121.905 115.084 121.348C115.176 120.761 115.535 120.037 116.231 119.308L114.785 117.926C113.889 118.864 113.279 119.944 113.108 121.039C112.932 122.164 113.231 123.285 114.111 124.126L115.493 122.68ZM115.357 118.474C114.662 119.202 114.167 120.049 114.009 120.916C113.847 121.811 114.052 122.742 114.774 123.432L116.156 121.986C116.001 121.839 115.913 121.627 115.977 121.273C116.046 120.892 116.297 120.385 116.803 119.855L115.357 118.474ZM114.774 123.432C115.494 124.121 116.434 124.278 117.316 124.074C118.174 123.877 118.996 123.344 119.692 122.616L118.246 121.234C117.74 121.764 117.245 122.038 116.867 122.125C116.515 122.207 116.303 122.127 116.156 121.986L114.774 123.432ZM119.692 122.616C120.388 121.888 120.881 121.043 121.038 120.178C121.199 119.286 120.993 118.36 120.276 117.674L118.894 119.12C119.045 119.264 119.133 119.472 119.069 119.823C119.001 120.2 118.753 120.705 118.246 121.234L119.692 122.616ZM120.276 117.674C119.557 116.987 118.622 116.819 117.735 117.02C116.876 117.214 116.053 117.745 115.357 118.474L116.803 119.855C117.31 119.326 117.802 119.055 118.175 118.971C118.521 118.893 118.737 118.97 118.894 119.12L120.276 117.674Z" fill="#C5C5C5" mask="url(#path-12-outside-6_2_382)"/>
<mask id="path-14-outside-7_2_382" maskUnits="userSpaceOnUse" x="35" y="71" width="82" height="24" fill="black">
<rect fill="white" x="35" y="71" width="82" height="24"/>
<path d="M38.772 74.302H51.686V76.656H38.772V74.302ZM36.902 88.14H55.316V90.516H36.902V88.14ZM43.414 81.144H46.34V89.306H43.414V81.144ZM50.63 74.302H53.556V76.26C53.556 78.812 53.556 81.672 52.742 86.028L49.816 85.698C50.63 81.65 50.63 78.702 50.63 76.26V74.302ZM58.1523 74.192H68.0303V84.048H58.1523V74.192ZM65.1703 76.502H61.0123V81.738H65.1703V76.502ZM71.1103 72.608H74.0583V87.084H71.1103V72.608ZM60.4843 90.186H74.5643V92.54H60.4843V90.186ZM60.4843 85.764H63.4103V91.22H60.4843V85.764ZM78.7426 80.836H89.3906V83.168H78.7426V80.836ZM82.5706 82.728H85.5186V87.018H82.5706V82.728ZM78.7426 74.39H89.2586V76.7H81.6686V81.562H78.7426V74.39ZM91.4366 72.564H94.3626V93.002H91.4366V72.564ZM77.7966 88.976L77.4446 86.622C81.3386 86.622 86.1346 86.6 90.3146 86.138L90.5346 88.272C86.1346 88.954 81.5806 88.998 77.7966 88.976ZM98.3648 74.522H101.269V86.358H98.3648V74.522ZM98.3648 85.61H99.7948C102.259 85.61 104.305 85.522 106.659 85.038L107.033 87.48C104.591 88.008 102.391 88.096 99.7948 88.096H98.3648V85.61ZM112.357 72.586H115.151V92.958H112.357V72.586ZM104.041 79.01H108.683V81.364H104.041V79.01ZM108.045 72.938H110.773V92.056H108.045V72.938Z"/>
</mask>
<path d="M38.772 74.302H51.686V76.656H38.772V74.302ZM36.902 88.14H55.316V90.516H36.902V88.14ZM43.414 81.144H46.34V89.306H43.414V81.144ZM50.63 74.302H53.556V76.26C53.556 78.812 53.556 81.672 52.742 86.028L49.816 85.698C50.63 81.65 50.63 78.702 50.63 76.26V74.302ZM58.1523 74.192H68.0303V84.048H58.1523V74.192ZM65.1703 76.502H61.0123V81.738H65.1703V76.502ZM71.1103 72.608H74.0583V87.084H71.1103V72.608ZM60.4843 90.186H74.5643V92.54H60.4843V90.186ZM60.4843 85.764H63.4103V91.22H60.4843V85.764ZM78.7426 80.836H89.3906V83.168H78.7426V80.836ZM82.5706 82.728H85.5186V87.018H82.5706V82.728ZM78.7426 74.39H89.2586V76.7H81.6686V81.562H78.7426V74.39ZM91.4366 72.564H94.3626V93.002H91.4366V72.564ZM77.7966 88.976L77.4446 86.622C81.3386 86.622 86.1346 86.6 90.3146 86.138L90.5346 88.272C86.1346 88.954 81.5806 88.998 77.7966 88.976ZM98.3648 74.522H101.269V86.358H98.3648V74.522ZM98.3648 85.61H99.7948C102.259 85.61 104.305 85.522 106.659 85.038L107.033 87.48C104.591 88.008 102.391 88.096 99.7948 88.096H98.3648V85.61ZM112.357 72.586H115.151V92.958H112.357V72.586ZM104.041 79.01H108.683V81.364H104.041V79.01ZM108.045 72.938H110.773V92.056H108.045V72.938Z" fill="#C5C5C5"/>
<path d="M38.772 74.302V73.302H37.772V74.302H38.772ZM51.686 74.302H52.686V73.302H51.686V74.302ZM51.686 76.656V77.656H52.686V76.656H51.686ZM38.772 76.656H37.772V77.656H38.772V76.656ZM36.902 88.14V87.14H35.902V88.14H36.902ZM55.316 88.14H56.316V87.14H55.316V88.14ZM55.316 90.516V91.516H56.316V90.516H55.316ZM36.902 90.516H35.902V91.516H36.902V90.516ZM43.414 81.144V80.144H42.414V81.144H43.414ZM46.34 81.144H47.34V80.144H46.34V81.144ZM46.34 89.306V90.306H47.34V89.306H46.34ZM43.414 89.306H42.414V90.306H43.414V89.306ZM50.63 74.302V73.302H49.63V74.302H50.63ZM53.556 74.302H54.556V73.302H53.556V74.302ZM52.742 86.028L52.6299 87.0217L53.5541 87.1259L53.725 86.2117L52.742 86.028ZM49.816 85.698L48.8356 85.5009L48.6207 86.5695L49.7039 86.6917L49.816 85.698ZM38.772 75.302H51.686V73.302H38.772V75.302ZM50.686 74.302V76.656H52.686V74.302H50.686ZM51.686 75.656H38.772V77.656H51.686V75.656ZM39.772 76.656V74.302H37.772V76.656H39.772ZM36.902 89.14H55.316V87.14H36.902V89.14ZM54.316 88.14V90.516H56.316V88.14H54.316ZM55.316 89.516H36.902V91.516H55.316V89.516ZM37.902 90.516V88.14H35.902V90.516H37.902ZM43.414 82.144H46.34V80.144H43.414V82.144ZM45.34 81.144V89.306H47.34V81.144H45.34ZM46.34 88.306H43.414V90.306H46.34V88.306ZM44.414 89.306V81.144H42.414V89.306H44.414ZM50.63 75.302H53.556V73.302H50.63V75.302ZM52.556 74.302V76.26H54.556V74.302H52.556ZM52.556 76.26C52.556 78.7935 52.5559 81.5802 51.759 85.8443L53.725 86.2117C54.5561 81.7638 54.556 78.8305 54.556 76.26H52.556ZM52.8541 85.0343L49.9281 84.7043L49.7039 86.6917L52.6299 87.0217L52.8541 85.0343ZM50.7964 85.8951C51.6308 81.7456 51.63 78.7156 51.63 76.26H49.63C49.63 78.6884 49.6292 81.5544 48.8356 85.5009L50.7964 85.8951ZM51.63 76.26V74.302H49.63V76.26H51.63ZM58.1523 74.192V73.192H57.1523V74.192H58.1523ZM68.0303 74.192H69.0303V73.192H68.0303V74.192ZM68.0303 84.048V85.048H69.0303V84.048H68.0303ZM58.1523 84.048H57.1523V85.048H58.1523V84.048ZM65.1703 76.502H66.1703V75.502H65.1703V76.502ZM61.0123 76.502V75.502H60.0123V76.502H61.0123ZM61.0123 81.738H60.0123V82.738H61.0123V81.738ZM65.1703 81.738V82.738H66.1703V81.738H65.1703ZM71.1103 72.608V71.608H70.1103V72.608H71.1103ZM74.0583 72.608H75.0583V71.608H74.0583V72.608ZM74.0583 87.084V88.084H75.0583V87.084H74.0583ZM71.1103 87.084H70.1103V88.084H71.1103V87.084ZM60.4843 90.186V89.186H59.4843V90.186H60.4843ZM74.5643 90.186H75.5643V89.186H74.5643V90.186ZM74.5643 92.54V93.54H75.5643V92.54H74.5643ZM60.4843 92.54H59.4843V93.54H60.4843V92.54ZM60.4843 85.764V84.764H59.4843V85.764H60.4843ZM63.4103 85.764H64.4103V84.764H63.4103V85.764ZM63.4103 91.22V92.22H64.4103V91.22H63.4103ZM60.4843 91.22H59.4843V92.22H60.4843V91.22ZM58.1523 75.192H68.0303V73.192H58.1523V75.192ZM67.0303 74.192V84.048H69.0303V74.192H67.0303ZM68.0303 83.048H58.1523V85.048H68.0303V83.048ZM59.1523 84.048V74.192H57.1523V84.048H59.1523ZM65.1703 75.502H61.0123V77.502H65.1703V75.502ZM60.0123 76.502V81.738H62.0123V76.502H60.0123ZM61.0123 82.738H65.1703V80.738H61.0123V82.738ZM66.1703 81.738V76.502H64.1703V81.738H66.1703ZM71.1103 73.608H74.0583V71.608H71.1103V73.608ZM73.0583 72.608V87.084H75.0583V72.608H73.0583ZM74.0583 86.084H71.1103V88.084H74.0583V86.084ZM72.1103 87.084V72.608H70.1103V87.084H72.1103ZM60.4843 91.186H74.5643V89.186H60.4843V91.186ZM73.5643 90.186V92.54H75.5643V90.186H73.5643ZM74.5643 91.54H60.4843V93.54H74.5643V91.54ZM61.4843 92.54V90.186H59.4843V92.54H61.4843ZM60.4843 86.764H63.4103V84.764H60.4843V86.764ZM62.4103 85.764V91.22H64.4103V85.764H62.4103ZM63.4103 90.22H60.4843V92.22H63.4103V90.22ZM61.4843 91.22V85.764H59.4843V91.22H61.4843ZM78.7426 80.836V79.836H77.7426V80.836H78.7426ZM89.3906 80.836H90.3906V79.836H89.3906V80.836ZM89.3906 83.168V84.168H90.3906V83.168H89.3906ZM78.7426 83.168H77.7426V84.168H78.7426V83.168ZM82.5706 82.728V81.728H81.5706V82.728H82.5706ZM85.5186 82.728H86.5186V81.728H85.5186V82.728ZM85.5186 87.018V88.018H86.5186V87.018H85.5186ZM82.5706 87.018H81.5706V88.018H82.5706V87.018ZM78.7426 74.39V73.39H77.7426V74.39H78.7426ZM89.2586 74.39H90.2586V73.39H89.2586V74.39ZM89.2586 76.7V77.7H90.2586V76.7H89.2586ZM81.6686 76.7V75.7H80.6686V76.7H81.6686ZM81.6686 81.562V82.562H82.6686V81.562H81.6686ZM78.7426 81.562H77.7426V82.562H78.7426V81.562ZM91.4366 72.564V71.564H90.4366V72.564H91.4366ZM94.3626 72.564H95.3626V71.564H94.3626V72.564ZM94.3626 93.002V94.002H95.3626V93.002H94.3626ZM91.4366 93.002H90.4366V94.002H91.4366V93.002ZM77.7966 88.976L76.8076 89.1239L76.9342 89.971L77.7907 89.976L77.7966 88.976ZM77.4446 86.622V85.622H76.2839L76.4556 86.7699L77.4446 86.622ZM90.3146 86.138L91.3093 86.0354L91.206 85.0334L90.2047 85.1441L90.3146 86.138ZM90.5346 88.272L90.6877 89.2602L91.6267 89.1147L91.5293 88.1695L90.5346 88.272ZM78.7426 81.836H89.3906V79.836H78.7426V81.836ZM88.3906 80.836V83.168H90.3906V80.836H88.3906ZM89.3906 82.168H78.7426V84.168H89.3906V82.168ZM79.7426 83.168V80.836H77.7426V83.168H79.7426ZM82.5706 83.728H85.5186V81.728H82.5706V83.728ZM84.5186 82.728V87.018H86.5186V82.728H84.5186ZM85.5186 86.018H82.5706V88.018H85.5186V86.018ZM83.5706 87.018V82.728H81.5706V87.018H83.5706ZM78.7426 75.39H89.2586V73.39H78.7426V75.39ZM88.2586 74.39V76.7H90.2586V74.39H88.2586ZM89.2586 75.7H81.6686V77.7H89.2586V75.7ZM80.6686 76.7V81.562H82.6686V76.7H80.6686ZM81.6686 80.562H78.7426V82.562H81.6686V80.562ZM79.7426 81.562V74.39H77.7426V81.562H79.7426ZM91.4366 73.564H94.3626V71.564H91.4366V73.564ZM93.3626 72.564V93.002H95.3626V72.564H93.3626ZM94.3626 92.002H91.4366V94.002H94.3626V92.002ZM92.4366 93.002V72.564H90.4366V93.002H92.4366ZM78.7856 88.8281L78.4336 86.4741L76.4556 86.7699L76.8076 89.1239L78.7856 88.8281ZM77.4446 87.622C81.3316 87.622 86.1813 87.6009 90.4244 87.1319L90.2047 85.1441C86.0878 85.5991 81.3456 85.622 77.4446 85.622V87.622ZM89.3198 86.2405L89.5398 88.3745L91.5293 88.1695L91.3093 86.0354L89.3198 86.2405ZM90.3814 87.2838C86.0668 87.9526 81.5822 87.998 77.8024 87.976L77.7907 89.976C81.5789 89.998 86.2023 89.9554 90.6877 89.2602L90.3814 87.2838ZM98.3648 74.522V73.522H97.3648V74.522H98.3648ZM101.269 74.522H102.269V73.522H101.269V74.522ZM101.269 86.358V87.358H102.269V86.358H101.269ZM98.3648 86.358H97.3648V87.358H98.3648V86.358ZM98.3648 85.61V84.61H97.3648V85.61H98.3648ZM106.659 85.038L107.647 84.8866L107.488 83.8466L106.457 84.0585L106.659 85.038ZM107.033 87.48L107.244 88.4574L108.164 88.2586L108.021 87.3286L107.033 87.48ZM98.3648 88.096H97.3648V89.096H98.3648V88.096ZM112.357 72.586V71.586H111.357V72.586H112.357ZM115.151 72.586H116.151V71.586H115.151V72.586ZM115.151 92.958V93.958H116.151V92.958H115.151ZM112.357 92.958H111.357V93.958H112.357V92.958ZM104.041 79.01V78.01H103.041V79.01H104.041ZM108.683 79.01H109.683V78.01H108.683V79.01ZM108.683 81.364V82.364H109.683V81.364H108.683ZM104.041 81.364H103.041V82.364H104.041V81.364ZM108.045 72.938V71.938H107.045V72.938H108.045ZM110.773 72.938H111.773V71.938H110.773V72.938ZM110.773 92.056V93.056H111.773V92.056H110.773ZM108.045 92.056H107.045V93.056H108.045V92.056ZM98.3648 75.522H101.269V73.522H98.3648V75.522ZM100.269 74.522V86.358H102.269V74.522H100.269ZM101.269 85.358H98.3648V87.358H101.269V85.358ZM99.3648 86.358V74.522H97.3648V86.358H99.3648ZM98.3648 86.61H99.7948V84.61H98.3648V86.61ZM99.7948 86.61C102.285 86.61 104.409 86.5215 106.86 86.0175L106.457 84.0585C104.201 84.5225 102.233 84.61 99.7948 84.61V86.61ZM105.67 85.1894L106.044 87.6314L108.021 87.3286L107.647 84.8866L105.67 85.1894ZM106.822 86.5026C104.485 87.0079 102.369 87.096 99.7948 87.096V89.096C102.413 89.096 104.697 89.0081 107.244 88.4574L106.822 86.5026ZM99.7948 87.096H98.3648V89.096H99.7948V87.096ZM99.3648 88.096V85.61H97.3648V88.096H99.3648ZM112.357 73.586H115.151V71.586H112.357V73.586ZM114.151 72.586V92.958H116.151V72.586H114.151ZM115.151 91.958H112.357V93.958H115.151V91.958ZM113.357 92.958V72.586H111.357V92.958H113.357ZM104.041 80.01H108.683V78.01H104.041V80.01ZM107.683 79.01V81.364H109.683V79.01H107.683ZM108.683 80.364H104.041V82.364H108.683V80.364ZM105.041 81.364V79.01H103.041V81.364H105.041ZM108.045 73.938H110.773V71.938H108.045V73.938ZM109.773 72.938V92.056H111.773V72.938H109.773ZM110.773 91.056H108.045V93.056H110.773V91.056ZM109.045 92.056V72.938H107.045V92.056H109.045Z" fill="white" mask="url(#path-14-outside-7_2_382)"/>
<path d="M87.5 36.1875H85V34.875C84.9993 34.179 84.7357 33.5117 84.267 33.0196C83.7983 32.5275 83.1628 32.2507 82.5 32.25H67.5C66.8372 32.2507 66.2017 32.5275 65.733 33.0196C65.2643 33.5117 65.0007 34.179 65 34.875V36.1875H62.5C61.8372 36.1882 61.2017 36.465 60.733 36.9571C60.2643 37.4492 60.0007 38.1165 60 38.8125V42.75C60.0017 44.1419 60.529 45.4762 61.4663 46.4604C62.4036 47.4446 63.6744 47.9983 65 48H65.4025C65.9234 50.0091 66.9901 51.8154 68.4725 53.1985C69.9548 54.5815 71.7886 55.4815 73.75 55.7884V61.125H67.5V63.75H82.5V61.125H76.25V55.7844C78.2368 55.5265 80.1035 54.6458 81.6064 53.2572C83.1093 51.8685 84.1787 50.0364 84.675 48H85C86.3256 47.9983 87.5964 47.4446 88.5337 46.4604C89.471 45.4762 89.9983 44.1419 90 42.75V38.8125C89.9993 38.1165 89.7357 37.4492 89.267 36.9571C88.7983 36.465 88.1628 36.1882 87.5 36.1875ZM65 45.375C64.3372 45.3743 63.7017 45.0975 63.233 44.6054C62.7643 44.1133 62.5007 43.446 62.5 42.75V38.8125H65V45.375ZM82.5 45.375C82.5 46.4296 82.2982 47.4734 81.9067 48.4446C81.5152 49.4157 80.9419 50.2944 80.2208 51.0285C79.4998 51.7626 78.6456 52.3372 77.7091 52.7181C76.7725 53.099 75.7726 53.2786 74.7687 53.2461C72.7783 53.1163 70.912 52.1859 69.5582 50.6482C68.2044 49.1106 67.4672 47.0842 67.5 44.9904V34.875H82.5V45.375ZM87.5 42.75C87.4993 43.446 87.2357 44.1133 86.767 44.6054C86.2983 45.0975 85.6628 45.3743 85 45.375V38.8125H87.5V42.75Z" fill="#C5C5C5"/>
</svg>
