<svg width="150" height="150" viewBox="0 0 150 150" fill="none" xmlns="http://www.w3.org/2000/svg">
<circle cx="75" cy="75" r="65" stroke="#6E6D6B" stroke-width="20"/>
<mask id="path-2-outside-1_2_386" maskUnits="userSpaceOnUse" x="21.0321" y="111.968" width="18.38" height="18.38" fill="black">
<rect fill="white" x="21.0321" y="111.968" width="18.38" height="18.38"/>
<path d="M31.331 117.055L31.8947 117.645L31.5564 117.969C30.2116 119.254 28.2729 119.413 26.5959 118.509L26.8282 117.624C28.2948 118.446 29.9602 118.365 30.9926 117.379L31.331 117.055ZM31.4553 117.185L32.0191 117.775L31.6807 118.099C30.7264 119.011 30.5971 120.595 31.3613 122.072L30.4654 122.281C29.6213 120.581 29.859 118.711 31.117 117.509L31.4553 117.185ZM30.0373 114.972L34.0333 119.154L33.452 119.709L29.456 115.527L30.0373 114.972ZM32.6497 115.795L33.3378 116.515L32.1492 117.651L31.4611 116.931L32.6497 115.795ZM35.8731 119.238L36.5612 119.958L31.9197 124.393L31.2316 123.673L35.8731 119.238ZM34.3925 121.649L35.6941 123.011L35.0868 123.591L33.7852 122.229L34.3925 121.649ZM26.8464 119.814L31.5553 124.742L28.8224 127.353L24.1135 122.425L26.8464 119.814ZM30.3112 124.586L26.9453 121.064L25.3663 122.573L28.7322 126.095L30.3112 124.586Z"/>
</mask>
<path d="M31.331 117.055L31.8947 117.645L31.5564 117.969C30.2116 119.254 28.2729 119.413 26.5959 118.509L26.8282 117.624C28.2948 118.446 29.9602 118.365 30.9926 117.379L31.331 117.055ZM31.4553 117.185L32.0191 117.775L31.6807 118.099C30.7264 119.011 30.5971 120.595 31.3613 122.072L30.4654 122.281C29.6213 120.581 29.859 118.711 31.117 117.509L31.4553 117.185ZM30.0373 114.972L34.0333 119.154L33.452 119.709L29.456 115.527L30.0373 114.972ZM32.6497 115.795L33.3378 116.515L32.1492 117.651L31.4611 116.931L32.6497 115.795ZM35.8731 119.238L36.5612 119.958L31.9197 124.393L31.2316 123.673L35.8731 119.238ZM34.3925 121.649L35.6941 123.011L35.0868 123.591L33.7852 122.229L34.3925 121.649ZM26.8464 119.814L31.5553 124.742L28.8224 127.353L24.1135 122.425L26.8464 119.814ZM30.3112 124.586L26.9453 121.064L25.3663 122.573L28.7322 126.095L30.3112 124.586Z" fill="white"/>
<path d="M31.331 117.055L32.054 116.364L31.3631 115.642L30.6401 116.332L31.331 117.055ZM31.8947 117.645L32.5856 118.368L33.3086 117.677L32.6177 116.954L31.8947 117.645ZM26.5959 118.509L25.6286 118.256L25.4291 119.017L26.1215 119.39L26.5959 118.509ZM26.8282 117.624L27.3174 116.751L26.1891 116.119L25.8609 117.37L26.8282 117.624ZM31.4553 117.185L32.1783 116.495L31.4875 115.772L30.7645 116.463L31.4553 117.185ZM32.0191 117.775L32.71 118.498L33.4329 117.808L32.7421 117.085L32.0191 117.775ZM31.3613 122.072L31.5883 123.046L32.8402 122.754L32.2495 121.613L31.3613 122.072ZM30.4654 122.281L29.5698 122.726L29.9217 123.434L30.6924 123.255L30.4654 122.281ZM30.0373 114.972L30.7603 114.281L30.0694 113.558L29.3464 114.249L30.0373 114.972ZM34.0333 119.154L34.7241 119.877L35.4471 119.186L34.7562 118.463L34.0333 119.154ZM33.452 119.709L32.729 120.4L33.4199 121.123L34.1429 120.432L33.452 119.709ZM29.456 115.527L28.7651 114.804L28.0422 115.495L28.733 116.218L29.456 115.527ZM32.6497 115.795L33.3727 115.104L32.6818 114.381L31.9588 115.072L32.6497 115.795ZM33.3378 116.515L34.0287 117.238L34.7517 116.547L34.0608 115.824L33.3378 116.515ZM32.1492 117.651L31.4262 118.342L32.1171 119.065L32.8401 118.374L32.1492 117.651ZM31.4611 116.931L30.7703 116.208L30.0473 116.899L30.7381 117.622L31.4611 116.931ZM35.8731 119.238L36.5961 118.547L35.9052 117.824L35.1823 118.515L35.8731 119.238ZM36.5612 119.958L37.2521 120.681L37.9751 119.99L37.2842 119.267L36.5612 119.958ZM31.9197 124.393L31.1967 125.084L31.8876 125.807L32.6106 125.116L31.9197 124.393ZM31.2316 123.673L30.5407 122.95L29.8177 123.641L30.5086 124.364L31.2316 123.673ZM34.3925 121.649L35.1155 120.958L34.4246 120.235L33.7016 120.926L34.3925 121.649ZM35.6941 123.011L36.3849 123.734L37.1079 123.043L36.4171 122.32L35.6941 123.011ZM35.0868 123.591L34.3638 124.282L35.0547 125.005L35.7776 124.314L35.0868 123.591ZM33.7852 122.229L33.0943 121.506L32.3713 122.197L33.0622 122.92L33.7852 122.229ZM26.8464 119.814L27.5693 119.123L26.8785 118.4L26.1555 119.091L26.8464 119.814ZM31.5553 124.742L32.2462 125.465L32.9692 124.774L32.2783 124.051L31.5553 124.742ZM28.8224 127.353L28.0995 128.044L28.7903 128.767L29.5133 128.076L28.8224 127.353ZM24.1135 122.425L23.4226 121.702L22.6996 122.393L23.3905 123.116L24.1135 122.425ZM30.3112 124.586L31.0021 125.309L31.725 124.618L31.0342 123.895L30.3112 124.586ZM26.9453 121.064L27.6683 120.373L26.9774 119.65L26.2544 120.341L26.9453 121.064ZM25.3663 122.573L24.6754 121.85L23.9524 122.54L24.6433 123.263L25.3663 122.573ZM28.7322 126.095L28.0092 126.786L28.7001 127.509L29.4231 126.818L28.7322 126.095ZM30.608 117.746L31.1718 118.336L32.6177 116.954L32.054 116.364L30.608 117.746ZM31.2039 116.922L30.8655 117.246L32.2472 118.692L32.5856 118.368L31.2039 116.922ZM30.8655 117.246C29.8725 118.195 28.4148 118.354 27.0703 117.629L26.1215 119.39C28.131 120.473 30.5508 120.313 32.2472 118.692L30.8655 117.246ZM27.5632 118.763L27.7955 117.877L25.8609 117.37L25.6286 118.256L27.5632 118.763ZM26.339 118.496C28.0832 119.474 30.2535 119.468 31.6835 118.102L30.3018 116.656C29.667 117.262 28.5065 117.418 27.3174 116.751L26.339 118.496ZM31.6835 118.102L32.0219 117.778L30.6401 116.332L30.3018 116.656L31.6835 118.102ZM30.7324 117.876L31.2961 118.466L32.7421 117.085L32.1783 116.495L30.7324 117.876ZM31.3282 117.052L30.9899 117.376L32.3716 118.822L32.71 118.498L31.3282 117.052ZM30.9899 117.376C29.6184 118.686 29.5734 120.793 30.4732 122.532L32.2495 121.613C31.6207 120.397 31.8344 119.335 32.3716 118.822L30.9899 117.376ZM31.1343 121.098L30.2384 121.307L30.6924 123.255L31.5883 123.046L31.1343 121.098ZM31.361 121.836C30.681 120.467 30.9135 119.086 31.8079 118.232L30.4261 116.786C28.8045 118.335 28.5616 120.696 29.5698 122.726L31.361 121.836ZM31.8079 118.232L32.1462 117.908L30.7645 116.463L30.4261 116.786L31.8079 118.232ZM29.3143 115.663L33.3103 119.845L34.7562 118.463L30.7603 114.281L29.3143 115.663ZM33.3424 118.431L32.7611 118.986L34.1429 120.432L34.7241 119.877L33.3424 118.431ZM34.175 119.018L30.179 114.837L28.733 116.218L32.729 120.4L34.175 119.018ZM30.1469 116.25L30.7282 115.695L29.3464 114.249L28.7651 114.804L30.1469 116.25ZM31.9267 116.486L32.6148 117.206L34.0608 115.824L33.3727 115.104L31.9267 116.486ZM32.6469 115.792L31.4584 116.928L32.8401 118.374L34.0287 117.238L32.6469 115.792ZM32.8722 116.96L32.1841 116.24L30.7381 117.622L31.4262 118.342L32.8722 116.96ZM32.152 117.654L33.3406 116.518L31.9588 115.072L30.7703 116.208L32.152 117.654ZM35.1502 119.929L35.8383 120.649L37.2842 119.267L36.5961 118.547L35.1502 119.929ZM35.8704 119.235L31.2288 123.67L32.6106 125.116L37.2521 120.681L35.8704 119.235ZM32.6427 123.703L31.9546 122.982L30.5086 124.364L31.1967 125.084L32.6427 123.703ZM31.9225 124.396L36.564 119.961L35.1823 118.515L30.5407 122.95L31.9225 124.396ZM33.6695 122.34L34.9711 123.702L36.4171 122.32L35.1155 120.958L33.6695 122.34ZM35.0032 122.288L34.3959 122.868L35.7776 124.314L36.3849 123.734L35.0032 122.288ZM35.8098 122.9L34.5082 121.538L33.0622 122.92L34.3638 124.282L35.8098 122.9ZM34.476 122.952L35.0834 122.372L33.7016 120.926L33.0943 121.506L34.476 122.952ZM26.1234 120.505L30.8323 125.432L32.2783 124.051L27.5693 119.123L26.1234 120.505ZM30.8644 124.019L28.1316 126.63L29.5133 128.076L32.2462 125.465L30.8644 124.019ZM29.5454 126.662L24.8365 121.734L23.3905 123.116L28.0995 128.044L29.5454 126.662ZM24.8044 123.148L27.5372 120.537L26.1555 119.091L23.4226 121.702L24.8044 123.148ZM31.0342 123.895L27.6683 120.373L26.2223 121.755L29.5882 125.277L31.0342 123.895ZM26.2544 120.341L24.6754 121.85L26.0572 123.296L27.6362 121.787L26.2544 120.341ZM24.6433 123.263L28.0092 126.786L29.4552 125.404L26.0893 121.882L24.6433 123.263ZM29.4231 126.818L31.0021 125.309L29.6203 123.863L28.0413 125.372L29.4231 126.818Z" fill="#6E6D6B" mask="url(#path-2-outside-1_2_386)"/>
<mask id="path-4-outside-2_2_386" maskUnits="userSpaceOnUse" x="41.7429" y="127.675" width="9.86049" height="12.9669" fill="black">
<rect fill="white" x="41.7429" y="127.675" width="9.86049" height="12.9669"/>
<path d="M49.468 130.273L46.5722 135.838L45.6891 135.394L48.4326 129.752L49.468 130.273ZM44.9967 137.869C44.8089 137.775 44.6816 137.626 44.6148 137.424C44.5479 137.222 44.5618 137.027 44.6563 136.839C44.7508 136.651 44.8991 136.524 45.1013 136.457C45.3035 136.39 45.4985 136.404 45.6863 136.499C45.8741 136.593 46.0014 136.742 46.0682 136.944C46.135 137.146 46.1211 137.341 46.0267 137.529C45.9641 137.653 45.8749 137.751 45.7591 137.824C45.6458 137.897 45.5212 137.939 45.3852 137.95C45.2531 137.96 45.1236 137.933 44.9967 137.869Z"/>
</mask>
<path d="M49.468 130.273L46.5722 135.838L45.6891 135.394L48.4326 129.752L49.468 130.273ZM44.9967 137.869C44.8089 137.775 44.6816 137.626 44.6148 137.424C44.5479 137.222 44.5618 137.027 44.6563 136.839C44.7508 136.651 44.8991 136.524 45.1013 136.457C45.3035 136.39 45.4985 136.404 45.6863 136.499C45.8741 136.593 46.0014 136.742 46.0682 136.944C46.135 137.146 46.1211 137.341 46.0267 137.529C45.9641 137.653 45.8749 137.751 45.7591 137.824C45.6458 137.897 45.5212 137.939 45.3852 137.95C45.2531 137.96 45.1236 137.933 44.9967 137.869Z" fill="white"/>
<path d="M49.468 130.273L50.3551 130.735L50.823 129.835L49.9175 129.38L49.468 130.273ZM46.5722 135.838L46.1227 136.731L47.0039 137.175L47.4593 136.3L46.5722 135.838ZM45.6891 135.394L44.7898 134.956L44.3584 135.843L45.2396 136.287L45.6891 135.394ZM48.4326 129.752L48.8821 128.859L47.9766 128.403L47.5333 129.315L48.4326 129.752ZM44.6148 137.424L45.5643 137.11L45.5643 137.11L44.6148 137.424ZM46.0682 136.944L47.0177 136.63L47.0177 136.63L46.0682 136.944ZM45.7591 137.824L45.2304 136.975L45.2228 136.979L45.2153 136.984L45.7591 137.824ZM45.3852 137.95L45.4594 138.948L45.4665 138.947L45.3852 137.95ZM48.5809 129.811L45.6851 135.376L47.4593 136.3L50.3551 130.735L48.5809 129.811ZM47.0217 134.945L46.1386 134.5L45.2396 136.287L46.1227 136.731L47.0217 134.945ZM46.5884 135.831L49.3319 130.189L47.5333 129.315L44.7898 134.956L46.5884 135.831ZM47.9831 130.645L49.0185 131.166L49.9175 129.38L48.8821 128.859L47.9831 130.645ZM45.4462 136.976C45.4614 136.984 45.4904 137.002 45.5192 137.036C45.5478 137.069 45.5604 137.099 45.5643 137.11L43.6653 137.738C43.8141 138.188 44.1191 138.547 44.5472 138.762L45.4462 136.976ZM45.5643 137.11C45.5681 137.122 45.5756 137.153 45.5725 137.197C45.5694 137.241 45.5572 137.274 45.5496 137.289L43.763 136.39C43.5476 136.818 43.5164 137.288 43.6653 137.738L45.5643 137.11ZM45.5496 137.289C45.5419 137.304 45.5232 137.333 45.4897 137.362C45.4563 137.39 45.4267 137.403 45.4151 137.407L44.7875 135.508C44.3372 135.657 43.9784 135.962 43.763 136.39L45.5496 137.289ZM45.4151 137.407C45.4035 137.411 45.3722 137.418 45.3284 137.415C45.2843 137.412 45.252 137.4 45.2368 137.392L46.1358 135.606C45.7077 135.39 45.2379 135.359 44.7875 135.508L45.4151 137.407ZM45.2368 137.392C45.2216 137.384 45.1925 137.366 45.1637 137.332C45.1351 137.299 45.1225 137.269 45.1187 137.258L47.0177 136.63C46.8688 136.18 46.5639 135.821 46.1358 135.606L45.2368 137.392ZM45.1187 137.258C45.1148 137.246 45.1073 137.215 45.1104 137.171C45.1135 137.127 45.1257 137.095 45.1334 137.079L46.9199 137.978C47.1354 137.55 47.1665 137.08 47.0177 136.63L45.1187 137.258ZM45.1334 137.079C45.1407 137.065 45.1533 137.045 45.1725 137.024C45.1917 137.002 45.2122 136.986 45.2304 136.975L46.2877 138.672C46.5628 138.501 46.7766 138.263 46.9199 137.978L45.1334 137.079ZM45.2153 136.984C45.2263 136.977 45.2415 136.969 45.2597 136.963C45.2777 136.957 45.2933 136.954 45.304 136.954L45.4665 138.947C45.7654 138.923 46.0493 138.827 46.3029 138.663L45.2153 136.984ZM45.3111 136.953C45.338 136.951 45.3663 136.953 45.3931 136.958C45.4196 136.964 45.4376 136.972 45.4462 136.976L44.5472 138.762C44.8239 138.902 45.1334 138.972 45.4594 138.947L45.3111 136.953Z" fill="#6E6D6B" mask="url(#path-4-outside-2_2_386)"/>
<mask id="path-6-outside-3_2_386" maskUnits="userSpaceOnUse" x="67.7742" y="133.884" width="14.2003" height="13.216" fill="black">
<rect fill="white" x="67.7742" y="133.884" width="14.2003" height="13.216"/>
<path d="M73.0555 135.948L73.8714 135.935L73.8849 136.799C73.9139 138.671 72.7018 140.214 70.8631 140.831L70.3589 140.046C71.995 139.529 73.0911 138.24 73.069 136.812L73.0555 135.948ZM73.2355 135.945L74.0514 135.932L74.0648 136.796C74.0848 138.08 75.1829 139.239 76.7858 139.67L76.3302 140.47C74.5098 139.946 73.2756 138.525 73.2489 136.809L73.2355 135.945ZM70.6281 135.746L76.4354 135.655L76.4481 136.471L70.6408 136.561L70.6281 135.746ZM77.8059 135.034L78.8018 135.018L78.8885 140.598L77.8926 140.613L77.8059 135.034ZM78.4064 137.377L80.4341 137.345L80.447 138.173L78.4193 138.205L78.4064 137.377ZM72.0093 141.221L78.8965 141.114L78.9374 143.741L73.0581 143.833L73.084 145.501L72.1001 145.516L72.0628 143.116L77.9541 143.025L77.9368 141.909L72.0215 142.001L72.0093 141.221ZM72.0936 145.096L79.3527 144.983L79.3646 145.751L72.1055 145.864L72.0936 145.096Z"/>
</mask>
<path d="M73.0555 135.948L73.8714 135.935L73.8849 136.799C73.9139 138.671 72.7018 140.214 70.8631 140.831L70.3589 140.046C71.995 139.529 73.0911 138.24 73.069 136.812L73.0555 135.948ZM73.2355 135.945L74.0514 135.932L74.0648 136.796C74.0848 138.08 75.1829 139.239 76.7858 139.67L76.3302 140.47C74.5098 139.946 73.2756 138.525 73.2489 136.809L73.2355 135.945ZM70.6281 135.746L76.4354 135.655L76.4481 136.471L70.6408 136.561L70.6281 135.746ZM77.8059 135.034L78.8018 135.018L78.8885 140.598L77.8926 140.613L77.8059 135.034ZM78.4064 137.377L80.4341 137.345L80.447 138.173L78.4193 138.205L78.4064 137.377ZM72.0093 141.221L78.8965 141.114L78.9374 143.741L73.0581 143.833L73.084 145.501L72.1001 145.516L72.0628 143.116L77.9541 143.025L77.9368 141.909L72.0215 142.001L72.0093 141.221ZM72.0936 145.096L79.3527 144.983L79.3646 145.751L72.1055 145.864L72.0936 145.096Z" fill="white"/>
<path d="M73.0555 135.948L73.04 134.948L72.0401 134.964L72.0557 135.963L73.0555 135.948ZM73.8714 135.935L74.8713 135.92L74.8558 134.92L73.8559 134.935L73.8714 135.935ZM70.8631 140.831L70.022 141.371L70.443 142.026L71.1811 141.779L70.8631 140.831ZM70.3589 140.046L70.0573 139.093L68.8105 139.487L69.5178 140.587L70.3589 140.046ZM73.2355 135.945L73.22 134.945L72.2201 134.961L72.2356 135.961L73.2355 135.945ZM74.0514 135.932L75.0513 135.917L75.0357 134.917L74.0359 134.932L74.0514 135.932ZM76.7858 139.67L77.6546 140.166L78.2958 139.041L77.0456 138.705L76.7858 139.67ZM76.3302 140.47L76.0537 141.431L76.8094 141.648L77.1989 140.965L76.3302 140.47ZM70.6281 135.746L70.6126 134.746L69.6127 134.761L69.6282 135.761L70.6281 135.746ZM76.4354 135.655L77.4353 135.64L77.4197 134.64L76.4199 134.655L76.4354 135.655ZM76.4481 136.471L76.4636 137.471L77.4635 137.456L77.448 136.456L76.4481 136.471ZM70.6408 136.561L69.6409 136.577L69.6564 137.577L70.6563 137.561L70.6408 136.561ZM77.8059 135.034L77.7904 134.034L76.7905 134.05L76.806 135.049L77.8059 135.034ZM78.8018 135.018L79.8017 135.003L79.7861 134.003L78.7862 134.019L78.8018 135.018ZM78.8885 140.598L78.904 141.598L79.9039 141.582L79.8884 140.582L78.8885 140.598ZM77.8926 140.613L76.8927 140.629L76.9083 141.629L77.9082 141.613L77.8926 140.613ZM78.4064 137.377L78.3908 136.377L77.391 136.393L77.4065 137.392L78.4064 137.377ZM80.4341 137.345L81.434 137.33L81.4185 136.33L80.4186 136.345L80.4341 137.345ZM80.447 138.173L80.4625 139.173L81.4624 139.158L81.4469 138.158L80.447 138.173ZM78.4193 138.205L77.4194 138.22L77.4349 139.22L78.4348 139.205L78.4193 138.205ZM72.0093 141.221L71.9938 140.221L70.9939 140.236L71.0095 141.236L72.0093 141.221ZM78.8965 141.114L79.8964 141.098L79.8809 140.098L78.881 140.114L78.8965 141.114ZM78.9374 143.741L78.9529 144.741L79.9528 144.726L79.9372 143.726L78.9374 143.741ZM73.0581 143.833L73.0425 142.833L72.0426 142.848L72.0582 143.848L73.0581 143.833ZM73.084 145.501L73.0995 146.5L74.0994 146.485L74.0839 145.485L73.084 145.501ZM72.1001 145.516L71.1002 145.531L71.1158 146.531L72.1156 146.516L72.1001 145.516ZM72.0628 143.116L72.0473 142.116L71.0474 142.132L71.0629 143.132L72.0628 143.116ZM77.9541 143.025L77.9696 144.024L78.9695 144.009L78.954 143.009L77.9541 143.025ZM77.9368 141.909L78.9366 141.893L78.9211 140.893L77.9212 140.909L77.9368 141.909ZM72.0215 142.001L71.0216 142.016L71.0371 143.016L72.037 143.001L72.0215 142.001ZM72.0936 145.096L72.078 144.096L71.0782 144.112L71.0937 145.111L72.0936 145.096ZM79.3527 144.983L80.3526 144.968L80.337 143.968L79.3372 143.983L79.3527 144.983ZM79.3646 145.751L79.3802 146.751L80.3801 146.735L80.3645 145.735L79.3646 145.751ZM72.1055 145.864L71.1056 145.879L71.1212 146.879L72.121 146.864L72.1055 145.864ZM73.0711 136.948L73.887 136.935L73.8559 134.935L73.04 134.948L73.0711 136.948ZM72.8716 135.951L72.885 136.815L74.8847 136.784L74.8713 135.92L72.8716 135.951ZM72.885 136.815C72.9065 138.197 72.025 139.386 70.5452 139.882L71.1811 141.779C73.3786 141.042 74.9214 139.145 74.8847 136.784L72.885 136.815ZM71.7043 140.29L71.2 139.505L69.5178 140.587L70.022 141.371L71.7043 140.29ZM70.6605 141C72.5931 140.388 74.0997 138.784 74.0688 136.796L72.0691 136.827C72.0826 137.695 71.397 138.669 70.0573 139.093L70.6605 141ZM74.0688 136.796L74.0554 135.932L72.0557 135.963L72.0691 136.827L74.0688 136.796ZM73.251 136.945L74.067 136.932L74.0359 134.932L73.22 134.945L73.251 136.945ZM73.0515 135.948L73.065 136.812L75.0647 136.781L75.0513 135.917L73.0515 135.948ZM73.065 136.812C73.0942 138.692 74.6571 140.133 76.5261 140.636L77.0456 138.705C75.7087 138.345 75.0754 137.468 75.0647 136.781L73.065 136.812ZM75.9171 139.175L75.4615 139.974L77.1989 140.965L77.6546 140.166L75.9171 139.175ZM76.6067 139.508C75.1252 139.082 74.2674 137.988 74.2488 136.793L72.2491 136.824C72.2838 139.062 73.8945 140.809 76.0537 141.431L76.6067 139.508ZM74.2488 136.793L74.2354 135.93L72.2356 135.961L72.2491 136.824L74.2488 136.793ZM70.6436 136.745L76.4509 136.655L76.4199 134.655L70.6126 134.746L70.6436 136.745ZM75.4355 135.671L75.4482 136.487L77.448 136.456L77.4353 135.64L75.4355 135.671ZM76.4325 135.471L70.6252 135.562L70.6563 137.561L76.4636 137.471L76.4325 135.471ZM71.6407 136.546L71.628 135.73L69.6282 135.761L69.6409 136.577L71.6407 136.546ZM77.8214 136.034L78.8173 136.018L78.7862 134.019L77.7904 134.034L77.8214 136.034ZM77.8019 135.034L77.8886 140.613L79.8884 140.582L79.8017 135.003L77.8019 135.034ZM78.873 139.598L77.8771 139.613L77.9082 141.613L78.904 141.598L78.873 139.598ZM78.8925 140.598L78.8058 135.018L76.806 135.049L76.8927 140.629L78.8925 140.598ZM78.4219 138.377L80.4497 138.345L80.4186 136.345L78.3908 136.377L78.4219 138.377ZM79.4343 137.361L79.4471 138.189L81.4469 138.158L81.434 137.33L79.4343 137.361ZM80.4315 137.173L78.4037 137.205L78.4348 139.205L80.4625 139.173L80.4315 137.173ZM79.4191 138.189L79.4063 137.361L77.4065 137.392L77.4194 138.22L79.4191 138.189ZM72.0249 142.221L78.9121 142.114L78.881 140.114L71.9938 140.221L72.0249 142.221ZM77.8966 141.129L77.9375 143.757L79.9372 143.726L79.8964 141.098L77.8966 141.129ZM78.9218 142.742L73.0425 142.833L73.0736 144.833L78.9529 144.741L78.9218 142.742ZM72.0582 143.848L72.0841 145.516L74.0839 145.485L74.0579 143.817L72.0582 143.848ZM73.0684 144.501L72.0846 144.516L72.1156 146.516L73.0995 146.5L73.0684 144.501ZM73.1 145.5L73.0627 143.101L71.0629 143.132L71.1002 145.531L73.1 145.5ZM72.0783 144.116L77.9696 144.024L77.9386 142.025L72.0473 142.116L72.0783 144.116ZM78.954 143.009L78.9366 141.893L76.9369 141.924L76.9542 143.04L78.954 143.009ZM77.9212 140.909L72.0059 141.001L72.037 143.001L77.9523 142.909L77.9212 140.909ZM73.0213 141.985L73.0092 141.205L71.0095 141.236L71.0216 142.016L73.0213 141.985ZM72.1091 146.096L79.3682 145.983L79.3372 143.983L72.078 144.096L72.1091 146.096ZM78.3528 144.999L78.3648 145.767L80.3645 145.735L80.3526 144.968L78.3528 144.999ZM79.3491 144.751L72.09 144.864L72.121 146.864L79.3802 146.751L79.3491 144.751ZM73.1054 145.848L73.0935 145.08L71.0937 145.111L71.1056 145.879L73.1054 145.848Z" fill="#6E6D6B" mask="url(#path-6-outside-3_2_386)"/>
<mask id="path-8-outside-4_2_386" maskUnits="userSpaceOnUse" x="83.3363" y="129.919" width="17.3212" height="17.3212" fill="black">
<rect fill="white" x="83.3363" y="129.919" width="17.3212" height="17.3212"/>
<path d="M93.0437 132.141L93.9548 131.879L95.8069 138.326L94.8957 138.588L93.0437 132.141ZM92.1666 135.476L94.1388 134.91L94.3641 135.694L92.3919 136.261L92.1666 135.476ZM90.8723 132.927L91.7834 132.665L93.5493 138.812L92.6382 139.074L90.8723 132.927ZM85.458 135.593L90.7404 134.076L90.9591 134.837L85.6767 136.354L85.458 135.593ZM88.4785 136.111C89.7818 135.737 90.8951 136.179 91.2065 137.263C91.5179 138.347 90.8089 139.312 89.5056 139.687C88.1908 140.065 87.0775 139.623 86.7661 138.539C86.4547 137.454 87.1637 136.489 88.4785 136.111ZM88.6873 136.838C87.8684 137.073 87.434 137.648 87.6196 138.293C87.8051 138.939 88.4813 139.207 89.3002 138.972C90.1075 138.74 90.5386 138.154 90.353 137.508C90.1675 136.862 89.4946 136.606 88.6873 136.838ZM87.3099 133.825L88.2441 133.557L88.7013 135.148L87.7671 135.417L87.3099 133.825ZM89.8643 140.37L90.6024 140.158L90.7051 140.516C91.0828 141.831 90.5955 143.394 89.2403 144.37L88.5851 143.784C89.7625 142.972 90.2387 141.674 89.967 140.728L89.8643 140.37ZM90.0834 140.307L90.787 140.105L90.8897 140.463C91.1779 141.466 92.094 142.352 93.4755 142.467L93.2805 143.309C91.6336 143.183 90.5671 141.991 90.1861 140.665L90.0834 140.307ZM93.6934 139.27L94.397 139.068L94.4997 139.426C94.8376 140.602 94.5845 142.286 93.2805 143.309L92.6796 142.695C93.7383 141.817 94.0446 140.493 93.7961 139.628L93.6934 139.27ZM93.8895 139.214L94.6276 139.002L94.7303 139.36C95.0219 140.375 96.101 141.176 97.5351 141.213L97.2792 142.061C95.6077 141.979 94.3898 140.956 93.9922 139.572L93.8895 139.214Z"/>
</mask>
<path d="M93.0437 132.141L93.9548 131.879L95.8069 138.326L94.8957 138.588L93.0437 132.141ZM92.1666 135.476L94.1388 134.91L94.3641 135.694L92.3919 136.261L92.1666 135.476ZM90.8723 132.927L91.7834 132.665L93.5493 138.812L92.6382 139.074L90.8723 132.927ZM85.458 135.593L90.7404 134.076L90.9591 134.837L85.6767 136.354L85.458 135.593ZM88.4785 136.111C89.7818 135.737 90.8951 136.179 91.2065 137.263C91.5179 138.347 90.8089 139.312 89.5056 139.687C88.1908 140.065 87.0775 139.623 86.7661 138.539C86.4547 137.454 87.1637 136.489 88.4785 136.111ZM88.6873 136.838C87.8684 137.073 87.434 137.648 87.6196 138.293C87.8051 138.939 88.4813 139.207 89.3002 138.972C90.1075 138.74 90.5386 138.154 90.353 137.508C90.1675 136.862 89.4946 136.606 88.6873 136.838ZM87.3099 133.825L88.2441 133.557L88.7013 135.148L87.7671 135.417L87.3099 133.825ZM89.8643 140.37L90.6024 140.158L90.7051 140.516C91.0828 141.831 90.5955 143.394 89.2403 144.37L88.5851 143.784C89.7625 142.972 90.2387 141.674 89.967 140.728L89.8643 140.37ZM90.0834 140.307L90.787 140.105L90.8897 140.463C91.1779 141.466 92.094 142.352 93.4755 142.467L93.2805 143.309C91.6336 143.183 90.5671 141.991 90.1861 140.665L90.0834 140.307ZM93.6934 139.27L94.397 139.068L94.4997 139.426C94.8376 140.602 94.5845 142.286 93.2805 143.309L92.6796 142.695C93.7383 141.817 94.0446 140.493 93.7961 139.628L93.6934 139.27ZM93.8895 139.214L94.6276 139.002L94.7303 139.36C95.0219 140.375 96.101 141.176 97.5351 141.213L97.2792 142.061C95.6077 141.979 94.3898 140.956 93.9922 139.572L93.8895 139.214Z" fill="white"/>
<path d="M93.0437 132.141L92.7676 131.18L91.8064 131.456L92.0825 132.417L93.0437 132.141ZM93.9548 131.879L94.9159 131.603L94.6398 130.642L93.6787 130.918L93.9548 131.879ZM95.8069 138.326L96.083 139.287L97.0441 139.011L96.768 138.05L95.8069 138.326ZM94.8957 138.588L93.9346 138.864L94.2107 139.825L95.1718 139.549L94.8957 138.588ZM92.1666 135.476L91.8905 134.515L90.9294 134.791L91.2054 135.753L92.1666 135.476ZM94.1388 134.91L95.0999 134.634L94.8238 133.673L93.8627 133.949L94.1388 134.91ZM94.3641 135.694L94.6402 136.655L95.6013 136.379L95.3252 135.418L94.3641 135.694ZM92.3919 136.261L91.4307 136.537L91.7068 137.498L92.668 137.222L92.3919 136.261ZM90.8723 132.927L90.5962 131.966L89.6351 132.242L89.9112 133.203L90.8723 132.927ZM91.7834 132.665L92.7446 132.389L92.4685 131.428L91.5073 131.704L91.7834 132.665ZM93.5493 138.812L93.8254 139.774L94.7866 139.497L94.5105 138.536L93.5493 138.812ZM92.6382 139.074L91.6771 139.35L91.9532 140.311L92.9143 140.035L92.6382 139.074ZM85.458 135.593L85.182 134.632L84.2208 134.908L84.4969 135.869L85.458 135.593ZM90.7404 134.076L91.7015 133.8L91.4255 132.839L90.4643 133.115L90.7404 134.076ZM90.9591 134.837L91.2352 135.798L92.1963 135.522L91.9202 134.561L90.9591 134.837ZM85.6767 136.354L84.7156 136.631L84.9917 137.592L85.9528 137.316L85.6767 136.354ZM87.3099 133.825L87.0338 132.864L86.0727 133.14L86.3488 134.101L87.3099 133.825ZM88.2441 133.557L89.2052 133.281L88.9291 132.32L87.968 132.596L88.2441 133.557ZM88.7013 135.148L88.9774 136.11L89.9385 135.834L89.6625 134.872L88.7013 135.148ZM87.7671 135.417L86.806 135.693L87.0821 136.654L88.0432 136.378L87.7671 135.417ZM89.8643 140.37L89.5882 139.409L88.627 139.685L88.9031 140.646L89.8643 140.37ZM90.6024 140.158L91.5635 139.882L91.2874 138.921L90.3263 139.197L90.6024 140.158ZM89.2403 144.37L88.5738 145.116L89.1728 145.651L89.8248 145.182L89.2403 144.37ZM88.5851 143.784L88.0171 142.961L86.9715 143.683L87.9185 144.53L88.5851 143.784ZM90.0834 140.307L89.8073 139.346L88.8462 139.622L89.1223 140.584L90.0834 140.307ZM90.787 140.105L91.7481 139.829L91.472 138.868L90.5109 139.144L90.787 140.105ZM93.4755 142.467L94.4497 142.692L94.7102 141.566L93.5585 141.47L93.4755 142.467ZM93.2805 143.309L93.2041 144.306L94.061 144.372L94.2548 143.535L93.2805 143.309ZM93.6934 139.27L93.4173 138.309L92.4562 138.585L92.7323 139.546L93.6934 139.27ZM94.397 139.068L95.3581 138.792L95.082 137.831L94.1209 138.107L94.397 139.068ZM93.2805 143.309L92.5658 144.009L93.1929 144.65L93.8981 144.096L93.2805 143.309ZM92.6796 142.695L92.0411 141.926L91.2057 142.619L91.965 143.395L92.6796 142.695ZM93.8895 139.214L93.6134 138.253L92.6523 138.529L92.9283 139.49L93.8895 139.214ZM94.6276 139.002L95.5888 138.726L95.3127 137.765L94.3515 138.041L94.6276 139.002ZM97.5351 141.213L98.4925 141.502L98.8712 140.248L97.5613 140.214L97.5351 141.213ZM97.2792 142.061L97.2304 143.06L98.0107 143.098L98.2365 142.35L97.2792 142.061ZM93.3198 133.102L94.2309 132.84L93.6787 130.918L92.7676 131.18L93.3198 133.102ZM92.9937 132.155L94.8457 138.602L96.768 138.05L94.9159 131.603L92.9937 132.155ZM95.5308 137.365L94.6196 137.627L95.1718 139.549L96.083 139.287L95.5308 137.365ZM95.8568 138.312L94.0048 131.865L92.0825 132.417L93.9346 138.864L95.8568 138.312ZM92.4427 136.438L94.4149 135.871L93.8627 133.949L91.8905 134.515L92.4427 136.438ZM93.1777 135.186L93.403 135.97L95.3252 135.418L95.0999 134.634L93.1777 135.186ZM94.088 134.733L92.1158 135.3L92.668 137.222L94.6402 136.655L94.088 134.733ZM93.353 135.985L93.1277 135.2L91.2054 135.753L91.4307 136.537L93.353 135.985ZM91.1484 133.888L92.0595 133.626L91.5073 131.704L90.5962 131.966L91.1484 133.888ZM90.8223 132.941L92.5882 139.088L94.5105 138.536L92.7446 132.389L90.8223 132.941ZM93.2733 137.851L92.3621 138.113L92.9143 140.035L93.8254 139.774L93.2733 137.851ZM93.5993 138.798L91.8334 132.651L89.9112 133.203L91.6771 139.35L93.5993 138.798ZM85.7341 136.554L91.0165 135.037L90.4643 133.115L85.182 134.632L85.7341 136.554ZM89.7793 134.352L89.998 135.113L91.9202 134.561L91.7015 133.8L89.7793 134.352ZM90.683 133.876L85.4006 135.393L85.9528 137.316L91.2352 135.798L90.683 133.876ZM86.6378 136.078L86.4192 135.317L84.4969 135.869L84.7156 136.631L86.6378 136.078ZM88.7546 137.073C89.2418 136.933 89.6063 136.971 89.8313 137.064C90.0332 137.148 90.1746 137.293 90.2454 137.539L92.1676 136.987C91.927 136.149 91.3561 135.531 90.5976 135.217C89.8623 134.912 89.0185 134.916 88.2024 135.15L88.7546 137.073ZM90.2454 137.539C90.3162 137.786 90.2732 137.983 90.1466 138.162C90.0054 138.36 89.7167 138.586 89.2295 138.726L89.7817 140.648C90.5978 140.414 91.3152 139.969 91.7765 139.321C92.2524 138.651 92.4083 137.825 92.1676 136.987L90.2454 137.539ZM89.2295 138.726C88.7348 138.868 88.367 138.83 88.1411 138.737C87.9389 138.653 87.7979 138.509 87.7272 138.262L85.805 138.815C86.0457 139.653 86.6171 140.271 87.3781 140.585C88.1153 140.89 88.9616 140.884 89.7817 140.648L89.2295 138.726ZM87.7272 138.262C87.6565 138.016 87.6993 137.819 87.8264 137.641C87.9684 137.442 88.2599 137.215 88.7546 137.073L88.2024 135.15C87.3823 135.386 86.6619 135.83 86.1985 136.479C85.7202 137.149 85.5643 137.977 85.805 138.815L87.7272 138.262ZM88.4112 135.877C87.85 136.038 87.3242 136.342 86.9729 136.817C86.6038 137.316 86.4781 137.942 86.6584 138.569L88.5807 138.017C88.5746 137.996 88.5786 137.996 88.5763 138.008C88.5741 138.02 88.5706 138.02 88.5806 138.007C88.6048 137.974 88.7056 137.873 88.9633 137.799L88.4112 135.877ZM86.6584 138.569C86.8382 139.195 87.2753 139.66 87.8498 139.891C88.3995 140.112 89.0094 140.096 89.5763 139.933L89.0241 138.011C88.7721 138.083 88.6345 138.051 88.5949 138.035C88.5778 138.028 88.5785 138.025 88.5845 138.031C88.5909 138.038 88.5868 138.039 88.5807 138.017L86.6584 138.569ZM89.5763 139.933C90.1402 139.771 90.6625 139.46 91.0089 138.982C91.3704 138.482 91.4938 137.857 91.3142 137.232L89.3919 137.784C89.398 137.806 89.3946 137.808 89.3962 137.799C89.3976 137.791 89.3997 137.794 89.389 137.809C89.3644 137.843 89.2675 137.941 89.0241 138.011L89.5763 139.933ZM91.3142 137.232C91.134 136.605 90.696 136.142 90.1216 135.914C89.5741 135.697 88.9693 135.717 88.4112 135.877L88.9633 137.799C89.2126 137.728 89.3479 137.759 89.3851 137.774C89.4005 137.78 89.3979 137.782 89.3903 137.774C89.3822 137.765 89.3858 137.763 89.3919 137.784L91.3142 137.232ZM87.586 134.786L88.5202 134.518L87.968 132.596L87.0338 132.864L87.586 134.786ZM87.283 133.833L87.7402 135.425L89.6625 134.872L89.2052 133.281L87.283 133.833ZM88.4252 134.187L87.491 134.456L88.0432 136.378L88.9774 136.11L88.4252 134.187ZM88.7282 135.141L88.271 133.549L86.3488 134.101L86.806 135.693L88.7282 135.141ZM90.1404 141.331L90.8785 141.119L90.3263 139.197L89.5882 139.409L90.1404 141.331ZM89.6413 140.434L89.744 140.792L91.6663 140.24L91.5635 139.882L89.6413 140.434ZM89.744 140.792C89.9996 141.682 89.6851 142.817 88.6559 143.559L89.8248 145.182C91.5059 143.971 92.166 141.98 91.6663 140.24L89.744 140.792ZM89.9069 143.625L89.2517 143.039L87.9185 144.53L88.5738 145.116L89.9069 143.625ZM89.1531 144.607C90.5998 143.609 91.3443 141.901 90.9281 140.452L89.0058 141.004C89.133 141.447 88.9252 142.334 88.0171 142.961L89.1531 144.607ZM90.9281 140.452L90.8254 140.094L88.9031 140.646L89.0058 141.004L90.9281 140.452ZM90.3595 141.269L91.063 141.066L90.5109 139.144L89.8073 139.346L90.3595 141.269ZM89.8258 140.381L89.9285 140.739L91.8508 140.187L91.7481 139.829L89.8258 140.381ZM89.9285 140.739C90.3302 142.137 91.5926 143.313 93.3925 143.463L93.5585 141.47C92.5954 141.39 92.0256 140.795 91.8508 140.187L89.9285 140.739ZM92.5012 142.241L92.3062 143.084L94.2548 143.535L94.4497 142.692L92.5012 142.241ZM93.3569 142.312C92.2211 142.225 91.4415 141.413 91.1472 140.389L89.225 140.941C89.6928 142.57 91.0462 144.141 93.2041 144.306L93.3569 142.312ZM91.1472 140.389L91.0445 140.031L89.1223 140.584L89.225 140.941L91.1472 140.389ZM93.9695 140.232L94.6731 140.029L94.1209 138.107L93.4173 138.309L93.9695 140.232ZM93.4358 139.344L93.5385 139.702L95.4608 139.15L95.3581 138.792L93.4358 139.344ZM93.5385 139.702C93.7891 140.574 93.5812 141.802 92.663 142.523L93.8981 144.096C95.5878 142.769 95.8861 140.63 95.4608 139.15L93.5385 139.702ZM93.9952 142.61L93.3943 141.996L91.965 143.395L92.5658 144.009L93.9952 142.61ZM93.3182 143.465C94.665 142.347 95.1215 140.62 94.7572 139.352L92.835 139.904C92.9677 140.366 92.8116 141.287 92.0411 141.926L93.3182 143.465ZM94.7572 139.352L94.6545 138.994L92.7323 139.546L92.835 139.904L94.7572 139.352ZM94.1656 140.175L94.9037 139.963L94.3515 138.041L93.6134 138.253L94.1656 140.175ZM93.6665 139.278L93.7692 139.636L95.6915 139.083L95.5888 138.726L93.6665 139.278ZM93.7692 139.636C94.2071 141.16 95.7402 142.167 97.509 142.213L97.5613 140.214C96.4619 140.185 95.8367 139.589 95.6915 139.083L93.7692 139.636ZM96.5778 140.924L96.3219 141.772L98.2365 142.35L98.4925 141.502L96.5778 140.924ZM97.328 141.062C96.0713 141.001 95.2293 140.256 94.9533 139.296L93.0311 139.848C93.5502 141.655 95.1441 142.958 97.2304 143.06L97.328 141.062ZM94.9533 139.296L94.8506 138.938L92.9283 139.49L93.0311 139.848L94.9533 139.296Z" fill="#6E6D6B" mask="url(#path-8-outside-4_2_386)"/>
<mask id="path-10-outside-5_2_386" maskUnits="userSpaceOnUse" x="97.3144" y="123.481" width="16.9957" height="17.3339" fill="black">
<rect fill="white" x="97.3144" y="123.481" width="16.9957" height="17.3339"/>
<path d="M102.15 129.006C103.495 128.193 105.224 128.872 106.416 130.843C107.615 132.825 107.413 134.672 106.068 135.485C104.713 136.305 102.994 135.62 101.795 133.638C100.603 131.666 100.794 129.826 102.15 129.006ZM102.615 129.776C101.722 130.317 101.7 131.648 102.607 133.147C103.52 134.657 104.722 135.276 105.615 134.736C106.508 134.196 106.518 132.843 105.605 131.334C104.698 129.835 103.509 129.236 102.615 129.776ZM106.038 125.673L106.88 125.164L112.506 134.467L111.664 134.976L106.038 125.673ZM105.891 130.6L108.55 128.992L108.972 129.69L106.313 131.299L105.891 130.6Z"/>
</mask>
<path d="M102.15 129.006C103.495 128.193 105.224 128.872 106.416 130.843C107.615 132.825 107.413 134.672 106.068 135.485C104.713 136.305 102.994 135.62 101.795 133.638C100.603 131.666 100.794 129.826 102.15 129.006ZM102.615 129.776C101.722 130.317 101.7 131.648 102.607 133.147C103.52 134.657 104.722 135.276 105.615 134.736C106.508 134.196 106.518 132.843 105.605 131.334C104.698 129.835 103.509 129.236 102.615 129.776ZM106.038 125.673L106.88 125.164L112.506 134.467L111.664 134.976L106.038 125.673ZM105.891 130.6L108.55 128.992L108.972 129.69L106.313 131.299L105.891 130.6Z" fill="white"/>
<path d="M106.038 125.673L105.52 124.817L104.665 125.335L105.182 126.19L106.038 125.673ZM106.88 125.164L107.736 124.646L107.218 123.791L106.362 124.308L106.88 125.164ZM112.506 134.467L113.024 135.322L113.879 134.805L113.362 133.949L112.506 134.467ZM111.664 134.976L110.808 135.493L111.326 136.349L112.182 135.832L111.664 134.976ZM105.891 130.6L105.373 129.745L104.517 130.262L105.035 131.118L105.891 130.6ZM108.55 128.992L109.406 128.474L108.888 127.619L108.033 128.136L108.55 128.992ZM108.972 129.69L109.49 130.546L110.345 130.028L109.828 129.173L108.972 129.69ZM106.313 131.299L105.457 131.816L105.975 132.672L106.83 132.154L106.313 131.299ZM102.667 129.862C103.042 129.635 103.471 129.6 103.953 129.802C104.459 130.015 105.043 130.505 105.56 131.361L107.272 130.326C106.597 129.21 105.72 128.375 104.727 127.958C103.71 127.532 102.603 127.563 101.632 128.15L102.667 129.862ZM105.56 131.361C106.082 132.223 106.246 132.97 106.2 133.518C106.155 134.04 105.925 134.403 105.551 134.63L106.586 136.341C107.556 135.754 108.099 134.787 108.192 133.687C108.283 132.612 107.949 131.446 107.272 130.326L105.56 131.361ZM105.551 134.63C105.17 134.86 104.741 134.894 104.262 134.691C103.758 134.478 103.173 133.984 102.651 133.12L100.94 134.155C101.616 135.273 102.49 136.113 103.484 136.533C104.503 136.964 105.611 136.93 106.586 136.341L105.551 134.63ZM102.651 133.12C102.132 132.263 101.968 131.519 102.014 130.974C102.057 130.457 102.286 130.092 102.667 129.862L101.632 128.15C100.658 128.74 100.113 129.705 100.021 130.806C99.9303 131.879 100.266 133.041 100.94 134.155L102.651 133.12ZM102.098 128.921C101.294 129.407 100.942 130.237 100.936 131.096C100.931 131.925 101.237 132.814 101.751 133.665L103.462 132.63C103.07 131.981 102.934 131.455 102.936 131.109C102.938 130.792 103.044 130.686 103.133 130.632L102.098 128.921ZM101.751 133.665C102.268 134.52 102.916 135.209 103.654 135.596C104.415 135.995 105.32 136.083 106.132 135.591L105.097 133.88C105.016 133.929 104.874 133.977 104.583 133.825C104.267 133.659 103.858 133.284 103.462 132.63L101.751 133.665ZM106.132 135.591C106.945 135.1 107.287 134.258 107.287 133.398C107.287 132.566 106.978 131.671 106.461 130.816L104.749 131.851C105.145 132.506 105.287 133.042 105.287 133.398C105.287 133.727 105.178 133.831 105.097 133.88L106.132 135.591ZM106.461 130.816C105.946 129.966 105.301 129.282 104.564 128.902C103.8 128.508 102.902 128.434 102.098 128.921L103.133 130.632C103.222 130.578 103.365 130.534 103.647 130.679C103.954 130.838 104.357 131.203 104.749 131.851L106.461 130.816ZM106.555 126.529L107.397 126.019L106.362 124.308L105.52 124.817L106.555 126.529ZM106.024 125.681L111.65 134.984L113.362 133.949L107.736 124.646L106.024 125.681ZM111.989 133.611L111.147 134.12L112.182 135.832L113.024 135.322L111.989 133.611ZM112.52 134.459L106.894 125.155L105.182 126.19L110.808 135.493L112.52 134.459ZM106.408 131.456L109.068 129.848L108.033 128.136L105.373 129.745L106.408 131.456ZM107.694 129.509L108.117 130.208L109.828 129.173L109.406 128.474L107.694 129.509ZM108.455 128.835L105.795 130.443L106.83 132.154L109.49 130.546L108.455 128.835ZM107.169 130.781L106.746 130.083L105.035 131.118L105.457 131.816L107.169 130.781Z" fill="#6E6D6B" mask="url(#path-10-outside-5_2_386)"/>
<mask id="path-12-outside-6_2_386" maskUnits="userSpaceOnUse" x="109.739" y="112.691" width="17.6571" height="17.6892" fill="black">
<rect fill="white" x="109.739" y="112.691" width="17.6571" height="17.6892"/>
<path d="M117.323 123.804L118.003 123.093L120.354 125.34L119.674 126.051L117.323 123.804ZM120.092 120.907L120.78 120.187L123.131 122.433L122.443 123.153L120.092 120.907ZM117.877 127.654L124.667 120.548L125.266 121.12L118.476 128.226L117.877 127.654ZM115.508 118.617C117.091 116.96 119.017 116.526 120.248 117.703C121.472 118.872 121.125 120.815 119.542 122.472C117.95 124.138 116.025 124.572 114.802 123.403C113.57 122.226 113.916 120.283 115.508 118.617ZM116.08 119.165C114.878 120.423 114.589 121.872 115.465 122.709C116.332 123.538 117.767 123.183 118.969 121.925C120.172 120.667 120.453 119.226 119.585 118.397C118.709 117.56 117.282 117.907 116.08 119.165Z"/>
</mask>
<path d="M117.323 123.804L118.003 123.093L120.354 125.34L119.674 126.051L117.323 123.804ZM120.092 120.907L120.78 120.187L123.131 122.433L122.443 123.153L120.092 120.907ZM117.877 127.654L124.667 120.548L125.266 121.12L118.476 128.226L117.877 127.654ZM115.508 118.617C117.091 116.96 119.017 116.526 120.248 117.703C121.472 118.872 121.125 120.815 119.542 122.472C117.95 124.138 116.025 124.572 114.802 123.403C113.57 122.226 113.916 120.283 115.508 118.617ZM116.08 119.165C114.878 120.423 114.589 121.872 115.465 122.709C116.332 123.538 117.767 123.183 118.969 121.925C120.172 120.667 120.453 119.226 119.585 118.397C118.709 117.56 117.282 117.907 116.08 119.165Z" fill="white"/>
<path d="M117.323 123.804L116.6 123.114L115.909 123.837L116.632 124.527L117.323 123.804ZM118.003 123.093L118.694 122.37L117.971 121.679L117.28 122.402L118.003 123.093ZM120.354 125.34L121.077 126.031L121.768 125.308L121.045 124.617L120.354 125.34ZM119.674 126.051L118.983 126.774L119.706 127.465L120.397 126.742L119.674 126.051ZM120.092 120.907L119.369 120.216L118.678 120.939L119.401 121.63L120.092 120.907ZM120.78 120.187L121.471 119.464L120.748 118.773L120.057 119.496L120.78 120.187ZM123.131 122.433L123.854 123.124L124.545 122.401L123.822 121.71L123.131 122.433ZM122.443 123.153L121.752 123.876L122.475 124.567L123.166 123.844L122.443 123.153ZM117.877 127.654L117.154 126.963L116.463 127.686L117.186 128.377L117.877 127.654ZM124.667 120.548L125.358 119.825L124.635 119.134L123.944 119.857L124.667 120.548ZM125.266 121.12L125.989 121.811L126.68 121.088L125.957 120.397L125.266 121.12ZM118.476 128.226L117.785 128.949L118.508 129.64L119.199 128.917L118.476 128.226ZM118.046 124.495L118.726 123.784L117.28 122.402L116.6 123.114L118.046 124.495ZM117.312 123.816L119.663 126.063L121.045 124.617L118.694 122.37L117.312 123.816ZM119.631 124.649L118.951 125.36L120.397 126.742L121.077 126.031L119.631 124.649ZM120.365 125.328L118.014 123.081L116.632 124.527L118.983 126.774L120.365 125.328ZM120.815 121.598L121.503 120.877L120.057 119.496L119.369 120.216L120.815 121.598ZM120.089 120.91L122.44 123.156L123.822 121.71L121.471 119.464L120.089 120.91ZM122.408 121.742L121.72 122.463L123.166 123.844L123.854 123.124L122.408 121.742ZM123.134 122.43L120.783 120.184L119.401 121.63L121.752 123.876L123.134 122.43ZM118.6 128.344L125.39 121.239L123.944 119.857L117.154 126.963L118.6 128.344ZM123.976 121.271L124.575 121.843L125.957 120.397L125.358 119.825L123.976 121.271ZM124.543 120.429L117.753 127.535L119.199 128.917L125.989 121.811L124.543 120.429ZM119.167 127.503L118.568 126.931L117.186 128.377L117.785 128.949L119.167 127.503ZM116.231 119.308C116.922 118.585 117.626 118.195 118.208 118.078C118.76 117.966 119.205 118.09 119.558 118.426L120.939 116.98C120.059 116.14 118.927 115.892 117.812 116.117C116.727 116.337 115.677 116.993 114.785 117.926L116.231 119.308ZM119.558 118.426C119.904 118.757 120.047 119.193 119.96 119.75C119.868 120.336 119.51 121.058 118.819 121.782L120.265 123.163C121.157 122.23 121.764 121.151 121.936 120.06C122.112 118.939 121.817 117.819 120.939 116.98L119.558 118.426ZM118.819 121.782C118.123 122.51 117.416 122.902 116.833 123.021C116.28 123.134 115.838 123.011 115.493 122.68L114.111 124.126C114.988 124.965 116.121 125.209 117.234 124.981C118.318 124.759 119.369 124.1 120.265 123.163L118.819 121.782ZM115.493 122.68C115.141 122.344 114.997 121.905 115.084 121.348C115.176 120.761 115.535 120.037 116.231 119.308L114.785 117.926C113.889 118.864 113.279 119.944 113.108 121.039C112.932 122.164 113.231 123.285 114.111 124.126L115.493 122.68ZM115.357 118.474C114.662 119.202 114.167 120.049 114.009 120.916C113.847 121.811 114.052 122.742 114.774 123.432L116.156 121.986C116.001 121.839 115.913 121.627 115.977 121.273C116.046 120.892 116.297 120.385 116.803 119.855L115.357 118.474ZM114.774 123.432C115.494 124.121 116.434 124.278 117.316 124.074C118.174 123.877 118.996 123.344 119.692 122.616L118.246 121.234C117.74 121.764 117.245 122.038 116.867 122.125C116.515 122.207 116.303 122.127 116.156 121.986L114.774 123.432ZM119.692 122.616C120.388 121.888 120.881 121.043 121.038 120.178C121.199 119.286 120.993 118.36 120.276 117.674L118.894 119.12C119.045 119.264 119.133 119.472 119.069 119.823C119.001 120.2 118.753 120.705 118.246 121.234L119.692 122.616ZM120.276 117.674C119.557 116.987 118.622 116.819 117.735 117.02C116.876 117.214 116.053 117.745 115.357 118.474L116.803 119.855C117.31 119.326 117.802 119.055 118.175 118.971C118.521 118.893 118.737 118.97 118.894 119.12L120.276 117.674Z" fill="#6E6D6B" mask="url(#path-12-outside-6_2_386)"/>
<mask id="path-14-outside-7_2_386" maskUnits="userSpaceOnUse" x="35" y="71" width="81" height="24" fill="black">
<rect fill="white" x="35" y="71" width="81" height="24"/>
<path d="M41.588 74.61H43.964V75.908C43.964 79.736 42.16 83.278 38.244 84.554L36.77 82.244C40.136 81.144 41.588 78.46 41.588 75.908V74.61ZM42.204 74.61H44.558V75.908C44.558 78.284 45.944 80.792 49.156 81.87L47.726 84.158C43.942 82.904 42.204 79.516 42.204 75.908V74.61ZM47.968 77.448H51.84V79.824H47.968V77.448ZM37.562 73.708H48.518V76.018H37.562V73.708ZM40.048 85.632H53.93V92.958H51.004V87.964H40.048V85.632ZM51.004 72.586H53.93V84.708H51.004V72.586ZM59.3843 73.488H72.2983V75.82H59.3843V73.488ZM57.1403 80.814H75.5763V83.146H57.1403V80.814ZM70.5383 73.488H73.4203V75.116C73.4203 76.876 73.4203 78.768 72.8043 81.408L69.9003 81.364C70.5383 78.724 70.5383 76.854 70.5383 75.116V73.488ZM59.2963 85.28H73.3323V92.738H59.2963V85.28ZM70.4503 87.546H62.1563V90.428H70.4503V87.546ZM77.3786 80.484H95.8146V82.794H77.3786V80.484ZM79.6446 77.096H93.6366V79.384H79.6446V77.096ZM79.6446 72.96H93.4606V75.292H82.5486V79.076H79.6446V72.96ZM79.4686 83.938H93.5486V89.328H82.3726V91.088H79.4906V87.26H90.6666V86.138H79.4686V83.938ZM79.4906 90.56H94.0766V92.804H79.4906V90.56ZM103.183 73.994C106.219 73.994 108.441 76.81 108.441 81.254C108.441 85.742 106.219 88.558 103.183 88.558C100.125 88.558 97.9248 85.742 97.9248 81.254C97.9248 76.81 100.125 73.994 103.183 73.994ZM103.183 76.656C101.709 76.656 100.719 78.262 100.719 81.254C100.719 84.29 101.709 85.918 103.183 85.918C104.679 85.918 105.647 84.29 105.647 81.254C105.647 78.262 104.679 76.656 103.183 76.656ZM111.785 72.564H114.689V93.002H111.785V72.564ZM107.583 79.912H113.017V82.266H107.583V79.912Z"/>
</mask>
<path d="M41.588 74.61H43.964V75.908C43.964 79.736 42.16 83.278 38.244 84.554L36.77 82.244C40.136 81.144 41.588 78.46 41.588 75.908V74.61ZM42.204 74.61H44.558V75.908C44.558 78.284 45.944 80.792 49.156 81.87L47.726 84.158C43.942 82.904 42.204 79.516 42.204 75.908V74.61ZM47.968 77.448H51.84V79.824H47.968V77.448ZM37.562 73.708H48.518V76.018H37.562V73.708ZM40.048 85.632H53.93V92.958H51.004V87.964H40.048V85.632ZM51.004 72.586H53.93V84.708H51.004V72.586ZM59.3843 73.488H72.2983V75.82H59.3843V73.488ZM57.1403 80.814H75.5763V83.146H57.1403V80.814ZM70.5383 73.488H73.4203V75.116C73.4203 76.876 73.4203 78.768 72.8043 81.408L69.9003 81.364C70.5383 78.724 70.5383 76.854 70.5383 75.116V73.488ZM59.2963 85.28H73.3323V92.738H59.2963V85.28ZM70.4503 87.546H62.1563V90.428H70.4503V87.546ZM77.3786 80.484H95.8146V82.794H77.3786V80.484ZM79.6446 77.096H93.6366V79.384H79.6446V77.096ZM79.6446 72.96H93.4606V75.292H82.5486V79.076H79.6446V72.96ZM79.4686 83.938H93.5486V89.328H82.3726V91.088H79.4906V87.26H90.6666V86.138H79.4686V83.938ZM79.4906 90.56H94.0766V92.804H79.4906V90.56ZM103.183 73.994C106.219 73.994 108.441 76.81 108.441 81.254C108.441 85.742 106.219 88.558 103.183 88.558C100.125 88.558 97.9248 85.742 97.9248 81.254C97.9248 76.81 100.125 73.994 103.183 73.994ZM103.183 76.656C101.709 76.656 100.719 78.262 100.719 81.254C100.719 84.29 101.709 85.918 103.183 85.918C104.679 85.918 105.647 84.29 105.647 81.254C105.647 78.262 104.679 76.656 103.183 76.656ZM111.785 72.564H114.689V93.002H111.785V72.564ZM107.583 79.912H113.017V82.266H107.583V79.912Z" fill="#6E6D6B"/>
<path d="M41.588 74.61V73.61H40.588V74.61H41.588ZM43.964 74.61H44.964V73.61H43.964V74.61ZM38.244 84.554L37.401 85.0919L37.8175 85.7447L38.5538 85.5048L38.244 84.554ZM36.77 82.244L36.4594 81.2935L35.233 81.6943L35.927 82.7819L36.77 82.244ZM42.204 74.61V73.61H41.204V74.61H42.204ZM44.558 74.61H45.558V73.61H44.558V74.61ZM49.156 81.87L50.004 82.4L50.6757 81.3252L49.4742 80.922L49.156 81.87ZM47.726 84.158L47.4114 85.1072L48.1575 85.3545L48.574 84.688L47.726 84.158ZM47.968 77.448V76.448H46.968V77.448H47.968ZM51.84 77.448H52.84V76.448H51.84V77.448ZM51.84 79.824V80.824H52.84V79.824H51.84ZM47.968 79.824H46.968V80.824H47.968V79.824ZM37.562 73.708V72.708H36.562V73.708H37.562ZM48.518 73.708H49.518V72.708H48.518V73.708ZM48.518 76.018V77.018H49.518V76.018H48.518ZM37.562 76.018H36.562V77.018H37.562V76.018ZM40.048 85.632V84.632H39.048V85.632H40.048ZM53.93 85.632H54.93V84.632H53.93V85.632ZM53.93 92.958V93.958H54.93V92.958H53.93ZM51.004 92.958H50.004V93.958H51.004V92.958ZM51.004 87.964H52.004V86.964H51.004V87.964ZM40.048 87.964H39.048V88.964H40.048V87.964ZM51.004 72.586V71.586H50.004V72.586H51.004ZM53.93 72.586H54.93V71.586H53.93V72.586ZM53.93 84.708V85.708H54.93V84.708H53.93ZM51.004 84.708H50.004V85.708H51.004V84.708ZM41.588 75.61H43.964V73.61H41.588V75.61ZM42.964 74.61V75.908H44.964V74.61H42.964ZM42.964 75.908C42.964 79.4326 41.3275 82.4975 37.9342 83.6032L38.5538 85.5048C42.9925 84.0585 44.964 80.0394 44.964 75.908H42.964ZM39.087 84.0161L37.613 81.7061L35.927 82.7819L37.401 85.0919L39.087 84.0161ZM37.0806 83.1945C40.8887 81.95 42.588 78.8592 42.588 75.908H40.588C40.588 78.0608 39.3833 80.338 36.4594 81.2935L37.0806 83.1945ZM42.588 75.908V74.61H40.588V75.908H42.588ZM42.204 75.61H44.558V73.61H42.204V75.61ZM43.558 74.61V75.908H45.558V74.61H43.558ZM43.558 75.908C43.558 78.6998 45.2054 81.5989 48.8378 82.818L49.4742 80.922C46.6826 79.9851 45.558 77.8682 45.558 75.908H43.558ZM48.308 81.34L46.878 83.628L48.574 84.688L50.004 82.4L48.308 81.34ZM48.0406 83.2088C44.7663 82.1237 43.204 79.2013 43.204 75.908H41.204C41.204 79.8307 43.1177 83.6843 47.4114 85.1072L48.0406 83.2088ZM43.204 75.908V74.61H41.204V75.908H43.204ZM47.968 78.448H51.84V76.448H47.968V78.448ZM50.84 77.448V79.824H52.84V77.448H50.84ZM51.84 78.824H47.968V80.824H51.84V78.824ZM48.968 79.824V77.448H46.968V79.824H48.968ZM37.562 74.708H48.518V72.708H37.562V74.708ZM47.518 73.708V76.018H49.518V73.708H47.518ZM48.518 75.018H37.562V77.018H48.518V75.018ZM38.562 76.018V73.708H36.562V76.018H38.562ZM40.048 86.632H53.93V84.632H40.048V86.632ZM52.93 85.632V92.958H54.93V85.632H52.93ZM53.93 91.958H51.004V93.958H53.93V91.958ZM52.004 92.958V87.964H50.004V92.958H52.004ZM51.004 86.964H40.048V88.964H51.004V86.964ZM41.048 87.964V85.632H39.048V87.964H41.048ZM51.004 73.586H53.93V71.586H51.004V73.586ZM52.93 72.586V84.708H54.93V72.586H52.93ZM53.93 83.708H51.004V85.708H53.93V83.708ZM52.004 84.708V72.586H50.004V84.708H52.004ZM59.3843 73.488V72.488H58.3843V73.488H59.3843ZM72.2983 73.488H73.2983V72.488H72.2983V73.488ZM72.2983 75.82V76.82H73.2983V75.82H72.2983ZM59.3843 75.82H58.3843V76.82H59.3843V75.82ZM57.1403 80.814V79.814H56.1403V80.814H57.1403ZM75.5763 80.814H76.5763V79.814H75.5763V80.814ZM75.5763 83.146V84.146H76.5763V83.146H75.5763ZM57.1403 83.146H56.1403V84.146H57.1403V83.146ZM70.5383 73.488V72.488H69.5383V73.488H70.5383ZM73.4203 73.488H74.4203V72.488H73.4203V73.488ZM72.8043 81.408L72.7891 82.4079L73.595 82.4201L73.7781 81.6352L72.8043 81.408ZM69.9003 81.364L68.9283 81.1291L68.6344 82.3449L69.8851 82.3639L69.9003 81.364ZM59.2963 85.28V84.28H58.2963V85.28H59.2963ZM73.3323 85.28H74.3323V84.28H73.3323V85.28ZM73.3323 92.738V93.738H74.3323V92.738H73.3323ZM59.2963 92.738H58.2963V93.738H59.2963V92.738ZM70.4503 87.546H71.4503V86.546H70.4503V87.546ZM62.1563 87.546V86.546H61.1563V87.546H62.1563ZM62.1563 90.428H61.1563V91.428H62.1563V90.428ZM70.4503 90.428V91.428H71.4503V90.428H70.4503ZM59.3843 74.488H72.2983V72.488H59.3843V74.488ZM71.2983 73.488V75.82H73.2983V73.488H71.2983ZM72.2983 74.82H59.3843V76.82H72.2983V74.82ZM60.3843 75.82V73.488H58.3843V75.82H60.3843ZM57.1403 81.814H75.5763V79.814H57.1403V81.814ZM74.5763 80.814V83.146H76.5763V80.814H74.5763ZM75.5763 82.146H57.1403V84.146H75.5763V82.146ZM58.1403 83.146V80.814H56.1403V83.146H58.1403ZM70.5383 74.488H73.4203V72.488H70.5383V74.488ZM72.4203 73.488V75.116H74.4203V73.488H72.4203ZM72.4203 75.116C72.4203 76.8616 72.4191 78.658 71.8304 81.1808L73.7781 81.6352C74.4215 78.878 74.4203 76.8904 74.4203 75.116H72.4203ZM72.8194 80.4081L69.9154 80.3641L69.8851 82.3639L72.7891 82.4079L72.8194 80.4081ZM70.8723 81.5989C71.5394 78.8384 71.5383 76.8702 71.5383 75.116H69.5383C69.5383 76.8378 69.5372 78.6096 68.9283 81.1291L70.8723 81.5989ZM71.5383 75.116V73.488H69.5383V75.116H71.5383ZM59.2963 86.28H73.3323V84.28H59.2963V86.28ZM72.3323 85.28V92.738H74.3323V85.28H72.3323ZM73.3323 91.738H59.2963V93.738H73.3323V91.738ZM60.2963 92.738V85.28H58.2963V92.738H60.2963ZM70.4503 86.546H62.1563V88.546H70.4503V86.546ZM61.1563 87.546V90.428H63.1563V87.546H61.1563ZM62.1563 91.428H70.4503V89.428H62.1563V91.428ZM71.4503 90.428V87.546H69.4503V90.428H71.4503ZM77.3786 80.484V79.484H76.3786V80.484H77.3786ZM95.8146 80.484H96.8146V79.484H95.8146V80.484ZM95.8146 82.794V83.794H96.8146V82.794H95.8146ZM77.3786 82.794H76.3786V83.794H77.3786V82.794ZM79.6446 77.096V76.096H78.6446V77.096H79.6446ZM93.6366 77.096H94.6366V76.096H93.6366V77.096ZM93.6366 79.384V80.384H94.6366V79.384H93.6366ZM79.6446 79.384H78.6446V80.384H79.6446V79.384ZM79.6446 72.96V71.96H78.6446V72.96H79.6446ZM93.4606 72.96H94.4606V71.96H93.4606V72.96ZM93.4606 75.292V76.292H94.4606V75.292H93.4606ZM82.5486 75.292V74.292H81.5486V75.292H82.5486ZM82.5486 79.076V80.076H83.5486V79.076H82.5486ZM79.6446 79.076H78.6446V80.076H79.6446V79.076ZM79.4686 83.938V82.938H78.4686V83.938H79.4686ZM93.5486 83.938H94.5486V82.938H93.5486V83.938ZM93.5486 89.328V90.328H94.5486V89.328H93.5486ZM82.3726 89.328V88.328H81.3726V89.328H82.3726ZM82.3726 91.088V92.088H83.3726V91.088H82.3726ZM79.4906 91.088H78.4906V92.088H79.4906V91.088ZM79.4906 87.26V86.26H78.4906V87.26H79.4906ZM90.6666 87.26V88.26H91.6666V87.26H90.6666ZM90.6666 86.138H91.6666V85.138H90.6666V86.138ZM79.4686 86.138H78.4686V87.138H79.4686V86.138ZM79.4906 90.56V89.56H78.4906V90.56H79.4906ZM94.0766 90.56H95.0766V89.56H94.0766V90.56ZM94.0766 92.804V93.804H95.0766V92.804H94.0766ZM79.4906 92.804H78.4906V93.804H79.4906V92.804ZM77.3786 81.484H95.8146V79.484H77.3786V81.484ZM94.8146 80.484V82.794H96.8146V80.484H94.8146ZM95.8146 81.794H77.3786V83.794H95.8146V81.794ZM78.3786 82.794V80.484H76.3786V82.794H78.3786ZM79.6446 78.096H93.6366V76.096H79.6446V78.096ZM92.6366 77.096V79.384H94.6366V77.096H92.6366ZM93.6366 78.384H79.6446V80.384H93.6366V78.384ZM80.6446 79.384V77.096H78.6446V79.384H80.6446ZM79.6446 73.96H93.4606V71.96H79.6446V73.96ZM92.4606 72.96V75.292H94.4606V72.96H92.4606ZM93.4606 74.292H82.5486V76.292H93.4606V74.292ZM81.5486 75.292V79.076H83.5486V75.292H81.5486ZM82.5486 78.076H79.6446V80.076H82.5486V78.076ZM80.6446 79.076V72.96H78.6446V79.076H80.6446ZM79.4686 84.938H93.5486V82.938H79.4686V84.938ZM92.5486 83.938V89.328H94.5486V83.938H92.5486ZM93.5486 88.328H82.3726V90.328H93.5486V88.328ZM81.3726 89.328V91.088H83.3726V89.328H81.3726ZM82.3726 90.088H79.4906V92.088H82.3726V90.088ZM80.4906 91.088V87.26H78.4906V91.088H80.4906ZM79.4906 88.26H90.6666V86.26H79.4906V88.26ZM91.6666 87.26V86.138H89.6666V87.26H91.6666ZM90.6666 85.138H79.4686V87.138H90.6666V85.138ZM80.4686 86.138V83.938H78.4686V86.138H80.4686ZM79.4906 91.56H94.0766V89.56H79.4906V91.56ZM93.0766 90.56V92.804H95.0766V90.56H93.0766ZM94.0766 91.804H79.4906V93.804H94.0766V91.804ZM80.4906 92.804V90.56H78.4906V92.804H80.4906ZM111.785 72.564V71.564H110.785V72.564H111.785ZM114.689 72.564H115.689V71.564H114.689V72.564ZM114.689 93.002V94.002H115.689V93.002H114.689ZM111.785 93.002H110.785V94.002H111.785V93.002ZM107.583 79.912V78.912H106.583V79.912H107.583ZM113.017 79.912H114.017V78.912H113.017V79.912ZM113.017 82.266V83.266H114.017V82.266H113.017ZM107.583 82.266H106.583V83.266H107.583V82.266ZM103.183 74.994C104.359 74.994 105.385 75.5271 106.147 76.5536C106.924 77.5992 107.441 79.1885 107.441 81.254H109.441C109.441 78.8755 108.847 76.8348 107.753 75.3614C106.645 73.8689 105.043 72.994 103.183 72.994V74.994ZM107.441 81.254C107.441 83.3435 106.923 84.944 106.146 85.9946C105.384 87.0253 104.359 87.558 103.183 87.558V89.558C105.043 89.558 106.646 88.6827 107.755 87.1834C108.848 85.704 109.441 83.6525 109.441 81.254H107.441ZM103.183 87.558C101.995 87.558 100.97 87.0241 100.212 85.9957C99.4385 84.9461 98.9248 83.3457 98.9248 81.254H96.9248C96.9248 83.6503 97.5112 85.7019 98.6021 87.1823C99.7087 88.6839 101.313 89.558 103.183 89.558V87.558ZM98.9248 81.254C98.9248 79.1863 99.4376 77.5971 100.211 76.5524C100.969 75.5283 101.994 74.994 103.183 74.994V72.994C101.314 72.994 99.7098 73.8677 98.6033 75.3626C97.5121 76.8369 96.9248 78.8777 96.9248 81.254H98.9248ZM103.183 75.656C102.009 75.656 101.093 76.3248 100.524 77.3466C99.9774 78.329 99.7188 79.6697 99.7188 81.254H101.719C101.719 79.8463 101.955 78.888 102.272 78.3194C102.566 77.7902 102.883 77.656 103.183 77.656V75.656ZM99.7188 81.254C99.7188 82.8585 99.9769 84.2137 100.521 85.2057C101.087 86.2361 102.002 86.918 103.183 86.918V84.918C102.89 84.918 102.573 84.7859 102.275 84.2433C101.956 83.6623 101.719 82.6855 101.719 81.254H99.7188ZM103.183 86.918C104.372 86.918 105.289 86.2392 105.854 85.2034C106.395 84.2105 106.647 82.8551 106.647 81.254H104.647C104.647 82.6889 104.414 83.6655 104.098 84.2456C103.805 84.7828 103.49 84.918 103.183 84.918V86.918ZM106.647 81.254C106.647 79.6732 106.395 78.3322 105.851 77.3489C105.283 76.3217 104.365 75.656 103.183 75.656V77.656C103.497 77.656 103.811 77.7933 104.101 78.3171C104.415 78.8848 104.647 79.8428 104.647 81.254H106.647ZM111.785 73.564H114.689V71.564H111.785V73.564ZM113.689 72.564V93.002H115.689V72.564H113.689ZM114.689 92.002H111.785V94.002H114.689V92.002ZM112.785 93.002V72.564H110.785V93.002H112.785ZM107.583 80.912H113.017V78.912H107.583V80.912ZM112.017 79.912V82.266H114.017V79.912H112.017ZM113.017 81.266H107.583V83.266H113.017V81.266ZM108.583 82.266V79.912H106.583V82.266H108.583Z" fill="white" mask="url(#path-14-outside-7_2_386)"/>
<path d="M81.6667 55.3333C81.6667 53.4456 76.4433 51.9167 70 51.9167M81.6667 55.3333C81.6667 57.221 76.4433 58.75 70 58.75C63.5567 58.75 58.3333 57.221 58.3333 55.3333M81.6667 55.3333V63.7674C81.6667 65.7132 76.4433 67.2917 70 67.2917C63.5567 67.2917 58.3333 65.7149 58.3333 63.7674V55.3333M81.6667 55.3333C88.04 55.3333 93.3333 53.6472 93.3333 51.9167V34.8333M70 51.9167C63.5567 51.9167 58.3333 53.4456 58.3333 55.3333M70 51.9167C62.6367 51.9167 56.6667 50.2305 56.6667 48.5V39.9583M70 36.5417C62.6367 36.5417 56.6667 38.0706 56.6667 39.9583M56.6667 39.9583C56.6667 41.846 62.6367 43.375 70 43.375C70 45.1055 75.4217 46.7917 81.795 46.7917C88.1667 46.7917 93.3333 45.1055 93.3333 43.375M93.3333 34.8333C93.3333 32.9456 88.1667 31.4167 81.795 31.4167C75.4217 31.4167 70.2567 32.9456 70.2567 34.8333M93.3333 34.8333C93.3333 36.721 88.1667 38.25 81.795 38.25C75.4233 38.25 70.2567 36.721 70.2567 34.8333M70.2567 34.8333V52.2003" stroke="#6E6D6B" stroke-width="2"/>
</svg>
